SplineFontDB: 3.2
FontName: BestChristmasPersonalUse
FullName: Best Christmas - Personal Use
FamilyName: Best Christmas - Personal Use
Weight: Regular
Copyright: Copyright \\(c\\) 2022 by Typhoon Type\\(TM\\) - Suthi Srisopha. All rights reserved.
Version: Version 1.000
ItalicAngle: 0
UnderlinePosition: -125
UnderlineWidth: 50
Ascent: 800
Descent: 200
InvalidEm: 0
sfntRevision: 0x00010000
LayerCount: 2
Layer: 0 0 "Back" 1
Layer: 1 0 "Fore" 0
XUID: [1021 463 1317630449 8643]
StyleMap: 0x0040
FSType: 258
OS2Version: 4
OS2_WeightWidthSlopeOnly: 0
OS2_UseTypoMetrics: 1
CreationTime: 1668069822
ModificationTime: 1702784240
PfmFamily: 81
TTFWeight: 400
TTFWidth: 5
LineGap: 50
VLineGap: 0
Panose: 0 0 0 0 0 0 0 0 0 0
OS2TypoAscent: 623
OS2TypoAOffset: 0
OS2TypoDescent: -173
OS2TypoDOffset: 0
OS2TypoLinegap: 50
OS2WinAscent: 950
OS2WinAOffset: 0
OS2WinDescent: 500
OS2WinDOffset: 0
HheadAscent: 623
HheadAOffset: 0
HheadDescent: -173
HheadDOffset: 0
OS2SubXSize: 650
OS2SubYSize: 600
OS2SubXOff: 0
OS2SubYOff: 75
OS2SupXSize: 650
OS2SupYSize: 600
OS2SupXOff: 0
OS2SupYOff: 350
OS2StrikeYSize: 50
OS2StrikeYPos: 300
OS2CapHeight: 623
OS2XHeight: 431
OS2Vendor: 'SS  '
OS2CodePages: 00000001.00000000
OS2UnicodeRanges: 00000027.00000000.00000000.00000000
Lookup: 1 0 0 "'aalt' Access All Alternates in Latin lookup 0" { "'aalt' Access All Alternates in Latin lookup 0 subtable"  } ['aalt' ('DFLT' <'dflt' > 'latn' <'dflt' > ) ]
Lookup: 1 0 0 "'ss01' Style Set 1 in Latin lookup 1" { "'ss01' Style Set 1 in Latin lookup 1 subtable"  } ['ss01' ('DFLT' <'dflt' > 'latn' <'dflt' > ) ]
Lookup: 4 0 1 "'rlig' Required Ligatures in Latin lookup 2" { "'rlig' Required Ligatures in Latin lookup 2 subtable"  } ['rlig' ('DFLT' <'dflt' > 'latn' <'dflt' > ) ]
Lookup: 258 8 0 "'kern' Horizontal Kerning in Latin lookup 0" { "'kern' Horizontal Kerning in Latin lookup 0 subtable"  } ['kern' ('DFLT' <'dflt' > 'latn' <'dflt' > ) ]
DEI: 91125

StartChar: exclam
Encoding: 33 33 4
Width: 182
GlyphClass: 2
Flags: MW
HStem: 13 120 13 617
VStem: 51 65
LayerCount: 2
Fore
SplineSet
117 127 m 0x60
 92 137 71 169 62 186 c 0
 59 192 56 199 55 206 c 0
 49 239 49 279 55 380 c 0
 62 505 72 598 75 625 c 0
 75 630 79 632 83 630 c 0
 99 621 111 607 119 593 c 1
 119 593 135 567 131 511 c 0
 127 463 123 396 123 396 c 2
 109 243 119 164 124 136 c 0
 125 129 122 125 117 127 c 0x60
128 27 m 0xa0
 130 17 123 12 114 13 c 0
 100 15 81 16 65 57 c 1
 65 57 59 79 58 122 c 0
 58 134 67 137 76 129 c 0
 88 117 105 101 117 90 c 0
 122 85 125 78 125 72 c 0
 126 60 127 41 128 27 c 0xa0
EndSplineSet
EndChar

StartChar: quotedbl
Encoding: 34 34 5
Width: 160
GlyphClass: 2
Flags: MW
HStem: 662 72 674 73
VStem: 34 43 109 20
LayerCount: 2
Fore
SplineSet
74 735 m 0x70
 88 709 57 677 57 677 c 1
 47 672 39 675 34 677 c 0
 31 679 30 682 31 684 c 0
 37 700 33 733 34 740 c 0
 34 744 46 746 55 747 c 0
 63 747 71 743 74 735 c 0x70
126 723 m 0xb0
 139 696 109 665 109 665 c 1
 99 659 90 662 86 665 c 0
 83 666 82 669 83 672 c 0
 89 687 85 721 85 727 c 0
 86 732 98 734 107 734 c 0
 114 735 122 730 126 723 c 0xb0
EndSplineSet
EndChar

StartChar: numbersign
Encoding: 35 35 6
Width: 368
GlyphClass: 2
Flags: MW
HStem: 143 48<155 159.5> 150 33<293 313> 243 49<162 164.5> 250 34<297 316.5> 333 21<153 153 246 246>
VStem: 111 44 204 44
LayerCount: 2
Fore
SplineSet
312 183 m 0x5e
 314 183 315 181 314 177 c 0
 309 165 301 156 293 150 c 2x6e
 293 150 280 137 251 139 c 0
 250 139 248 139 247 139 c 1
 247 106 251 86 253 76 c 0
 254 72 252 70 249 71 c 0
 231 76 217 95 211 104 c 0
 208 108 207 112 206 115 c 0
 204 123 203 130 202 141 c 1
 195 141 191 141 191 141 c 2
 177 142 165 143 154 143 c 1xae
 154 107 158 86 160 76 c 0
 161 72 159 70 156 71 c 0
 138 76 124 95 118 104 c 0
 115 108 114 112 113 115 c 0
 111 123 110 131 109 142 c 1
 81 140 64 136 56 133 c 0
 52 132 50 134 51 138 c 0
 57 157 74 173 83 180 c 0
 87 183 90 185 94 186 c 0
 99 187 104 188 110 189 c 1
 110 196 111 204 111 213 c 0
 112 223 113 233 113 243 c 1x6e
 85 241 68 236 59 234 c 0
 56 232 54 235 55 238 c 0
 60 257 78 273 87 281 c 0x9e
 90 283 94 285 97 286 c 0
 103 288 109 290 117 290 c 1
 120 321 122 342 123 351 c 0
 124 354 126 355 129 354 c 0
 140 349 148 340 153 333 c 2
 153 333 163 320 162 292 c 1
 170 292 178 292 188 292 c 0xae
 196 291 203 291 210 291 c 1
 213 321 215 342 216 351 c 0
 217 354 219 355 222 354 c 0
 233 349 241 340 246 333 c 2
 246 333 257 319 255 289 c 1
 285 287 307 285 315 284 c 0
 318 284 319 281 317 278 c 0
 312 266 304 257 297 250 c 1
 297 250 283 238 254 239 c 0
 254 240 253 240 252 240 c 0
 251 229 251 222 251 222 c 2
 250 210 249 199 248 188 c 1
 280 186 303 184 312 183 c 0x5e
184 191 m 0xae
 191 191 197 190 203 190 c 1
 203 197 204 205 204 213 c 0
 205 223 206 232 206 241 c 1
 199 242 194 242 194 242 c 2
 182 243 170 243 159 243 c 1
 158 231 158 222 158 222 c 2
 157 211 156 201 155 191 c 1
 164 191 173 191 184 191 c 0xae
EndSplineSet
EndChar

StartChar: dollar
Encoding: 36 36 7
Width: 344
GlyphClass: 2
Flags: MW
HStem: -8 21G 17 31<152 152>
VStem: 51 60 68 76 131 28 144 21 154 27 167 22
LayerCount: 2
Fore
SplineSet
224 285 m 1xd5
 224 285 290 225 293 157 c 0
 297 79 246 11 152 17 c 1
 152 14 152 11 152 9 c 0
 152 1 150 -7 149 -8 c 0
 141 -13 136 5 133 19 c 1
 62 37 26 141 70 201 c 1
 70 201 92 236 142 237 c 1
 143 246 143 255 144 265 c 1
 38 345 74 482 74 482 c 1
 93 560 133 585 171 587 c 0
 171 590 172 592 172 594 c 0
 172 601 174 606 175 606 c 0
 182 607 187 602 188 586 c 1
 211 582 281 542 266 450 c 0
 254 376 209 368 209 368 c 1
 195 369 184 375 176 384 c 1
 175 367 174 352 173 344 c 1
 188 319 207 301 224 285 c 1xd5
189 539 m 0
 187 518 184 482 181 447 c 1xe2
 189 460 194 472 194 472 c 1
 210 516 196 544 189 554 c 1
 189 549 189 544 189 539 c 0
131 58 m 1
 131 80 133 108 136 153 c 1
 101 135 106 80 131 58 c 1
154 385 m 1xe2
 159 447 163 499 167 537 c 1xe9
 154 518 140 486 144 435 c 0xe5
 145 417 149 400 154 385 c 1xe2
219 83 m 0
 253 134 243 170 243 170 c 1
 233 212 167 250 167 250 c 2
 166 250 166 250 165 251 c 1
 165 244 164 238 164 232 c 1
 187 219 195 185 193 152 c 0
 193 149 190 147 188 149 c 0xe5
 179 156 165 158 159 158 c 1xe9
 155 109 154 73 153 48 c 1
 170 47 200 55 219 83 c 0
EndSplineSet
EndChar

StartChar: percent
Encoding: 37 37 8
Width: 321
GlyphClass: 2
Flags: MW
HStem: 114 33 426 17 509 32<160 161.5 160 164 160 165>
VStem: 74 30 122 30 169 20 217 20 269 36
LayerCount: 2
Fore
SplineSet
296 524 m 0
 266 424 192 279 148 196 c 0
 127 156 67 40 45 -23 c 0
 36 -47 29 -42 27 -39 c 0
 19 -21 16 -1 16 19 c 0
 16 83 47 153 61 181 c 0
 63 185 65 188 66 191 c 0
 137 328 255 559 269 621 c 1
 269 621 l 1
 269 622 269 624 270 625 c 0
 272 632 277 643 285 638 c 0
 299 627 316 597 296 524 c 0
81 435 m 0
 63 451 78 505 117 530 c 0
 138 543 152 543 160 541 c 0
 163 541 166 540 170 538 c 0
 175 535 185 528 189 516 c 0
 193 506 192 491 181 471 c 0
 178 466 169 451 151 441 c 1
 151 441 l 1
 124 424 95 421 81 435 c 0
149 509 m 0
 131 503 93 459 107 446 c 0
 112 440 124 445 138 455 c 0
 141 458 144 461 146 463 c 2
 146 463 147 463 147 464 c 1
 147 464 l 1
 147 464 l 1
 159 476 178 499 165 509 c 1
 164 509 l 2
 161 510 154 511 149 509 c 0
129 40 m 0
 112 57 126 110 165 135 c 0
 186 149 201 149 209 147 c 0
 211 146 215 145 218 143 c 0
 223 140 233 134 237 121 c 0
 241 111 241 96 230 77 c 0
 227 71 217 56 199 46 c 1
 199 46 l 1
 172 30 144 27 129 40 c 0
197 114 m 0
 179 108 142 65 155 51 c 0
 161 46 173 51 187 61 c 0
 190 64 193 66 194 68 c 0
 195 68 195 69 195 69 c 2
 196 69 196 70 196 70 c 1
 196 70 l 1
 207 81 226 105 213 114 c 1
 213 114 l 1
 209 116 203 116 197 114 c 0
EndSplineSet
EndChar

StartChar: ampersand
Encoding: 38 38 9
Width: 417
GlyphClass: 2
Flags: MW
HStem: 67 58 153 52 267 20<214 232 214 232> 427 34
VStem: 51 62<177 178 177 187> 109 41 187 8<278 285 278 285> 219 38 354 10
LayerCount: 2
Fore
SplineSet
364 203 m 0xf780
 367 200 367 194 364 190 c 0
 364 189 364 189 364 189 c 1
 354 171 339 159 333 155 c 1
 333 155 l 1
 330 153 328 153 326 153 c 1
 326 153 l 1
 313 152 300 153 287 156 c 1
 282 134 261 68 171 67 c 0
 170 67 170 67 169 67 c 0
 142 67 119 72 101 82 c 0
 86 90 74 101 65 116 c 0
 51 140 51 163 51 165 c 0
 51 209 72 242 125 282 c 1xfb80
 114 306 110 326 109 333 c 0
 99 391 127 444 173 458 c 0
 192 463 210 462 224 454 c 0
 236 448 245 437 250 425 c 0
 252 422 263 399 252 364 c 0
 252 362 251 360 250 358 c 0
 244 341 232 322 214 303 c 0
 208 297 203 292 197 286 c 0
 196 286 195 285 195 285 c 2
 194 284 193 283 192 283 c 1
 192 282 l 2
 189 280 187 278 187 278 c 1
 187 278 l 1
 186 277 184 276 183 275 c 0
 195 260 209 246 225 234 c 1
 222 247 218 259 215 267 c 0
 214 267 214 267 214 267 c 1
 213 272 213 277 216 281 c 0
 219 285 224 287 232 287 c 1
 232 287 l 1
 258 283 271 269 272 267 c 0
 288 250 297 227 298 205 c 1
 321 202 340 204 353 206 c 2
 354 206 l 2
 359 207 362 206 364 203 c 0xf780
149 121 m 1
 161 118 174 120 187 125 c 0
 200 130 210 140 215 148 c 0
 220 154 222 159 223 160 c 2
 223 161 l 1
 223 161 l 1
 223 161 l 1
 225 166 227 171 228 177 c 1
 195 193 168 215 147 244 c 1
 144 240 141 238 139 236 c 2
 138 235 l 2
 136 233 134 230 132 228 c 0
 126 220 118 208 115 194 c 0
 113 184 113 178 113 178 c 1
 113 178 113 178 113 177 c 0
 112 155 118 127 149 121 c 1
 149 121 l 1
161 407 m 0
 157 401 150 388 150 367 c 0xf780
 150 354 153 334 162 311 c 1
 182 328 199 347 209 365 c 0
 213 372 219 385 219 399 c 0
 219 410 213 417 211 420 c 1
 211 420 l 1
 210 420 203 428 189 427 c 0
 183 426 171 422 161 407 c 0
EndSplineSet
EndChar

StartChar: quotesingle
Encoding: 39 39 10
Width: 116
GlyphClass: 2
Flags: MW
HStem: 661 85
VStem: 34 52
LayerCount: 2
Fore
SplineSet
82 732 m 0
 98 701 62 664 62 664 c 1
 50 658 40 661 34 664 c 0
 31 665 30 669 31 672 c 0
 38 690 33 730 34 738 c 0
 34 743 48 745 59 746 c 0
 68 747 77 741 82 732 c 0
EndSplineSet
EndChar

StartChar: parenleft
Encoding: 40 40 11
Width: 717
GlyphClass: 2
Flags: MW
HStem: 129 23 152 30 154 32 162 38 163 34 186 35 187 38<464 465.5 464 467> 212 38 274 15 280 14<599 610 599 617.5> 302 30 349 59<151 162>
VStem: 16 15 53 12 194 25 208 31<8 29> 212 12 219 39 236 11 402 37 430 11 446 37 487 37
LayerCount: 2
Fore
SplineSet
109 269 m 1x417e2e
 94 248 80 230 59 212 c 1
 61 210 63 207 65 205 c 0
 81 219 103 249 109 269 c 1x417e2e
219 53 m 1
 222 80 224 102 235 129 c 1
 231 129 228 128 224 128 c 0x847cae
 218 108 215 73 219 53 c 1
365 308 m 1
 376 282 409 243 430 228 c 0x41be2e
 434 230 439 232 443 235 c 1
 409 257 389 280 365 308 c 1
219 217 m 0
 227 223 238 222 243 214 c 0
 249 206 248 196 240 190 c 0
 232 184 221 185 216 193 c 0
 210 201 211 212 219 217 c 0
696 261 m 0
 703 254 701 249 701 249 c 2
 699 245 694 248 691 250 c 0
 684 258 673 264 673 264 c 2
 667 268 659 272 652 274 c 0x41be2e
 633 269 602 254 581 215 c 0
 549 154 546 112 518 95 c 0
 503 86 487 83 474 81 c 0
 470 81 468 87 471 90 c 0
 482 98 496 115 509 149 c 0
 533 212 567 269 644 276 c 1
 634 278 623 280 612 280 c 0
 578 280 541 269 506 250 c 1
 514 250 522 245 524 236 c 0
 527 226 521 215 511 212 c 0xa17e2e
 501 209 490 215 487 226 c 0
 486 231 487 236 489 240 c 1
 480 235 472 230 464 225 c 1x427e2e
 467 225 470 224 473 223 c 0
 482 218 486 206 480 197 c 0x897e2e
 477 190 470 187 464 187 c 0x427e2e
 460 187 457 187 454 189 c 0
 445 194 442 206 446 215 c 1
 437 209 429 205 421 200 c 1x917e2e
 429 200 437 194 439 186 c 0xa27e36
 442 176 436 165 426 162 c 0x917e2e
 416 159 405 165 402 176 c 0x447e36
 401 181 402 186 404 190 c 1
 369 170 353 163 353 163 c 2
 312 142 274 133 241 129 c 1x897c4e
 246 114 258 103 268 98 c 1
 248 75 265 60 265 60 c 1
 240 53 239 29 239 29 c 1
 221 29 208 8 208 8 c 1
 208 29 187 37 187 37 c 1
 199 61 178 73 178 73 c 1
 202 90 191 109 191 109 c 1
 201 112 210 120 218 128 c 1
 155 127 114 147 114 147 c 1
 90 156 71 168 57 182 c 1x447d0e
 58 172 52 164 43 163 c 0x897e2e
 33 161 24 167 23 177 c 0x447e2e
 21 186 28 195 37 197 c 0x897e2e
 40 197 42 197 44 196 c 1
 0 253 21 322 21 322 c 1
 29 351 41 366 55 377 c 0
 58 379 61 381 63 382 c 0
 84 400 122 408 150 408 c 0
 182 408 226 390 248 366 c 0
 252 362 248 356 243 358 c 0
 231 362 222 364 213 364 c 0
 201 364 190 361 178 354 c 0
 172 351 165 349 159 349 c 0
 143 349 128 358 115 367 c 0
 102 375 89 379 79 380 c 0
 76 379 73 377 71 376 c 0
 38 353 34 313 34 313 c 1
 27 277 34 246 53 220 c 1
 54 234 50 247 44 255 c 1
 73 264 66 286 66 286 c 1
 91 279 105 300 105 300 c 1
 109 297 114 296 119 296 c 0
 131 296 142 302 142 302 c 1
 131 284 145 266 145 266 c 1
 122 252 135 231 135 231 c 1
 105 228 105 206 105 206 c 1
 94 210 79 205 68 202 c 1
 102 171 151 152 197 152 c 1x447e2e
 195 153 194 154 193 155 c 0x897e2e
 188 163 189 173 197 179 c 0
 204 185 215 183 221 176 c 0
 227 168 225 158 218 152 c 1x447e2e
 227 152 236 153 244 154 c 1
 242 155 240 157 239 159 c 0
 233 166 235 177 242 183 c 0
 250 189 261 187 267 180 c 0
 272 173 271 164 266 158 c 1
 297 164 326 173 347 184 c 0
 379 199 403 213 427 226 c 1
 417 228 403 231 391 231 c 0
 385 231 380 231 376 229 c 2
 376 229 374 256 335 258 c 1
 335 258 350 285 319 302 c 1
 319 302 335 326 320 349 c 1
 320 349 333 343 348 343 c 0
 355 343 363 344 369 349 c 1
 369 349 382 332 405 332 c 0
 409 332 414 332 419 334 c 1
 419 334 412 306 450 296 c 1
 442 283 437 259 445 236 c 1
 467 248 490 261 520 274 c 0xa2bd0e
 556 291 588 294 610 294 c 1x447e2e
 578 307 559 323 537 346 c 0
 535 348 537 352 540 352 c 0
 551 354 562 356 573 356 c 0
 597 356 621 345 638 290 c 0
 642 289 645 289 645 289 c 2
 669 283 689 267 696 261 c 0
EndSplineSet
EndChar

StartChar: parenright
Encoding: 41 41 12
Width: 717
GlyphClass: 2
Flags: MW
HStem: 129 23<482 499> 152 30 154 32 161 39<295 296 292 300.5> 163 34 187 38<251.5 253 251.5 255> 204 92 211 39<210 211 207 215.5> 280 14<107 118 107 122> 349 59<555 566>
VStem: 193 37 234 37 276 14 278 37 459 39 470 11 478 31<8 29> 493 12 495 30 652 12 684 17
LayerCount: 2
Fore
SplineSet
352 308 m 1x41f618
 328 280 308 257 274 235 c 1
 278 232 283 230 287 228 c 0
 308 243 341 282 352 308 c 1x41f618
498 53 m 1
 502 73 499 108 493 128 c 0
 489 128 486 129 482 129 c 1x89f958
 493 102 495 80 498 53 c 1
608 269 m 1
 614 249 636 219 652 205 c 0
 654 207 656 210 658 212 c 1
 637 230 623 248 608 269 c 1
680 197 m 0
 689 195 696 186 694 177 c 0x91f938
 693 167 684 161 674 163 c 0x89f938
 665 164 659 172 660 182 c 1
 646 168 627 156 603 147 c 1
 603 147 563 127 499 128 c 1
 507 120 516 112 526 109 c 1
 526 109 515 90 539 73 c 1
 539 73 518 61 530 37 c 1
 530 37 509 29 509 8 c 1
 509 8 496 29 478 29 c 1x41f898
 478 29 477 53 452 60 c 1
 452 60 469 75 449 98 c 1
 459 103 471 114 476 129 c 1
 443 133 405 142 364 163 c 2x89fa18
 364 163 348 170 313 190 c 1xa1f538
 315 186 316 181 315 176 c 0
 313 167 305 161 296 161 c 0x91f538
 294 161 293 161 291 162 c 0
 281 165 275 176 278 186 c 0xa1f538
 280 194 288 200 296 200 c 1x91f938
 288 205 280 209 271 215 c 1
 275 206 272 194 263 189 c 0
 260 187 257 187 253 187 c 0x44f938
 247 187 240 190 237 197 c 0x89f938
 231 206 235 218 244 223 c 0
 247 224 250 225 253 225 c 1x44f938
 245 230 237 235 228 240 c 1
 230 236 231 231 230 226 c 0
 228 217 220 211 211 211 c 0
 209 211 208 211 206 212 c 0
 196 215 190 226 193 236 c 0
 195 245 203 250 211 250 c 1
 176 269 139 280 105 280 c 0
 94 280 83 278 73 276 c 1
 150 269 184 212 208 149 c 0
 221 115 235 98 246 90 c 0
 249 87 247 81 243 81 c 0
 230 83 214 86 199 95 c 0
 171 112 168 154 136 215 c 0
 115 254 84 269 65 274 c 0
 58 272 50 268 44 264 c 2
 44 264 33 258 26 250 c 0
 23 248 18 245 16 249 c 2
 16 249 14 254 21 261 c 0
 28 267 48 283 72 289 c 2
 72 289 75 289 79 290 c 0
 96 345 120 356 144 356 c 0
 155 356 166 354 177 352 c 0
 181 352 182 348 180 346 c 0
 158 323 139 307 107 294 c 1xa1f938
 129 294 161 291 197 274 c 0
 227 261 250 248 272 236 c 1
 280 259 275 283 267 296 c 1x427938
 305 306 298 334 298 334 c 1
 303 332 308 332 312 332 c 0
 335 332 348 349 348 349 c 1
 354 344 362 343 369 343 c 0
 384 343 397 349 397 349 c 1
 382 326 398 302 398 302 c 1
 367 285 382 258 382 258 c 1
 343 256 341 229 341 229 c 2
 337 231 332 231 326 231 c 0
 314 231 300 228 290 226 c 1
 314 213 338 199 370 184 c 0
 391 173 420 164 451 158 c 1
 446 164 445 173 450 180 c 0
 456 187 467 189 475 183 c 0
 482 177 484 166 478 159 c 0
 477 157 475 155 473 154 c 1xa4f898
 481 153 490 152 499 152 c 1x41f938
 492 158 490 168 496 176 c 0
 502 183 513 185 520 179 c 0x89f938
 528 173 529 163 524 155 c 0xa1f938
 523 154 522 153 520 152 c 1
 566 152 615 171 649 202 c 1
 638 205 623 210 612 206 c 1
 612 206 612 228 582 231 c 1
 582 231 595 252 572 266 c 1
 572 266 586 284 575 302 c 1
 575 302 586 296 598 296 c 0
 603 296 608 297 612 300 c 1
 612 300 626 279 651 286 c 1
 651 286 644 264 673 255 c 1
 667 247 663 234 664 220 c 1
 683 246 690 277 684 313 c 1
 684 313 679 353 646 376 c 0
 644 377 641 379 638 380 c 0
 628 379 615 375 602 367 c 0
 589 358 574 349 558 349 c 0
 552 349 545 351 539 354 c 0
 527 361 516 364 504 364 c 0x427938
 495 364 486 362 474 358 c 0
 469 356 465 362 469 366 c 0
 491 390 535 408 567 408 c 0
 595 408 633 400 654 382 c 0
 657 381 659 379 662 377 c 0
 676 366 688 351 696 322 c 1
 696 322 718 253 673 196 c 1
 675 197 677 197 680 197 c 0
477 190 m 0
 469 196 468 206 474 214 c 0
 479 222 490 223 498 217 c 0
 506 212 507 201 501 193 c 0
 496 185 485 184 477 190 c 0
EndSplineSet
EndChar

StartChar: asterisk
Encoding: 42 42 13
Width: 128
GlyphClass: 2
Flags: MW
HStem: 692 15 701 21<40 43 43 43 43 43> 707 22<88 88> 739 11
VStem: 42 12 55 18 73 19
LayerCount: 2
Fore
SplineSet
63 677 m 0x9a
 59 678 57 681 55 685 c 1
 51 680 45 676 42 684 c 0x9a
 40 689 41 696 43 701 c 1
 43 701 l 1x98
 43 701 l 1
 37 701 28 701 31 710 c 0
 32 716 37 720 41 722 c 1
 38 726 34 732 40 737 c 0x58
 45 741 50 740 55 739 c 1
 55 739 55 740 55 741 c 0
 56 747 58 756 66 752 c 0
 69 750 71 747 73 744 c 1
 77 749 82 753 85 747 c 0x94
 88 742 87 735 85 729 c 1
 86 729 87 729 89 729 c 0
 94 729 101 727 96 718 c 0
 94 714 91 710 87 708 c 1
 88 708 88 708 88 707 c 0x3a
 91 703 95 696 86 692 c 0
 81 690 77 690 73 691 c 1
 72 685 70 675 63 677 c 0x9a
EndSplineSet
EndChar

StartChar: plus
Encoding: 43 43 14
Width: 261
GlyphClass: 2
Flags: MW
HStem: 214 41 216 45
VStem: 112 40<215 215> 116 48<256 293>
LayerCount: 2
Fore
SplineSet
191 263 m 0x50
 217 260 211 224 207 208 c 0
 206 204 202 202 200 204 c 0x50
 192 211 174 215 152 216 c 1
 147 191 144 167 146 158 c 0
 147 156 145 154 143 153 c 0
 129 150 98 146 109 199 c 0x60
 110 205 111 210 112 215 c 1
 106 215 101 214 95 214 c 0
 43 207 49 239 53 252 c 0
 54 255 57 256 59 256 c 0xa0
 67 252 90 254 116 256 c 1
 116 280 114 298 108 307 c 0
 106 309 108 313 112 313 c 0
 128 316 163 320 164 293 c 0x90
 164 287 163 276 160 261 c 1
 174 263 186 264 191 263 c 0x50
EndSplineSet
EndChar

StartChar: comma
Encoding: 44 44 15
Width: 142
GlyphClass: 2
Flags: HMW
HStem: -36 77
VStem: 75 16
LayerCount: 2
Fore
SplineSet
87 30 m 0
 100.503835464 2.39706650783 78.5150245424 -29.2982050026 73 -36 c 1
 66 -44 50.5313720047 -67.1254880186 47 -53 c 0
 46 -49 51.2330350112 -29.0678599554 52 -26 c 0
 56 -10 51 25 51 32 c 0
 51 36 62 39 70 41 c 0
 76 42 83.245352201 37.6748042259 87 30 c 0
EndSplineSet
EndChar

StartChar: hyphen
Encoding: 45 45 16
Width: 285
GlyphClass: 2
Flags: HMW
HStem: 213 55
VStem: 51 183<200 256.5>
LayerCount: 2
Fore
SplineSet
199.359746465 267.656505387 m 0
 226 264 233 222 233.566137276 208.412705371 c 0
 234 198 231 196 225.012554355 200.354505924 c 0
 209 212 161 217 123.322818969 211.617545567 c 0
 56 202 50 239 50.6719197012 251.766474322 c 0
 51 258 53 260 57.4473074104 258.221077036 c 0
 78 250 175 271 199.359746465 267.656505387 c 0
EndSplineSet
EndChar

StartChar: period
Encoding: 46 46 17
Width: 141
GlyphClass: 2
Flags: MW
HStem: -5 45
VStem: 51 39
LayerCount: 2
Fore
SplineSet
88 5 m 0
 82 -6 69 -9 60 -2 c 0
 51 4 48 19 54 29 c 0
 60 40 72 44 81 37 c 0
 91 30 93 16 88 5 c 0
EndSplineSet
EndChar

StartChar: slash
Encoding: 47 47 18
Width: 299
GlyphClass: 2
Flags: MW
HStem: 1 638
VStem: 15 268
LayerCount: 2
Fore
SplineSet
259 637 m 0
 278 617 282 587 283 572 c 0
 283 567 282 562 281 558 c 0
 266 530 133 233 133 233 c 2
 82 116 58 31 55 8 c 0
 55 2 51 -1 47 2 c 0
 29 18 20 50 16 65 c 0
 15 71 15 77 16 82 c 0
 19 110 41 167 72 242 c 0
 110 336 241 617 251 636 c 0
 252 640 256 640 259 637 c 0
EndSplineSet
EndChar

StartChar: zero
Encoding: 48 48 19
Width: 408
GlyphClass: 2
Flags: MW
HStem: 489 15<231 241 231 241 231 241>
VStem: 23 84 251 24<518 536> 323 64<210 231>
LayerCount: 2
Fore
SplineSet
283 494 m 0
 398 424 387 217 387 210 c 1
 387 210 l 1
 389 96 350 -17 215 1 c 0
 -14 32 23 323 23 323 c 1
 55 609 215 585 215 585 c 1
 234 583 249 575 259 564 c 0
 271 552 275 536 275 536 c 1
 278 522 277 512 273 505 c 0
 271 503 272 499 275 498 c 0
 278 497 280 495 283 494 c 0
323 231 m 1
 323 231 323 402 273 468 c 0
 267 477 262 482 254 485 c 2
 254 485 244 489 232 489 c 2
 231 489 l 1
 231 489 l 1
 227 488 224 494 226 497 c 0
 229 501 234 504 241 504 c 0
 243 505 244 505 245 506 c 0
 249 513 251 518 251 518 c 1
 257 541 241 548 239 549 c 1
 239 549 l 1
 215 556 196 532 194 530 c 0
 194 529 194 529 194 529 c 1
 190 525 141 473 114 314 c 1
 114 314 70 53 205 36 c 1
 205 36 325 16 323 231 c 1
EndSplineSet
EndChar

StartChar: one
Encoding: 49 49 20
Width: 225
GlyphClass: 2
Flags: MW
HStem: -2 21G<179 182>
VStem: 15 58 106 61 137 67
LayerCount: 2
Fore
SplineSet
204 388 m 0xd0
 201 379 184 271 173 176 c 1
 173 176 152 58 185 9 c 0
 189 4 185 -2 179 -2 c 0
 127 -1 107 40 106 105 c 0
 106 150 109 188 114 228 c 0xe0
 120 271 126 322 126 322 c 2
 144 432 138 477 121 517 c 0
 118 525 115 532 111 538 c 1
 90 520 76 498 73 462 c 0
 72 452 73 444 75 436 c 0
 77 430 71 425 66 427 c 0
 51 433 28 445 19 463 c 0
 0 500 62 568 72 579 c 0
 73 581 75 581 76 582 c 0
 86 584 124 589 164 560 c 0
 192 540 208 507 209 455 c 0
 210 436 209 413 204 388 c 0xd0
EndSplineSet
EndChar

StartChar: two
Encoding: 50 50 21
Width: 360
GlyphClass: 2
Flags: MW
HStem: 0 60 11 49<57 136 57 136> 546 37
VStem: 34 57 316 8
LayerCount: 2
Fore
SplineSet
159 583 m 0xb8
 241 581 357 424 316 302 c 1
 316 302 270 178 82 60 c 1
 110 60 136 60 136 60 c 2
 231 58 259 68 280 82 c 0
 293 90 299 97 301 103 c 0
 304 108 310 109 313 105 c 0
 328 91 353 63 354 39 c 0
 355 21 342 6 303 1 c 0
 288 -1 270 -2 247 0 c 2xb8
 247 0 131 7 58 11 c 0
 57 11 57 11 57 11 c 2
 37 14 20 39 17 43 c 0
 17 44 17 44 17 44 c 1x78
 -6 97 228 210 244 343 c 0
 259 466 184 534 172 544 c 0
 171 545 170 546 168 546 c 0
 95 556 91 399 91 349 c 0
 91 342 84 339 79 343 c 0
 63 356 36 381 34 410 c 0
 31 452 47 586 159 583 c 0xb8
EndSplineSet
EndChar

StartChar: three
Encoding: 51 51 22
Width: 354
GlyphClass: 2
Flags: MW
HStem: 0 35 547 36
VStem: 21 57 207 72 273 75
LayerCount: 2
Fore
SplineSet
203 286 m 1xf0
 203 286 299 272 336 186 c 0
 373 100 327 -12 181 0 c 1xf0
 181 0 30 5 27 151 c 0
 27 152 27 152 27 153 c 0
 28 159 37 198 84 200 c 0
 89 201 92 197 93 193 c 0
 94 161 104 40 178 35 c 0
 259 29 284 79 273 157 c 1
 273 157 265 249 161 271 c 0
 160 271 160 272 160 272 c 2xe8
 155 273 125 286 114 309 c 0
 111 315 115 321 122 321 c 0
 158 318 192 335 204 403 c 1
 204 403 l 1
 220 536 157 547 157 547 c 1
 82 560 77 401 78 350 c 0
 78 343 70 339 65 343 c 0
 49 356 23 381 21 410 c 0
 18 452 34 586 146 583 c 0
 228 581 309 485 268 363 c 1
 268 363 l 1
 267 358 252 302 203 286 c 1xf0
EndSplineSet
EndChar

StartChar: four
Encoding: 52 52 23
Width: 345
GlyphClass: 2
Flags: MW
HStem: 0 21G 218 31 229 25<246.5 247 246.5 258 243 247>
VStem: 161 77 186 80
LayerCount: 2
Fore
SplineSet
180 580 m 1xb0
 242 586 265 544 266 474 c 0xc8
 266 429 263 391 258 351 c 0
 252 308 246 257 246 257 c 2
 246 256 246 256 246 255 c 0
 246 254 246 254 247 254 c 0
 328 256 329 214 329 214 c 1
 331 203 326 196 321 192 c 0
 319 189 314 190 313 194 c 0
 307 213 285 229 258 229 c 0
 253 229 248 229 243 229 c 0
 242 228 242 228 242 227 c 0
 231 136 245 85 257 49 c 0
 263 31 272 19 280 12 c 0
 284 7 281 1 275 0 c 0
 255 -2 217 -3 194 17 c 0
 168 40 160 69 161 109 c 0
 161 128 161 151 167 189 c 0
 167 191 170 204 173 224 c 1
 172 225 l 1
 143 223 124 221 124 221 c 2
 64 212 43 227 43 227 c 1
 18 243 12 268 18 286 c 0
 19 289 21 292 22 294 c 1
 22 294 l 1
 23 295 23 295 23 295 c 2
 23 296 24 297 25 298 c 0
 51 331 90 381 124 426 c 1
 124 426 203 523 183 574 c 1
 183 574 l 1
 182 576 181 577 180 578 c 0
 179 579 179 580 180 580 c 1
 180 580 l 1
 180 581 l 1
 180 581 180 581 180 580 c 1xb0
199 403 m 2
 199 403 201 409 202 420 c 0
 202 422 200 422 200 421 c 0
 187 401 175 383 161 364 c 0xd0
 136 330 106 290 106 290 c 2
 98 280 91 270 84 260 c 1
 84 260 84 259 85 259 c 0
 108 251 139 248 176 249 c 0
 177 249 177 249 177 250 c 0
 184 292 193 350 199 403 c 2
EndSplineSet
EndChar

StartChar: five
Encoding: 53 53 24
Width: 346
GlyphClass: 2
Flags: MW
HStem: 0 40<157 157> 522 63
VStem: 51 75 259 71
LayerCount: 2
Fore
SplineSet
115 375 m 1
 115 375 287 377 325 214 c 0
 348 115 300 -14 157 0 c 1
 157 0 8 6 16 174 c 1
 16 174 25 223 71 229 c 0
 78 230 84 225 84 217 c 0
 83 176 86 46 156 40 c 0
 236 33 264 91 259 180 c 1
 259 180 247 340 57 348 c 0
 51 348 46 354 47 360 c 0
 53 416 52 489 44 516 c 0
 35 545 25 563 18 572 c 0
 15 576 18 583 23 583 c 0
 36 584 56 582 77 571 c 1
 102 574 116 577 129 579 c 0
 156 583 179 585 199 585 c 0
 254 584 288 571 308 548 c 0
 326 526 319 509 313 500 c 0
 311 497 307 497 304 499 c 0
 297 504 283 513 254 517 c 0
 218 523 182 524 120 519 c 1
 126 501 128 480 126 454 c 0
 125 435 122 399 115 375 c 1
EndSplineSet
EndChar

StartChar: six
Encoding: 54 54 25
Width: 345
GlyphClass: 2
Flags: MW
HStem: -1 21G<185 185> -1 40<185 189> 545 38<178 211.5>
VStem: 16 83<304 315> 238 60 252 77<158 183>
LayerCount: 2
Fore
SplineSet
178 583 m 1xb4
 272 585 290 516 298 468 c 0
 298 463 298 459 296 455 c 0
 286 436 270 427 249 426 c 0
 243 426 237 431 238 438 c 0xb8
 241 484 234 545 189 545 c 1
 189 545 106 540 99 315 c 1
 99 315 99 311 99 304 c 1
 134 347 193 336 193 336 c 1
 323 320 329 183 329 183 c 1
 343 -28 185 -1 185 -1 c 1
 -2 19 16 315 16 315 c 1
 32 590 178 583 178 583 c 1xb4
193 290 m 1
 193 290 107 294 113 135 c 1
 125 85 148 44 189 39 c 1
 189 39 251 33 252 158 c 1x74
 252 158 256 280 193 290 c 1
EndSplineSet
EndChar

StartChar: seven
Encoding: 55 55 26
Width: 343
GlyphClass: 2
Flags: MW
HStem: 526 55
VStem: 84 89 278 59
LayerCount: 2
Fore
SplineSet
269 578 m 0
 339 566 349 523 326 455 c 0
 310 413 294 378 275 342 c 0
 254 304 230 257 230 257 c 2
 174 159 170 115 173 72 c 0
 175 45 181 27 187 15 c 0
 190 8 183 0 176 2 c 0
 157 7 128 19 105 47 c 0
 82 74 77 110 93 159 c 0
 99 177 109 197 123 219 c 1
 123 214 186 323 231 409 c 1
 231 409 272 475 278 529 c 1
 270 529 262 528 254 528 c 0
 224 527 189 526 189 526 c 2
 110 525 89 514 75 500 c 0
 67 493 64 486 62 480 c 0
 61 475 54 474 51 477 c 0
 36 491 12 516 6 539 c 0
 2 557 10 572 41 579 c 0
 52 581 67 582 86 581 c 2
 86 581 182 578 243 577 c 2
 243 577 253 577 269 578 c 0
EndSplineSet
EndChar

StartChar: eight
Encoding: 56 56 27
Width: 360
GlyphClass: 2
Flags: MW
HStem: -1 35<174 174> 552 31<178 180>
VStem: 21 72<127 217> 53 63 234 66 270 75
LayerCount: 2
Fore
SplineSet
178 583 m 1xd4
 226 586 318 566 300 401 c 1
 300 401 290 313 215 297 c 1
 215 297 312 272 337 186 c 0
 362 99 334 -13 174 -1 c 1
 174 -1 20 6 21 160 c 0xe8
 21 274 110 311 110 311 c 1
 54 341 53 424 53 424 c 1
 49 586 178 583 178 583 c 1xd4
270 153 m 1xd4
 270 153 269 276 182 283 c 0
 89 289 93 152 93 152 c 1xe4
 93 102 116 39 175 34 c 0
 245 28 272 74 270 153 c 1xd4
234 421 m 0xd8
 245 557 180 552 180 552 c 1
 148 555 119 519 116 435 c 0
 113 333 167 321 167 321 c 1
 200 315 229 347 234 421 c 0xd8
EndSplineSet
EndChar

StartChar: nine
Encoding: 57 57 28
Width: 351
GlyphClass: 2
Flags: MW
HStem: -3 21G<168 168> 244 35<153 157>
VStem: 17 77<398 422> 24 75 247 83<265 277 265 277>
LayerCount: 2
Fore
SplineSet
161 582 m 1xe8
 348 562 330 265 330 265 c 1
 314 -9 168 -3 168 -3 c 1
 6 -1 24 161 24 161 c 1xd8
 27 209 71 214 95 213 c 0xe8
 102 213 107 206 106 199 c 0xd8
 98 160 83 46 157 33 c 1
 157 33 238 21 247 265 c 1
 247 265 247 269 247 277 c 1
 212 233 153 244 153 244 c 1
 22 260 17 398 17 398 c 1
 2 608 161 582 161 582 c 1xe8
157 279 m 1
 157 279 240 277 234 444 c 1
 221 494 198 536 157 542 c 1
 157 542 95 547 94 422 c 1xe8
 94 422 94 289 157 279 c 1
EndSplineSet
EndChar

StartChar: colon
Encoding: 58 58 29
Width: 156
GlyphClass: 2
Flags: MW
HStem: 148 57 240 57
VStem: 51 48 57 48
LayerCount: 2
Fore
SplineSet
68 244 m 0xd0
 56 253 53 270 60 284 c 0
 67 297 82 301 94 293 c 0
 105 285 109 267 101 254 c 0
 94 240 79 236 68 244 c 0xd0
88 201 m 0xe0
 100 193 103 175 96 162 c 0
 89 148 74 144 62 152 c 0
 51 160 47 178 54 191 c 0
 62 205 77 209 88 201 c 0xe0
EndSplineSet
EndChar

StartChar: semicolon
Encoding: 59 59 30
Width: 150
GlyphClass: 2
Flags: MW
HStem: 240 57
VStem: 51 48 55 43
LayerCount: 2
Fore
SplineSet
94 191 m 0xa0
 109 161 80 120 80 120 c 1
 70 112 61 115 56 117 c 0
 53 119 52 123 52 126 c 0
 58 145 52 185 51 193 c 0
 51 199 64 202 73 204 c 0
 81 205 90 200 94 191 c 0xa0
62 244 m 0xc0
 51 253 47 270 55 284 c 0
 62 297 77 301 88 293 c 0
 100 285 103 267 96 254 c 0
 89 240 74 236 62 244 c 0xc0
EndSplineSet
EndChar

StartChar: equal
Encoding: 61 61 31
Width: 234
GlyphClass: 2
Flags: MW
HStem: 182 100
VStem: 51 132<221 237>
LayerCount: 2
Fore
SplineSet
157 282 m 0
 178 280 182 251 183 237 c 0
 183 234 181 233 179 234 c 0
 166 244 132 247 96 242 c 0
 58 237 54 263 54 274 c 0
 54 276 56 277 57 276 c 0
 74 270 142 284 157 282 c 0
154 230 m 0
 175 228 179 199 180 185 c 0
 180 182 178 181 175 182 c 0
 162 192 128 195 93 190 c 0
 54 185 50 211 51 221 c 0
 51 224 52 225 54 224 c 0
 70 218 138 232 154 230 c 0
EndSplineSet
EndChar

StartChar: question
Encoding: 63 63 32
Width: 356
GlyphClass: 2
Flags: MW
HStem: 8 70<135.5 149.5> 380 76 604 31<160 162 160 162 160 162>
VStem: 50 50<516 520> 111 62<43 43> 129 14 236 70
LayerCount: 2
Fore
SplineSet
306 481 m 0x72
 304 399 237 291 198 227 c 0x72
 189 213 182 202 177 192 c 0
 158 160 148 128 149 109 c 0
 150 104 147 99 143 96 c 0
 142 95 139 94 137 94 c 0
 134 94 131 95 129 98 c 0
 119 110 114 129 114 152 c 0
 115 176 121 203 132 231 c 0
 148 269 165 302 180 331 c 0x76
 213 393 239 442 236 516 c 1
 236 516 235 540 225 563 c 0
 212 593 190 606 161 604 c 2
 161 604 161 604 160 604 c 1
 160 604 l 1
 160 604 134 604 116 580 c 0
 105 565 100 543 100 516 c 0
 101 480 121 462 139 456 c 0
 154 452 169 456 176 458 c 0
 179 459 182 458 184 456 c 0
 186 454 187 450 187 446 c 0
 185 423 175 403 157 387 c 0
 150 380 140 378 132 380 c 1
 132 381 l 1
 110 388 51 406 50 485 c 0
 50 555 81 592 106 611 c 0
 133 631 160 635 161 635 c 0
 162 635 162 635 162 635 c 2
 183 637 205 633 224 624 c 0
 243 615 261 602 274 584 c 0
 296 556 307 520 306 481 c 0x72
144 78 m 0
 161 78 174 62 173 43 c 0
 172 24 158 8 141 8 c 0
 124 8 111 24 111 43 c 0
 112 62 127 78 144 78 c 0
EndSplineSet
EndChar

StartChar: at
Encoding: 64 64 33
Width: 391
GlyphClass: 2
Flags: MW
HStem: 89 29<209 225.5> 176 20<236.5 248 237 248 237 248 242 248 242 248> 178 24<177 190.5 177 190.5> 293 25<230 234 230 234 230 234> 374 30
VStem: 52 62<253 253 253 264 253 264> 301 36 326 14
LayerCount: 2
Fore
SplineSet
338 195 m 0xde
 340 192 341 187 340 181 c 1
 340 181 l 1xdd
 328 127 292 105 264 96 c 0
 247 90 231 89 220 89 c 0
 213 89 208 90 207 90 c 0
 150 92 108 110 81 145 c 0
 70 160 56 185 52 224 c 0
 49 246 52 262 52 264 c 0
 56 306 71 341 95 365 c 0
 123 392 160 405 207 404 c 0
 233 403 255 398 275 387 c 0
 293 378 309 364 319 347 c 0
 337 320 342 285 332 252 c 0
 321 214 297 195 280 186 c 0
 261 177 244 176 244 176 c 1
 242 176 l 1
 242 176 l 1
 240 176 238 176 237 176 c 1
 237 176 l 1
 236 176 227 178 221 188 c 0
 219 191 217 195 217 200 c 1xde
 216 198 214 197 213 195 c 0
 204 183 191 178 177 178 c 1
 177 178 l 1xbe
 155 179 144 194 141 208 c 0
 139 216 138 224 138 233 c 1
 138 233 l 1
 140 244 144 257 146 263 c 1
 146 263 l 1
 151 276 157 287 164 295 c 0
 165 296 171 304 181 311 c 0
 192 318 209 324 233 318 c 0
 235 318 260 311 257 277 c 0
 260 276 262 274 263 271 c 0
 268 262 262 248 257 238 c 0
 257 236 256 234 255 233 c 1
 255 233 l 1
 255 232 l 1
 255 232 l 1
 255 231 l 2
 253 227 251 222 251 219 c 1
 251 219 l 1
 246 206 246 198 248 196 c 1
 248 196 l 1
 249 196 l 2
 250 196 255 197 258 198 c 2
 259 198 l 1
 279 205 310 226 298 293 c 0
 291 327 275 352 250 365 c 0
 231 375 214 374 213 374 c 0
 192 374 174 368 159 355 c 0
 147 345 137 331 129 314 c 0
 116 284 114 254 114 253 c 1
 114 253 l 1
 109 216 116 185 133 162 c 0
 161 124 208 118 210 118 c 0
 233 117 254 120 271 128 c 0
 285 134 297 143 306 155 c 0
 322 175 326 196 326 196 c 1
 327 199 l 1xdd
 330 199 l 2
 333 199 336 198 338 195 c 0xde
184 202 m 1xbe
 197 202 207 229 210 237 c 0
 211 239 211 240 212 242 c 2
 212 243 l 1
 212 243 l 1
 212 243 l 1
 212 243 212 243 213 243 c 0
 216 253 223 266 234 273 c 1
 236 288 232 292 230 293 c 1
 230 293 l 1
 230 293 l 1
 216 296 199 276 185 241 c 0
 177 218 178 209 180 205 c 0
 182 203 183 202 184 202 c 1
 184 202 l 1xbe
EndSplineSet
EndChar

StartChar: A
Encoding: 65 65 34
Width: 515
GlyphClass: 2
Flags: MW
HStem: -27 26<74.5 89.5> -12 21G<38 38> 0 21G 0 40 30 30<301.5 343> 59 83 238 26 556 66<254 323>
VStem: 16 40 76 31<403 406> 364 84<230 245 116 252 116 252 116 304>
LayerCount: 2
Fore
SplineSet
83 -1 m 0xabe0
 119 -1 144 30 159 59 c 1x97e0
 142 62 125 62 112 61 c 1
 112 61 51 60 56 21 c 1
 56 21 59 -1 83 -1 c 0xabe0
328 60 m 0
 358 60 365 93 366 117 c 0
 365 146 365 194 364 230 c 2
 364 252 l 1
 322 250 286 242 286 242 c 2
 278 240 271 239 263 238 c 1
 211 119 l 1
 219 115 231 109 248 99 c 0
 286 77 310 60 328 60 c 0
107 403 m 1
 105 285 171 264 219 264 c 0
 230 264 241 266 249 267 c 1
 359 521 l 1
 314 554 265 556 254 556 c 0
 103 553 107 403 107 403 c 1
364 304 m 1
 363 388 l 1
 363 469 l 1
 279 275 l 1
 304 283 333 295 364 304 c 1
497 58 m 0
 500 53 501 48 499 43 c 0
 489 17 468 6 454 1 c 0
 448 -1 442 -1 435 0 c 0x97e0
 396 6 379 33 371 58 c 1
 361 45 348 38 336 33 c 0
 329 31 321 30 312 30 c 0
 291 30 266 35 242 41 c 0
 220 47 197 52 185 55 c 1
 171 27 149 -4 111 -21 c 1
 111 -21 98 -27 81 -27 c 0xabe0
 68 -27 53 -24 38 -12 c 1
 38 -12 2 17 21 79 c 1
 21 79 41 142 119 142 c 0
 138 142 162 138 189 128 c 1
 236 236 l 1
 68 234 76 406 76 406 c 1
 74 494 120 606 259 621 c 0
 267 622 274 622 282 622 c 0
 364 622 421 571 421 571 c 1
 437 584 445 605 447 617 c 0
 448 621 452 622 455 620 c 0
 474 608 467 586 467 586 c 2
 466 577 458 560 448 543 c 1
 447 496 448 375 448 375 c 1
 448 312 l 1
 508 302 499 253 490 228 c 0
 488 223 481 222 478 226 c 0
 471 235 460 241 448 245 c 1
 448 230 l 2
 448 183 449 135 448 116 c 0
 447 42 466 40 466 40 c 1x57e0
 475 40 483 55 486 63 c 0
 487 65 490 65 492 64 c 0
 494 62 496 60 497 58 c 0
EndSplineSet
EndChar

StartChar: B
Encoding: 66 66 35
Width: 543
GlyphClass: 2
Flags: MW
HStem: -44 26<127.5 142.5> -29 21G<91 91> 1 21G 44 88<165 165> 298 30<308 308> 385 24<82.5 117.5> 501 57<234 280> 508 83<157 170.5>
VStem: 16 69 48 63 68 40 232 38 298 37 307 24 426 79 442 85<162 162>
LayerCount: 2
Fore
SplineSet
136 -18 m 0xbd56
 171 -18 196 13 211 41 c 1
 197 43 181 45 165 44 c 1
 165 44 104 43 108 4 c 1xbd35
 108 4 111 -18 136 -18 c 0xbd56
269 140 m 0
 267 120 262 110 258 105 c 1
 272 98 290 89 307 79 c 1
 308 298 l 1
 294 300 281 301 270 302 c 1
 279 240 274 173 269 140 c 0
364 40 m 1
 364 40 444 72 442 162 c 0
 441 224 382 276 332 291 c 1
 332 64 l 1
 344 56 356 48 364 40 c 1
308 328 m 1
 308 487 l 1
 259 473 247 404 263 337 c 1
 280 334 296 331 308 328 c 1
426 433 m 1xbe3a
 426 433 423 501 333 492 c 1
 332 319 l 1
 362 330 430 361 426 433 c 1xbe3a
386 302 m 1
 386 302 529 280 527 162 c 0
 526 29 387 5 332 1 c 0
 318 0 305 3 294 10 c 0
 282 17 262 28 236 35 c 1
 223 8 200 -21 164 -38 c 1
 164 -38 151 -44 134 -44 c 0xbd35
 121 -44 105 -41 91 -29 c 1
 91 -29 55 0 73 62 c 1
 73 62 93 132 168 132 c 0
 186 132 207 128 232 118 c 1
 241 158 196 180 179 297 c 1
 134 285 114 257 111 223 c 0
 109 206 113 194 117 185 c 0
 119 180 115 175 109 176 c 0
 39 186 48 251 48 251 c 1
 57 320 114 341 175 344 c 1
 176 440 253 491 277 505 c 1
 269 502 259 501 248 501 c 0x7e56
 220 501 184 508 157 508 c 0
 105 507 80 477 85 437 c 0
 88 413 103 409 115 409 c 0
 120 409 122 402 119 399 c 0
 112 392 102 385 86 385 c 0
 79 385 70 387 60 391 c 0
 28 404 19 439 19 439 c 1
 7 486 23 574 120 589 c 0
 131 591 141 591 151 591 c 0xbd96
 200 591 230 573 250 564 c 0
 259 560 267 558 274 558 c 0
 286 558 295 564 298 576 c 0
 303 595 300 608 296 615 c 0
 294 619 298 624 302 623 c 0
 313 622 324 615 329 611 c 0
 333 607 335 602 335 596 c 0
 335 568 335 545 335 545 c 1
 335 545 343 557 353 571 c 0
 360 582 375 586 387 582 c 0
 427 566 506 525 505 441 c 0
 504 337 386 302 386 302 c 1
EndSplineSet
EndChar

StartChar: C
Encoding: 67 67 36
Width: 613
GlyphClass: 2
Flags: MW
HStem: 0 31 0 35 471 67 486 32 586 35<458 495.5>
VStem: 15 75 158 89 323 25<35 46>
LayerCount: 2
Fore
SplineSet
252 313 m 0x9f
 229 140 277 72 323 46 c 1
 324 483 l 1
 272 417 254 341 252 313 c 0x9f
505 580 m 0
 504 584 499 586 492 586 c 0
 475 586 446 574 446 574 c 1
 410 560 380 541 356 518 c 1
 440 516 512 558 505 580 c 0
587 179 m 0
 596 170 599 157 596 145 c 0
 556 0 390 0 390 0 c 1
 111 -3 162 319 162 319 c 1
 162 319 171 395 214 471 c 1
 188 466 165 463 146 457 c 0
 96 442 80 406 96 369 c 0
 105 350 122 349 133 351 c 0
 138 352 142 347 140 342 c 0
 133 330 119 314 85 318 c 0
 51 321 33 353 33 353 c 1
 8 395 -3 487 88 525 c 0
 112 535 137 538 161 538 c 0xaf
 192 538 223 533 255 528 c 1
 299 578 364 618 458 621 c 1
 458 621 527 627 532 586 c 0
 538 542 460 493 349 486 c 1
 348 35 l 1x5f
 365 30 379 30 388 31 c 0
 508 40 536 181 536 181 c 1
 533 183 530 186 527 188 c 0
 524 191 523 195 524 199 c 0
 525 202 526 205 527 208 c 0
 529 211 533 213 536 212 c 0
 561 201 577 189 587 179 c 0
EndSplineSet
EndChar

StartChar: D
Encoding: 68 68 37
Width: 593
GlyphClass: 2
Flags: MW
HStem: -44 26<127.5 142.5> -29 21G<91 91> 0 21G<319 323> 44 88<165 165> 298 30<308 308> 385 24<82.5 117.5> 501 57<234 280> 508 83<157 170.5>
VStem: 16 69 48 63 68 40 233 37 298 37 307 25<64 79> 487 90
LayerCount: 2
Fore
SplineSet
136 -18 m 0xbd56
 171 -18 196 13 211 41 c 1
 197 43 181 45 165 44 c 1
 165 44 104 43 108 4 c 1xbd36
 108 4 111 -18 136 -18 c 0xbd56
258 105 m 1
 272 98 290 89 307 79 c 1
 308 298 l 1
 294 300 281 301 270 302 c 1
 279 240 274 173 269 140 c 0
 267 120 262 110 258 105 c 1
308 328 m 1
 308 488 l 1
 258 477 247 404 263 337 c 1
 280 334 296 331 308 328 c 1
364 40 m 1
 364 40 499 97 487 311 c 0
 479 457 377 483 333 488 c 1
 332 64 l 1
 344 56 356 48 364 40 c 1
577 327 m 0
 589 37 380 4 323 0 c 0
 315 0 306 2 299 7 c 0
 288 14 266 26 236 35 c 1
 223 8 200 -21 164 -38 c 1
 164 -38 151 -44 134 -44 c 0xbd36
 121 -44 105 -41 91 -29 c 1
 91 -29 55 0 73 62 c 1
 73 62 93 132 168 132 c 0
 186 132 207 128 233 118 c 1
 241 158 196 180 179 297 c 1
 134 285 114 257 111 223 c 0
 109 206 113 194 117 185 c 0
 119 180 115 175 109 176 c 0
 39 186 48 251 48 251 c 1
 57 320 114 341 175 344 c 1
 176 440 253 491 277 505 c 1
 269 502 259 501 248 501 c 0x7e56
 220 501 184 508 157 508 c 0
 105 507 80 477 85 437 c 0
 88 413 103 409 115 409 c 0
 120 409 122 402 119 399 c 0
 112 392 102 385 86 385 c 0
 79 385 70 387 60 391 c 0
 28 404 19 439 19 439 c 1
 7 486 23 574 120 589 c 0
 131 591 141 591 151 591 c 0xbd96
 200 591 230 573 250 564 c 0
 259 560 267 558 274 558 c 0
 286 558 295 564 298 576 c 0
 303 595 300 608 296 615 c 0
 294 619 298 624 302 623 c 0
 313 622 321 618 326 613 c 0
 330 610 335 602 335 596 c 0
 335 568 335 545 335 545 c 1xbe3a
 335 545 344 559 356 576 c 0
 362 584 373 588 382 585 c 0
 431 569 570 511 577 327 c 0
EndSplineSet
EndChar

StartChar: E
Encoding: 69 69 38
Width: 563
GlyphClass: 2
Flags: MW
HStem: 0 30<344.5 349 344.5 387.5> 181 31<486 486> 586 35<393 454>
VStem: 15 74 128 84 277 71 298 24<31 317> 463 28
LayerCount: 2
Fore
SplineSet
212 195 m 0xfb
 202 101 241 50 298 35 c 1
 298 317 l 1
 257 293 219 255 212 195 c 0xfb
425 581 m 2
 425 581 373 566 355 520 c 1
 420 530 469 562 463 580 c 0
 462 584 457 586 451 586 c 0
 443 586 434 584 425 581 c 2
542 173 m 0
 547 167 549 159 547 151 c 0
 525 49 436 0 339 0 c 0
 91 0 128 211 128 211 c 1
 143 355 331 391 331 391 c 1
 289 404 279 447 277 476 c 1xfd
 223 466 179 461 145 452 c 0
 95 437 79 400 96 364 c 0
 104 344 121 344 133 346 c 0
 138 347 142 342 139 337 c 0
 133 325 118 309 84 312 c 0
 51 316 32 347 32 347 c 1
 8 389 -3 482 88 520 c 0
 112 530 136 533 161 533 c 0
 200 533 241 525 281 519 c 1xfb
 298 583 361 621 425 621 c 0
 444 621 486 618 491 586 c 0
 495 548 437 506 348 491 c 1xfd
 347 462 351 397 426 392 c 0
 431 391 435 386 434 381 c 0
 433 373 429 362 417 356 c 2
 417 356 372 351 323 329 c 1
 322 31 l 1
 331 30 340 30 349 30 c 0
 455 37 486 181 486 181 c 1
 482 184 479 187 476 189 c 0
 474 191 473 194 473 198 c 0
 474 201 475 204 477 208 c 0
 478 212 482 213 486 212 c 0
 515 199 533 183 542 173 c 0
EndSplineSet
EndChar

StartChar: F
Encoding: 70 70 39
Width: 525
GlyphClass: 2
Flags: MW
HStem: -44 24<72.5 105.5 72.5 109> -6 21G<24 24> 44 90<114 114> 304 63<421.5 432 409 434> 441 70<418 445.5> 528 26 552 73<102.5 171.5> 605 20G<147 171.5>
VStem: 15 58 17 40 65 62 164 24<123 205> 214 63 335 69 473 37
LayerCount: 2
Fore
SplineSet
87 -20 m 0xfd7e
 124 -20 146 5 156 39 c 1
 143 43 128 45 114 44 c 1
 114 44 53 43 57 4 c 1
 57 4 58 -20 87 -20 c 0xfd7e
308 59 m 1
 308 59 374 129 298 260 c 1
 264 243 231 225 206 212 c 0
 200 209 194 207 189 206 c 1
 188 123 l 1
 208 115 261 94 308 59 c 1
247 277 m 2
 277 292 l 1
 268 304 259 317 248 330 c 0
 177 417 235 476 260 496 c 1
 236 505 211 516 189 525 c 1
 189 262 l 1
 205 263 224 267 247 277 c 2
484 554 m 0
 498 546 521 525 503 483 c 0
 490 452 461 441 430 441 c 0
 405 441 379 447 358 456 c 2
 358 456 327 469 287 485 c 1
 278 479 268 463 294 422 c 0
 310 396 331 368 350 338 c 1
 356 341 362 345 368 349 c 0
 387 362 403 367 415 367 c 0
 449 367 461 330 465 307 c 0
 466 301 460 297 455 299 c 0
 448 302 439 304 429 304 c 0
 414 304 396 300 376 294 c 1
 404 240 418 181 385 122 c 0
 349 60 313 28 293 -21 c 0
 291 -28 284 -32 277 -32 c 0
 273 -32 268 -30 265 -27 c 0
 246 -10 216 15 180 31 c 1
 166 -14 133 -44 85 -44 c 0
 37 -44 24 -6 24 -6 c 1xfd7e
 17 9 13 31 22 62 c 1
 22 62 44 134 128 134 c 0
 139 134 151 133 164 130 c 1
 164 205 l 1
 137 212 129 246 126 265 c 0
 125 271 131 275 136 273 c 0
 144 269 153 265 164 264 c 1
 165 535 l 1
 157 539 151 542 145 544 c 0
 133 550 123 552 114 552 c 0
 91 552 79 536 77 529 c 2
 77 529 62 497 89 467 c 0
 130 421 154 360 73 301 c 0xfa9e
 67 297 60 302 62 308 c 0
 69 331 66 363 43 393 c 0
 34 407 -21 458 55 545 c 0
 107 604 132 625 162 625 c 0
 181 625 202 616 233 603 c 0
 297 576 393 511 443 511 c 0
 457 511 468 516 473 528 c 2
 473 528 477 536 476 549 c 0
 476 554 480 556 484 554 c 0
EndSplineSet
EndChar

StartChar: G
Encoding: 71 71 40
Width: 576
GlyphClass: 2
Flags: MW
HStem: 1 21G<361.5 384.5> 1 60<361.5 433.5> 251 36<223 298> 517 69<485 487.5>
VStem: 15 89 150 69 353 25 473 87<245 288> 517 33
LayerCount: 2
Fore
SplineSet
242 229 m 0x7f
 277 152 317 110 353 86 c 1
 353 249 l 1
 330 251 308 251 288 251 c 0
 268 251 250 251 234 249 c 1
 236 242 239 236 242 229 c 0x7f
560 289 m 0
 560 241 560 181 560 148 c 0xbf
 561 131 554 115 543 102 c 0
 520 76 475 33 413 9 c 1
 413 9 397 1 372 1 c 0
 351 1 325 6 296 26 c 0
 223 77 169 143 148 225 c 1
 118 208 105 185 104 159 c 0
 103 144 106 133 110 125 c 0
 112 118 107 111 100 111 c 0
 10 115 15 182 15 182 c 1
 19 241 74 268 139 280 c 1
 136 316 139 356 150 398 c 0
 186 547 336 609 370 621 c 0
 374 623 377 620 377 616 c 0
 376 615 376 615 376 614 c 0
 375 608 372 603 367 600 c 0
 317 568 194 438 223 287 c 1
 278 287 328 281 353 278 c 1
 354 546 l 1
 362 571 380 595 412 615 c 0
 419 619 427 618 433 614 c 0
 455 598 477 586 493 586 c 0
 502 586 509 590 514 599 c 2
 514 599 517 604 517 615 c 0xbe80
 517 621 524 625 530 621 c 0
 543 611 559 591 543 554 c 0
 532 527 504 517 471 517 c 0
 442 517 410 524 379 536 c 1
 377 73 l 1
 398 64 416 61 429 61 c 0
 438 61 445 62 449 64 c 0
 470 72 474 108 474 119 c 0
 474 131 473 218 473 272 c 0
 473 304 453 309 434 310 c 1
 434 310 426 300 422 288 c 0
 420 285 416 283 412 285 c 0
 408 286 405 289 403 293 c 0
 400 296 400 301 402 305 c 0
 408 320 432 368 480 375 c 0
 489 376 498 375 506 372 c 0
 525 363 560 340 560 289 c 0
EndSplineSet
EndChar

StartChar: H
Encoding: 72 72 41
Width: 588
GlyphClass: 2
Flags: MW
HStem: -1 21G 0 21G 0 40 30 46<117 200.5> 317 42<254 285> 318 30<412 412> 528 51<531.5 537.5> 542 67<178.5 197 144.5 203.5 144.5 229>
VStem: 15 102 170 84<261.5 378 359 372> 284 24<51 60> 412 85<318 318 348 375 375 542>
LayerCount: 2
Fore
SplineSet
254 359 m 1xdaf0
 264 359 275 359 285 359 c 1
 285 512 l 1
 267 502 253 479 253 425 c 2
 253 425 254 397 254 359 c 1xdaf0
568 594 m 0
 574 577 578 544 551 532 c 0
 546 529 540 528 535 528 c 0xd6f0
 515 528 497 542 497 542 c 1
 496 519 497 375 497 375 c 1
 497 230 l 2
 497 183 498 135 497 116 c 0
 496 42 515 40 515 40 c 1
 523 40 531 55 535 63 c 0
 536 65 539 65 540 64 c 0
 543 62 545 59 546 57 c 0
 549 53 549 48 548 43 c 0
 538 17 517 6 503 1 c 0
 497 -1 490 -1 484 0 c 0
 421 10 414 72 414 96 c 0
 414 115 414 183 413 230 c 2
 412 318 l 1xa5f0
 374 320 340 320 309 319 c 1
 308 51 l 1
 303 23 279 6 262 -1 c 0
 255 -3 248 -3 242 0 c 0
 225 10 181 30 127 30 c 0
 107 30 87 27 66 21 c 0
 59 19 54 27 59 32 c 0
 93 63 137 76 184 76 c 0
 217 76 251 70 284 60 c 1
 285 317 l 1xd9f0
 274 316 264 315 254 313 c 1
 255 265 254 211 253 176 c 0
 251 110 189 97 155 95 c 0
 149 95 145 103 149 108 c 0
 173 136 171 180 171 180 c 1
 171 180 170 233 170 290 c 1
 135 274 118 252 117 228 c 0
 116 214 120 203 125 195 c 0
 130 189 125 180 117 181 c 0
 14 186 15 256 15 256 c 1
 17 320 87 347 170 356 c 1
 170 388 170 416 171 428 c 0
 175 512 285 536 285 536 c 1
 294 536 l 2
 303 537 310 530 310 521 c 2
 309 358 l 1
 350 355 387 351 412 348 c 1
 412 542 l 2xd5f0
 412 550 414 558 418 564 c 0
 426 578 441 601 470 620 c 0
 479 625 490 623 496 614 c 0
 506 600 522 579 541 579 c 0
 551 579 557 585 559 594 c 0
 561 598 566 598 568 594 c 0
115 530 m 0
 110 527 103 531 104 537 c 0
 106 562 117 609 172 609 c 0
 222 609 281 601 312 618 c 0
 317 621 323 617 322 611 c 0
 319 585 302 541 229 542 c 0
 218 542 208 542 199 542 c 0xd5f0
 158 542 133 540 115 530 c 0
EndSplineSet
EndChar

StartChar: I
Encoding: 73 73 42
Width: 357
GlyphClass: 2
Flags: MW
HStem: -34 23<75 89> -29 18<69.5 108> -20 21G<40 40> 6 70<283.5 289.5> 45 80<105 105> 536 86<127 185>
VStem: 16 38 55 30 159 25<105 114> 208 81
LayerCount: 2
Fore
SplineSet
81 -11 m 0x4fc0
 111 -11 137 13 147 40 c 1
 134 44 121 46 105 45 c 1
 105 45 48 44 54 9 c 1
 54 9 58 -11 81 -11 c 0x4fc0
260 550 m 1
 231 537 207 534 185 536 c 1
 184 105 l 2
 185 104 187 104 189 103 c 1
 209 146 208 196 208 196 c 1
 208 196 205 419 207 458 c 0
 209 508 238 533 260 550 c 1
328 90 m 0
 334 95 342 91 342 84 c 0
 341 40 309 6 270 6 c 0
 241 6 199 20 171 31 c 1
 162 8 144 -16 108 -29 c 1x57c0
 108 -29 97 -34 81 -34 c 0x8fc0
 69 -34 54 -31 40 -20 c 1
 40 -20 4 5 19 61 c 1
 19 61 34 125 104 125 c 0x2fc0
 120 125 138 122 159 114 c 1
 160 542 l 1
 149 548 140 558 127 555 c 0
 99 545 86 524 85 511 c 0
 84 497 95 492 102 490 c 0
 105 489 107 485 105 482 c 0
 103 478 100 475 98 473 c 0
 94 471 90 470 86 471 c 0
 71 474 38 490 65 544 c 0
 79 572 109 622 145 622 c 0
 154 622 165 619 177 614 c 0
 192 607 211 601 230 599 c 0
 257 596 277 597 291 599 c 0
 299 599 305 592 302 584 c 0
 295 565 290 533 289 482 c 2
 289 482 293 272 290 192 c 0
 288 141 251 111 219 94 c 1
 230 90 243 86 258 81 c 0
 269 78 279 76 288 76 c 0x57c0
 307 76 320 83 328 90 c 0
EndSplineSet
EndChar

StartChar: J
Encoding: 74 74 43
Width: 396
GlyphClass: 2
Flags: MW
HStem: -8 21G<211 243> 511 60 547 75<154.5 167.5>
VStem: 18 12 82 31 204 25 288 86
LayerCount: 2
Fore
SplineSet
266 399 m 0xde
 260 475 304 500 322 513 c 1
 316 512 309 511 302 511 c 0
 275 511 247 519 230 525 c 1
 229 102 l 1
 245 75 260 56 271 59 c 0
 296 65 287 162 282 225 c 0
 278 283 269 363 266 399 c 0xde
378 552 m 0
 367 536 353 507 347 462 c 0
 339 392 395 187 366 136 c 0
 339 92 270 -8 216 -8 c 0
 206 -8 182 -2 157 50 c 0
 124 117 77 233 43 220 c 1
 43 220 34 217 30 202 c 0
 28 195 18 195 17 202 c 0
 14 213 15 226 18 238 c 0
 22 257 39 278 66 285 c 1
 66 285 125 302 160 234 c 0
 173 208 188 176 204 146 c 1
 205 534 l 1
 192 539 175 547 160 547 c 0xbe
 142 547 116 528 113 511 c 0xde
 112 497 123 492 130 490 c 0
 133 489 135 486 133 483 c 0
 130 475 124 470 115 470 c 0
 100 473 65 488 92 544 c 0
 106 572 137 622 172 622 c 0xbe
 181 622 192 619 204 614 c 0
 233 600 315 576 369 571 c 0
 378 570 383 560 378 552 c 0
EndSplineSet
EndChar

StartChar: K
Encoding: 75 75 44
Width: 503
GlyphClass: 2
Flags: MW
HStem: -1 21G 0 21G<400 419.5> 529 73<145.5 208>
VStem: 93 83<390 390> 202 25<220 274 323 400 400 401> 438 28
LayerCount: 2
Fore
SplineSet
47 485 m 0x6c
 34 489 7 503 18 532 c 1
 18 532 56 632 107 621 c 0x6c
 152 612 179 602 205 602 c 0
 211 602 218 602 225 604 c 0
 231 606 236 599 232 594 c 0
 213 564 178 501 176 433 c 0
 174 338 176 227 176 227 c 1x7c
 176 227 180 128 82 114 c 0
 76 113 72 119 75 124 c 0
 82 137 90 161 91 202 c 0
 93 271 93 390 93 390 c 1
 93 390 99 480 175 532 c 1
 175 532 165 529 150 529 c 0
 141 529 129 530 117 535 c 0
 102 541 89 544 79 544 c 0
 62 544 51 537 48 530 c 1
 48 530 39 512 64 504 c 0
 67 503 68 500 67 498 c 0
 66 495 64 490 59 486 c 0
 55 484 51 483 47 485 c 0x6c
487 74 m 0
 488 71 487 66 486 63 c 0
 474 41 434 0 405 0 c 0
 395 0 385 4 378 11 c 0x6c
 337 55 325 156 303 222 c 0
 284 278 246 278 227 274 c 1
 227 220 l 2
 227 179 212 134 182 104 c 1
 207 100 232 91 257 80 c 0
 266 76 271 65 268 55 c 0
 260 28 242 11 228 2 c 0
 221 -2 211 -2 204 3 c 0
 186 16 143 42 90 42 c 0
 71 42 50 39 29 30 c 0
 22 27 15 35 20 42 c 0xac
 54 87 98 106 146 107 c 1
 183 131 202 177 202 220 c 2
 202 400 l 2
 202 480 228 565 290 619 c 0
 293 621 296 621 298 619 c 0
 302 614 304 609 304 603 c 0
 303 599 302 596 299 593 c 0
 262 557 244 510 236 476 c 0
 226 434 227 401 227 401 c 1
 227 323 l 1
 358 511 l 1
 343 515 329 519 314 525 c 1
 311 521 306 512 302 506 c 0
 301 503 298 502 295 502 c 0
 290 503 282 506 279 511 c 0
 279 512 279 514 279 516 c 0
 290 538 317 573 341 597 c 0
 348 604 359 604 366 598 c 0
 385 584 403 573 416 573 c 0
 424 573 431 577 435 586 c 2
 435 586 438 590 438 606 c 0
 438 610 442 612 445 609 c 0
 459 598 473 573 461 541 c 0
 450 512 420 504 385 507 c 1
 276 349 l 1
 301 346 356 330 380 253 c 0
 403 178 428 67 453 61 c 1
 460 67 465 74 471 82 c 0
 473 86 478 86 481 84 c 0
 485 81 486 77 487 74 c 0
EndSplineSet
EndChar

StartChar: L
Encoding: 76 76 45
Width: 511
GlyphClass: 2
Flags: MW
HStem: -40 81<414 448.5> -1 21G<33.5 38> 64 72<77 136.5> 539 83<296 296 321 321>
VStem: 86 62 200 70 220 25 295 25<72 81>
LayerCount: 2
Fore
SplineSet
202 119 m 1x7d
 203 119 203 119 204 118 c 0
 232 107 264 94 295 81 c 1
 296 539 l 1
 241 534 245 473 245 473 c 1xbb
 245 412 264 363 270 306 c 0
 276 246 267 219 264 213 c 0
 258 182 223 141 202 119 c 1x7d
492 64 m 0
 496 60 497 54 495 49 c 0
 487 30 458 -36 414 -40 c 1xbb
 414 -40 361 -48 184 38 c 1
 184 38 132 64 95 64 c 0
 59 64 49 32 42 3 c 0
 41 0 39 -1 37 -1 c 0x7b
 30 -1 22 2 18 8 c 0
 15 12 15 18 17 23 c 0
 26 41 60 107 104 131 c 1
 104 131 112 136 130 136 c 0
 143 136 160 134 184 126 c 1xbd
 200 152 211 194 184 251 c 0
 135 351 107 413 94 452 c 0
 73 513 95 589 156 602 c 0
 161 603 165 597 161 592 c 0
 151 579 139 552 157 506 c 0
 184 436 213 378 245 311 c 1
 240 340 231 376 223 436 c 0
 208 540 255 622 331 622 c 0
 373 622 413 602 416 556 c 0
 416 551 416 545 414 540 c 0
 405 505 380 475 372 466 c 0
 370 464 367 463 364 463 c 0
 357 464 353 467 350 470 c 0
 347 472 347 476 349 478 c 0
 356 485 361 491 363 500 c 0
 357 528 335 536 321 539 c 1
 320 72 l 1
 348 61 402 41 432 41 c 0
 465 41 473 56 477 67 c 0
 478 70 482 71 485 69 c 0
 487 68 490 66 492 64 c 0
EndSplineSet
EndChar

StartChar: M
Encoding: 77 77 46
Width: 750
GlyphClass: 2
Flags: MW
HStem: -44 26<126.5 141.5> -29 21G<91 91> -1 21G 0 40 44 88<164 164> 304 38 385 24<82 117> 494 48 501 57<233.5 290> 507 42<352 388> 508 83<156 169.5>
VStem: 16 69 68 40 174 85 323 32 326 25<63 77> 408 83<230 376 230 385 230 424.5> 599 85<206.5 230>
LayerCount: 2
Fore
SplineSet
136 -18 m 0xbf0dc0
 170 -18 195 13 211 40 c 1
 196 43 181 45 164 44 c 1
 164 44 104 43 108 4 c 1
 108 4 111 -18 136 -18 c 0xbf0dc0
259 107 m 1
 278 100 304 89 326 77 c 1
 327 299 l 1
 305 302 286 304 269 304 c 1
 279 241 273 173 269 140 c 0
 267 122 263 113 259 107 c 1
327 330 m 1
 327 503 l 1
 276 486 249 406 262 342 c 1
 286 339 309 334 327 330 c 1
732 58 m 0
 735 53 735 48 733 43 c 0
 724 17 703 6 689 1 c 0
 683 -1 676 -1 670 0 c 0
 607 10 600 72 600 96 c 0
 600 115 599 183 599 230 c 2
 598 411 l 1
 598 411 601 493 563 494 c 0xbf0dc0
 500 494 492 389 491 376 c 2
 491 230 l 2
 492 183 492 95 492 77 c 1
 499 55 520 38 541 28 c 0
 545 26 546 20 542 17 c 0
 528 5 509 1 498 -1 c 0
 491 -2 485 -2 479 1 c 0
 451 12 430 39 418 55 c 0
 412 64 409 74 409 85 c 0
 409 118 408 191 408 230 c 2
 408 385 l 2xbe2dc0
 408 464 391 508 352 507 c 1
 351 63 l 2
 347 40 327 15 311 3 c 0
 305 -1 297 -1 291 3 c 0
 280 11 261 23 235 33 c 1
 221 7 199 -22 163 -38 c 1
 163 -38 150 -44 133 -44 c 0xbe4dc0
 120 -44 105 -41 91 -29 c 1
 91 -29 54 0 73 62 c 1
 73 62 93 132 168 132 c 0
 186 132 207 128 232 118 c 1
 241 156 199 178 180 285 c 1
 155 271 144 248 141 223 c 0
 139 206 143 194 147 185 c 0
 149 180 145 175 140 176 c 0
 69 186 78 251 78 251 c 1
 86 308 126 332 174 341 c 1
 174 439 253 491 277 505 c 1
 269 502 259 501 248 501 c 0x7e8dc0
 219 501 183 508 156 508 c 0xbe2dc0
 104 507 80 477 85 437 c 0
 87 413 103 409 114 409 c 0
 120 409 122 402 119 399 c 0
 112 392 101 385 86 385 c 0
 78 385 69 387 59 391 c 0
 27 404 19 439 19 439 c 1
 7 486 23 574 120 589 c 0
 131 591 141 591 151 591 c 0xbe35c0
 199 591 230 573 250 564 c 0
 259 560 270 558 281 558 c 0xbe8dc0
 299 558 317 564 320 576 c 0
 325 594 322 606 319 613 c 0
 317 617 321 622 325 622 c 0
 337 621 355 614 355 599 c 2
 355 549 l 1
 421 549 460 531 479 462 c 1xbe4ec0
 487 485 514 549 588 542 c 0
 685 532 683 411 683 411 c 1
 684 230 l 2
 684 183 683 135 683 116 c 0
 681 42 701 40 701 40 c 1
 709 40 717 55 721 63 c 0
 722 65 724 65 726 64 c 0
 729 62 731 60 732 58 c 0
EndSplineSet
EndChar

StartChar: N
Encoding: 78 78 47
Width: 592
GlyphClass: 2
Flags: MW
HStem: -44 26<127.5 142.5> -29 21G<91 91> 0 40 44 88<165 165> 304 38 385 24<82 117.5> 501 57<234 289> 507 41<352 397> 508 83<157 170.5>
VStem: 16 69 68 40 78 63 175 84 322 32 326 25<63 77> 442 83<230 425>
LayerCount: 2
Fore
SplineSet
136 -18 m 0xbd2b
 171 -18 196 12 211 40 c 1
 196 43 181 45 165 44 c 1
 165 44 104 43 108 4 c 1
 108 4 111 -18 136 -18 c 0xbd2b
260 107 m 1
 278 100 304 89 326 77 c 1
 327 299 l 1
 306 302 286 304 269 304 c 1
 279 241 274 173 269 140 c 0
 267 122 263 113 260 107 c 1
327 330 m 1
 327 503 l 1
 276 486 249 406 262 342 c 1
 286 339 309 334 327 330 c 1
574 58 m 0
 577 53 578 48 576 43 c 0
 566 17 545 6 531 1 c 0
 525 -1 519 -1 512 0 c 0
 449 10 443 72 443 96 c 0
 443 115 442 183 441 230 c 2
 442 385 l 2xbcab
 442 465 397 508 352 507 c 1
 351 63 l 2
 347 40 328 15 311 3 c 0
 305 -1 297 -1 291 3 c 0
 281 11 261 23 235 33 c 1
 221 7 199 -22 164 -38 c 1
 164 -38 151 -44 134 -44 c 0xbd2b
 121 -44 105 -41 91 -29 c 1
 91 -29 55 0 73 62 c 1
 73 62 93 132 168 132 c 0
 186 132 207 128 232 118 c 1
 241 156 199 178 181 285 c 1
 156 271 144 248 141 223 c 0
 140 206 143 194 147 185 c 0
 149 180 145 175 140 176 c 0
 70 186 78 251 78 251 c 1
 86 308 126 332 175 341 c 1
 175 439 253 491 277 505 c 1
 269 502 259 501 248 501 c 0x7e1b
 220 501 184 508 157 508 c 0xbcab
 105 507 80 477 85 437 c 0xbd4b
 88 413 103 409 115 409 c 0
 120 409 122 402 119 399 c 0
 112 392 101 385 86 385 c 0
 78 385 69 387 59 391 c 0
 27 404 19 439 19 439 c 1
 7 486 23 574 120 589 c 0
 131 591 141 591 151 591 c 0xbc9b
 200 591 230 573 250 564 c 0
 259 560 270 558 280 558 c 0xbe2b
 298 558 315 564 319 576 c 0
 324 594 321 606 318 613 c 0
 316 617 320 622 324 622 c 0
 336 621 354 614 354 599 c 2
 354 548 l 1xbd2d
 440 548 520 525 525 381 c 1
 525 230 l 2
 524 180 524 133 524 115 c 0
 524 43 543 40 543 40 c 1
 552 40 560 55 563 63 c 0
 564 65 567 65 569 64 c 0
 571 62 573 60 574 58 c 0
EndSplineSet
EndChar

StartChar: O
Encoding: 79 79 48
Width: 566
GlyphClass: 2
Flags: MW
HStem: -4 21G 516 47<294 297> 530 85
VStem: 17 64<478 478> 74 75 208 62<349 351> 310 25<88 89> 491 60
LayerCount: 2
Fore
SplineSet
149 299 m 0xaf
 143 221 170 170 205 138 c 1
 207 143 207 150 208 162 c 0
 208 211 208 261 208 261 c 1
 208 261 206 326 208 351 c 0
 213 404 260 444 287 463 c 1
 238 452 158 417 149 299 c 0xaf
225 122 m 1
 255 102 287 92 310 89 c 1
 311 449 l 1
 292 440 270 411 270 349 c 2
 270 349 271 231 269 180 c 0
 268 142 245 127 225 122 c 1
491 275 m 1
 491 275 499 446 336 462 c 1
 335 88 l 1
 372 91 491 110 491 275 c 1
416 547 m 0
 452 530 556 464 551 286 c 0
 545 85 372 79 334 9 c 0
 328 -2 315 -7 302 -4 c 0
 136 44 58 154 77 293 c 0
 99 455 267 487 311 492 c 1
 311 519 l 1
 306 518 300 516 294 516 c 0xcf
 260 513 220 523 162 530 c 0
 110 535 81 509 81 468 c 0xb7
 81 447 94 439 105 437 c 0
 111 436 113 427 107 424 c 0
 101 420 93 416 83 416 c 0xaf
 74 416 63 419 50 426 c 0
 20 443 17 478 17 478 c 1
 11 527 37 612 136 615 c 0xb7
 203 616 239 588 262 573 c 0
 273 566 285 563 296 563 c 0xcf
 313 563 328 571 335 583 c 0
 342 595 341 605 338 612 c 0
 336 617 340 622 345 620 c 0
 358 615 368 604 368 586 c 0
 369 576 367 565 362 557 c 0
 356 547 347 537 336 530 c 1
 336 494 l 1
 348 496 386 506 400 541 c 0
 402 547 410 550 416 547 c 0
EndSplineSet
EndChar

StartChar: P
Encoding: 80 80 49
Width: 508
GlyphClass: 2
Flags: MW
HStem: -8 21G<264.5 282.5> -8 69 29 51<96 163> 567 57<111.5 183> 586 29<333 345>
VStem: 15 58 50 16 65 62 163 84<216.5 256 333 348 348 421> 281 24<60 231> 409 83
LayerCount: 2
Fore
SplineSet
248 73 m 1xa9e0
 258 71 269 68 280 66 c 1
 281 231 l 1
 267 237 256 246 247 256 c 1
 247 177 247 105 248 73 c 1xa9e0
281 259 m 1
 281 551 l 1
 254 508 248 438 247 421 c 0
 247 393 247 363 247 333 c 0
 249 309 256 274 281 259 c 1
409 410 m 1
 417 580 350 586 340 586 c 0
 326 586 316 583 306 577 c 1
 305 251 l 1
 408 247 409 410 409 410 c 1
346 615 m 0
 439 614 497 560 492 407 c 0
 488 272 389 212 305 224 c 1
 305 60 l 1
 315 59 325 58 336 61 c 0x49e0
 342 63 347 56 345 51 c 0
 333 25 298 -8 267 -8 c 0
 262 -8 257 -7 252 -6 c 0
 216 6 148 29 109 29 c 0
 83 29 66 17 66 -10 c 0xb2e0
 66 -15 60 -17 57 -13 c 0
 45 1 51 25 58 37 c 0
 77 66 116 79 163 80 c 1
 163 528 l 2
 163 549 146 567 125 567 c 0
 98 567 79 535 77 529 c 2
 77 529 62 497 89 467 c 0
 130 421 154 360 73 301 c 0xb4e0
 67 297 60 302 62 308 c 0xb2e0
 69 331 66 363 43 393 c 0
 34 407 -21 458 55 545 c 0
 100 597 133 624 164 624 c 0xb1e0
 202 624 242 578 247 542 c 1
 265 578 295 615 346 615 c 0
EndSplineSet
EndChar

StartChar: Q
Encoding: 81 81 50
Width: 566
GlyphClass: 2
Flags: MW
HStem: -147 38<252 324> -53 69 -20 21G<162 188.5> -20 42 516 47<293 296> 530 85
VStem: 16 65<478 478> 74 75 103 30 208 61<261 349 180 351> 309 25<88 89> 340 28 491 59
LayerCount: 2
Fore
SplineSet
208 261 m 1xa578
 208 261 206 326 208 351 c 0
 213 404 259 444 287 463 c 1
 238 452 158 417 149 299 c 0
 142 221 169 170 205 138 c 1
 207 143 207 150 207 162 c 0
 208 211 208 261 208 261 c 1xa578
309 89 m 1
 310 449 l 1
 291 440 269 411 269 349 c 2
 269 349 270 231 269 180 c 0
 268 142 245 127 225 122 c 1
 255 102 287 92 309 89 c 1
491 275 m 1
 491 275 499 446 335 462 c 1
 334 88 l 1
 372 91 491 110 491 275 c 1
415 547 m 0
 452 530 556 464 550 286 c 0
 545 95 389 80 340 20 c 1
 364 19 399 16 433 16 c 0
 476 16 517 20 534 35 c 0
 537 37 542 36 542 32 c 0
 547 9 551 -50 457 -53 c 0xc578
 396 -55 293 -36 293 -36 c 2
 253 -30 205 -20 172 -20 c 0
 152 -20 137 -23 133 -34 c 0
 122 -60 190 -87 190 -87 c 1
 237 -103 275 -109 305 -109 c 0
 343 -109 366 -100 377 -95 c 0
 380 -94 384 -97 383 -100 c 0
 381 -106 378 -113 374 -117 c 0
 371 -122 366 -126 360 -128 c 0
 345 -135 308 -147 264 -147 c 0
 240 -147 214 -143 188 -134 c 1
 188 -134 76 -97 109 -21 c 0
 132 32 233 22 233 22 c 1
 114 77 60 175 77 293 c 0
 99 455 266 487 310 492 c 1
 310 519 l 1
 305 518 299 516 293 516 c 0x9af8
 259 513 219 523 161 530 c 0
 109 535 81 509 81 468 c 0
 81 447 93 439 104 437 c 0
 110 436 112 427 107 424 c 0
 101 420 92 416 82 416 c 0
 73 416 62 419 50 426 c 0
 20 443 16 478 16 478 c 1
 10 527 37 612 135 615 c 0xa6f8
 202 616 239 588 261 573 c 0
 273 566 284 563 295 563 c 0xa978
 313 563 328 571 335 583 c 0
 342 595 340 605 337 612 c 0
 335 617 340 622 345 620 c 0xa578
 358 615 367 604 368 586 c 0xa978
 368 563 355 542 335 530 c 1
 335 494 l 1
 348 496 386 506 399 541 c 0
 402 547 409 550 415 547 c 0
EndSplineSet
EndChar

StartChar: R
Encoding: 82 82 51
Width: 554
GlyphClass: 2
Flags: MW
HStem: -12 21G -8 21G<246 264.5> 29 51 60 17 567 57<112.5 181> 588 30<333.5 345.5>
VStem: 15 58 32 15 66 61 163 84<256.5 307 403 412.5> 281 25<281 295 330 560 560 560> 426 85
LayerCount: 2
Fore
SplineSet
280 61 m 1xd670
 281 295 l 1
 267 302 255 305 247 307 c 1
 247 206 248 105 248 69 c 1
 253 68 259 66 264 65 c 0
 269 64 275 62 280 61 c 1xd670
281 330 m 1
 281 560 l 1
 255 526 249 473 248 457 c 0
 248 440 247 422 247 403 c 0
 248 389 253 347 281 330 c 1
340 588 m 0
 327 588 316 586 306 581 c 1
 306 323 l 1
 427 313 426 442 426 442 c 1
 436 584 351 588 340 588 c 0
534 72 m 0
 538 68 540 62 538 56 c 0
 529 24 487 8 467 2 c 0
 460 0 453 2 448 6 c 0
 415 39 400 81 377 168 c 0
 362 227 333 261 306 281 c 1
 305 59 l 1xd670
 309 59 313 60 317 61 c 0
 324 63 329 56 326 51 c 0
 314 25 280 -8 249 -8 c 0
 243 -8 238 -7 233 -6 c 0
 193 8 133 29 90 29 c 0
 74 29 59 24 52 10 c 0
 49 5 48 0 47 -6 c 0xe5f0
 47 -12 38 -14 35 -8 c 0
 28 7 33 26 40 37 c 0
 61 70 108 82 163 80 c 1
 163 528 l 2
 163 549 147 567 126 567 c 0
 99 567 79 535 77 529 c 2
 77 529 62 497 89 467 c 0
 130 421 153 361 75 303 c 0
 70 298 61 304 63 311 c 0
 69 333 65 364 43 393 c 0
 34 407 -21 458 55 545 c 0
 100 597 133 624 164 624 c 0xea70
 198 624 237 584 245 552 c 1
 267 590 302 618 349 618 c 0
 428 618 513 573 511 439 c 0
 510 350 442 304 373 293 c 1
 411 269 442 232 458 181 c 0
 491 76 512 60 512 60 c 1
 516 63 519 70 520 74 c 0
 521 77 525 79 528 77 c 0
 530 75 532 74 534 72 c 0
EndSplineSet
EndChar

StartChar: S
Encoding: 83 83 52
Width: 441
GlyphClass: 2
Flags: MW
HStem: -146 55 70 75<99 190 131 190> 489 73<297 350.5>
VStem: 16 25<8 9> 49 87<325.5 548> 272 24<97 332> 326 85<134.5 139 139 288 288 288> 402 24
LayerCount: 2
Fore
SplineSet
74 115 m 1xfe
 101 138 134 145 169 145 c 0
 211 145 246 130 272 115 c 1
 272 332 l 2
 269 334 266 336 264 337 c 0
 259 332 253 326 247 320 c 0
 175 253 127 199 94 150 c 0
 87 138 80 127 74 115 c 1xfe
326 68 m 1
 326 288 l 1
 321 295 309 305 297 314 c 1
 296 97 l 1
 316 81 326 68 326 68 c 1
136 548 m 1
 136 352 l 1
 136 352 154 338 195 305 c 1
 206 316 217 327 230 338 c 0
 242 350 257 365 272 381 c 1
 272 492 l 1
 200 505 136 548 136 548 c 1
321 490 m 0
 313 489 305 489 297 489 c 1
 297 409 l 1
 320 436 342 466 362 499 c 1
 350 494 337 491 321 490 c 0
415 552 m 0
 397 501 358 443 324 402 c 1
 341 391 373 370 394 353 c 0
 405 344 411 331 411 318 c 2
 411 139 l 2xfe
 411 130 408 122 402 115 c 0
 380 91 321 31 259 2 c 0
 251 -2 242 1 237 9 c 0
 226 31 196 70 133 70 c 2
 133 70 132 70 131 70 c 0
 67 70 40 38 41 8 c 1
 41 8 34 -84 172 -91 c 0
 292 -97 337 -20 348 1 c 0
 349 4 353 5 355 2 c 0
 357 -3 358 -8 358 -13 c 0
 358 -19 357 -26 354 -32 c 0
 341 -58 290 -147 179 -146 c 0
 10 -144 16 7 16 9 c 0
 15 64 34 105 74 164 c 0
 90 189 111 215 136 244 c 1
 113 259 82 284 64 299 c 0
 54 307 49 319 49 332 c 2
 50 461 l 2
 50 474 54 486 61 496 c 0
 83 528 136 595 202 619 c 0
 206 621 210 622 215 622 c 0
 225 622 235 617 242 609 c 0
 259 590 290 562 333 562 c 0
 368 562 398 579 402 617 c 0xfd
 402 622 408 623 411 620 c 0xfe
 415 614 420 607 423 601 c 0
 426 596 426 591 426 586 c 0xfd
 424 578 422 566 415 552 c 0
EndSplineSet
EndChar

StartChar: T
Encoding: 84 84 53
Width: 615
GlyphClass: 2
Flags: MW
HStem: -12 21G -8 21G<458 476.5> -8 67<458 515> 29 49<294 328> 498 89<468 512> 559 63<153.5 272>
VStem: 15 29<437 440> 173 19<368 382> 244 15 328 84<78 116.5 77 540> 442 25<67 73>
LayerCount: 2
Fore
SplineSet
412 77 m 1xdbe0
 422 76 432 74 442 73 c 1
 443 503 l 1
 433 506 417 512 396 519 c 1
 413 492 413 461 413 461 c 1
 412 416 412 156 412 77 c 1xdbe0
600 610 m 0
 600 589 598 555 581 533 c 0
 557 503 514 492 468 498 c 1
 467 67 l 2
 470 66 473 66 476 65 c 0
 487 62 499 59 512 59 c 0xabe0
 518 59 523 60 529 61 c 0
 536 63 541 56 538 51 c 0
 526 25 492 -8 461 -8 c 0
 455 -8 450 -7 445 -6 c 0
 409 6 341 29 302 29 c 0
 286 29 271 24 264 10 c 0
 261 5 260 0 259 -6 c 0
 259 -12 250 -14 247 -8 c 0
 240 7 245 26 252 37 c 0
 266 60 294 73 328 78 c 1
 328 540 l 1
 286 551 243 559 199 559 c 0
 108 559 41 521 44 440 c 1
 44 440 37 348 168 362 c 1
 168 362 169 365 173 381 c 0
 173 383 176 384 177 384 c 0
 181 384 183 382 186 381 c 0
 190 378 192 373 192 368 c 0
 189 351 179 322 161 304 c 0
 154 296 142 292 131 294 c 0
 97 300 13 325 15 437 c 1
 15 437 8 570 158 609 c 1
 158 609 194 622 254 622 c 0xd7e0
 290 622 334 617 384 603 c 0
 424 591 458 587 487 587 c 0
 537 587 572 600 588 615 c 0
 593 619 600 616 600 610 c 0
EndSplineSet
EndChar

StartChar: U
Encoding: 85 85 54
Width: 642
GlyphClass: 2
Flags: MW
HStem: 0 40 0 63 120 12<353 353> 508 83<156 173 156 159> 528 51<586.5 592>
VStem: 16 68 136 82 328 25<63 120> 380 63 467 84<230 375 230 453 230 453> 552 75
LayerCount: 2
Fore
SplineSet
224 285 m 0x6fe0
 196 121 268 69 328 63 c 1
 329 513 l 1
 306 490 247 422 224 285 c 0x6fe0
353 120 m 1
 353 63 l 1
 422 69 463 117 468 213 c 0
 467 218 467 224 467 230 c 2
 467 453 l 1
 452 442 443 408 443 348 c 2
 443 348 444 261 442 209 c 0
 441 153 389 118 353 120 c 1
622 594 m 0
 629 577 633 544 606 532 c 0
 600 529 595 528 589 528 c 0
 569 528 552 542 552 542 c 1
 550 519 551 375 551 375 c 1
 551 230 l 2
 552 183 552 135 552 116 c 0
 550 42 569 40 569 40 c 1xafe0
 578 40 586 55 589 63 c 0
 590 65 593 65 595 64 c 0
 598 62 599 59 601 57 c 0
 603 53 604 48 602 43 c 0
 592 17 571 6 557 1 c 0
 551 -1 545 -1 539 0 c 0
 478 10 469 62 469 113 c 1
 451 63 413 1 326 0 c 0
 104 -4 136 256 136 256 c 1
 152 406 243 481 292 512 c 1
 291 511 290 511 289 511 c 0
 258 505 223 508 173 508 c 0
 167 508 162 508 156 508 c 0
 104 506 79 477 84 437 c 0
 87 415 100 410 111 409 c 0
 118 408 120 400 116 396 c 0
 109 390 99 385 86 385 c 0
 78 385 69 387 59 391 c 0
 27 404 19 439 19 439 c 1
 7 486 23 574 120 589 c 0
 131 591 141 591 151 591 c 0x77e0
 199 591 230 573 250 564 c 0
 260 559 269 557 278 557 c 0
 299 557 316 568 322 582 c 0
 327 596 324 605 320 612 c 0
 318 617 322 622 327 621 c 0
 340 617 351 608 354 590 c 0
 355 584 355 578 354 572 c 2
 353 132 l 1
 368 137 380 153 381 200 c 0
 381 249 380 258 380 258 c 1
 380 258 379 325 381 350 c 0
 388 420 455 462 467 468 c 1
 467 542 l 2
 467 550 469 558 473 564 c 0
 480 578 496 601 525 620 c 0
 533 625 545 623 550 614 c 0
 561 600 577 579 596 579 c 0
 606 579 612 585 614 594 c 0
 615 598 621 598 622 594 c 0
EndSplineSet
EndChar

StartChar: V
Encoding: 86 86 55
Width: 574
GlyphClass: 2
Flags: MW
HStem: -17 21G -7 21G 50 54 511 60 547 75<87.5 104>
VStem: 15 32 70 23 199 85 350 25<60 73> 413 50 478 81
LayerCount: 2
Fore
SplineSet
284 96 m 1xf7e0
 310 89 334 80 350 73 c 1
 351 493 l 1
 286 435 l 1
 281 367 282 187 284 96 c 1xf7e0
376 515 m 1
 375 60 l 1
 547 284 457 422 431 462 c 0
 406 499 412 534 419 553 c 1
 376 515 l 1
491 538 m 0
 514 499 614 351 517 214 c 0
 437 103 378 23 359 -3 c 0
 355 -8 349 -8 345 -4 c 0
 305 34 244 50 190 50 c 0
 172 50 119 47 93 8 c 1
 93 8 84 -6 86 -25 c 0
 86 -27 85 -28 83 -28 c 0
 78 -28 74 -26 72 -21 c 0
 71 -20 71 -18 70 -17 c 0
 69 5 76 64 147 93 c 0
 164 99 181 103 198 104 c 1
 199 177 200 331 199 399 c 0
 199 475 237 500 256 513 c 1
 249 511 242 511 235 511 c 0xf7e0
 196 511 150 530 150 530 c 2
 132 537 113 547 95 547 c 0xefe0
 77 547 48 529 47 511 c 0xf7e0
 46 497 57 492 64 490 c 0
 67 489 68 486 67 483 c 0
 65 478 61 475 58 473 c 0
 55 471 51 470 47 471 c 0
 32 474 -1 490 25 544 c 0
 40 572 69 622 106 622 c 0xefe0
 115 622 126 619 138 614 c 0
 167 600 255 576 311 571 c 0
 320 570 325 560 320 552 c 0
 310 537 297 511 290 472 c 1
 419 586 l 1
 448 613 l 2
 453 617 462 615 463 608 c 0
 465 593 472 569 491 538 c 0
EndSplineSet
EndChar

StartChar: W
Encoding: 87 87 56
Width: 729
GlyphClass: 2
Flags: MW
HStem: -12 21G -11 21G 56 54<147 196> 470 19<49 69> 548 74<96.5 106.5>
VStem: 16 31 29 18<-30.5 -17> 161 84<111 150> 359 75 505 24<56 69> 569 45 632 81
LayerCount: 2
Fore
SplineSet
245 108 m 1
 326 91 359 37 359 37 c 1
 360 519 l 1
 245 405 l 1
 243 326 244 188 245 108 c 1
436 99 m 1
 454 72 486 61 505 56 c 1
 506 476 l 1
 435 399 l 1
 435 299 435 167 436 99 c 1
531 503 m 1
 529 69 l 1
 697 293 617 412 586 462 c 0
 564 497 567 529 572 549 c 1
 531 503 l 1
646 538 m 0
 669 499 769 351 671 214 c 0
 593 105 534 24 514 -3 c 0
 509 -9 502 -13 493 -12 c 0
 474 -10 436 -2 411 29 c 1
 380 1 344 -8 326 -11 c 0
 321 -12 315 -10 311 -6 c 0
 275 35 223 56 169 56 c 0
 152 56 85 53 58 8 c 1
 58 8 46 -11 47 -30 c 0
 47 -31 46 -33 44 -33 c 0
 39 -32 35 -29 32 -25 c 0
 30 -23 29 -20 29 -17 c 0
 30 9 57 95 147 110 c 0
 152 110 156 111 161 111 c 1
 161 189 159 335 159 399 c 0
 158 475 197 500 215 513 c 1
 168 506 139 526 139 526 c 1
 124 535 115 548 98 548 c 0
 95 548 91 547 86 546 c 0
 68 542 48 524 47 511 c 0
 45 491 69 489 69 489 c 1
 66 475 53 470 53 470 c 1
 45 470 -5 481 26 544 c 0
 40 572 70 622 106 622 c 0
 115 622 126 619 138 614 c 0
 167 600 225 577 272 573 c 0
 282 572 286 561 281 554 c 0
 269 536 254 504 248 453 c 0
 248 450 247 446 247 441 c 1
 353 548 l 2
 358 553 362 555 371 555 c 0
 394 554 414 549 428 532 c 0
 434 527 436 519 436 512 c 0
 436 496 436 469 436 435 c 1
 594 609 l 2
 600 616 611 614 614 605 c 0
 619 590 628 568 646 538 c 0
EndSplineSet
EndChar

StartChar: X
Encoding: 88 88 57
Width: 585
GlyphClass: 2
Flags: MW
HStem: -36 26<122 136> -19 21G<82 82> -2 21G<453.5 469.5> 1 21G 51 80<157 160> 281 67 310 67<408.5 485.5> 530 70<507.5 509>
VStem: 62 39 152 356
LayerCount: 2
Fore
SplineSet
129 -10 m 0xbdc0
 164 -10 189 16 205 44 c 1
 191 48 176 50 160 51 c 0
 154 51 99 50 101 13 c 1
 101 13 103 -10 129 -10 c 0xbdc0
322 32 m 1
 322 32 357 41 384 75 c 1
 358 120 333 177 311 230 c 1
 257 103 l 1
 275 90 305 66 322 32 c 1
346 375 m 1
 450 615 l 2
 452 619 457 621 461 618 c 0
 472 611 495 600 520 600 c 0
 534 600 550 604 564 615 c 0
 566 617 570 615 569 612 c 0
 564 589 543 530 475 530 c 0
 465 530 454 531 442 534 c 1
 369 364 l 1
 384 367 403 370 425 374 c 0
 435 376 444 377 452 377 c 0xbbc0
 519 377 510 314 503 287 c 0xbdc0
 502 283 496 281 493 285 c 0
 477 304 448 310 414 310 c 0
 403 310 391 309 378 308 c 1
 431 195 490 73 514 60 c 1
 520 63 531 70 544 83 c 0
 546 85 549 85 551 83 c 0
 554 80 556 78 557 76 c 0
 560 71 559 65 556 61 c 0
 541 44 482 -2 457 -2 c 0
 450 -2 443 0 438 4 c 0
 424 15 411 32 397 53 c 1
 371 22 334 7 311 1 c 0
 300 -3 288 0 279 7 c 0
 268 15 251 26 230 35 c 1
 214 10 190 -17 154 -32 c 1
 154 -32 143 -36 129 -36 c 0xbbc0
 115 -36 97 -33 82 -19 c 1x7bc0
 82 -19 48 12 69 73 c 1
 69 73 88 131 160 131 c 0
 180 131 205 127 234 115 c 1
 298 263 l 1
 294 273 289 284 285 293 c 1
 259 288 233 283 212 281 c 0
 139 272 150 336 158 366 c 0
 160 371 167 373 170 368 c 0
 183 351 205 343 262 348 c 1
 221 434 167 532 167 532 c 1
 167 532 160 529 148 529 c 0
 140 529 129 530 117 535 c 0
 102 541 89 544 79 544 c 0
 62 544 51 537 48 530 c 1
 48 530 40 512 64 504 c 0
 67 503 68 500 67 497 c 0
 66 495 64 492 61 489 c 0
 57 484 50 483 45 485 c 0
 31 491 8 505 18 532 c 1
 18 532 56 632 107 621 c 0
 154 611 174 599 195 599 c 0
 202 599 209 600 217 603 c 0
 224 606 232 603 235 597 c 0
 245 580 265 543 298 476 c 0
 311 452 327 416 346 375 c 1
EndSplineSet
EndChar

StartChar: Y
Encoding: 89 89 58
Width: 606
GlyphClass: 2
Flags: MW
HStem: -148 22 -38 66<276.5 328> 508 83
VStem: 16 69 136 85 326 24 329 26 381 61<361 380> 467 86
LayerCount: 2
Fore
SplineSet
221 290 m 0xfd80
 216 146 270 126 328 125 c 1
 330 508 l 1
 303 485 225 407 221 290 c 0xfd80
442 269 m 0
 442 210 389 154 353 155 c 1
 353 126 l 1
 418 135 464 198 468 286 c 0
 468 297 468 309 467 321 c 0
 467 383 467 430 467 465 c 1
 450 458 442 431 442 380 c 2
 442 380 442 310 442 269 c 0
240 -126 m 0
 293 -126 318 -90 326 -42 c 1
 312 -40 296 -38 280 -38 c 0
 273 -38 191 -39 182 -85 c 1
 182 -85 171 -126 240 -126 c 0
494 -33 m 1
 501 -6 468 120 461 148 c 1
 442 113 410 79 353 72 c 1
 353 25 l 1
 410 17 465 -6 494 -33 c 1
587 54 m 1
 587 54 601 14 577 -14 c 0
 558 -36 499 -83 474 -103 c 0
 468 -108 459 -107 453 -102 c 0
 437 -88 401 -61 350 -47 c 1xfd80
 341 -104 309 -147 246 -148 c 0
 139 -149 146 -82 146 -82 c 1
 147 -57 160 -17 223 12 c 0
 254 26 291 30 328 28 c 1
 328 70 l 1
 103 68 136 293 136 293 c 1
 151 415 232 481 283 510 c 1
 251 504 211 509 156 508 c 0
 105 506 80 477 85 437 c 0
 87 415 101 410 112 409 c 0
 118 408 121 400 116 396 c 0
 110 390 100 385 86 385 c 0
 79 385 70 387 59 391 c 0
 27 404 19 439 19 439 c 1
 7 486 23 574 120 589 c 0
 131 591 141 591 151 591 c 0
 199 591 230 573 250 564 c 0
 260 559 269 557 278 557 c 0
 299 557 316 568 322 582 c 0
 327 596 325 605 321 612 c 0
 318 617 322 622 327 621 c 0
 352 614 355 594 355 572 c 2xfb80
 353 168 l 1
 366 175 380 209 380 261 c 0
 381 301 381 341 381 381 c 0
 382 458 443 475 467 478 c 1
 467 511 468 533 468 550 c 1
 454 545 l 2
 449 543 443 547 442 552 c 0
 442 554 442 556 442 558 c 0
 442 576 506 587 518 587 c 0
 535 587 549 581 550 561 c 0
 554 510 549 228 553 136 c 1
 553 136 577 86 587 54 c 1
EndSplineSet
EndChar

StartChar: Z
Encoding: 90 90 59
Width: 426
GlyphClass: 2
Flags: MW
HStem: -2 21G 25 74<197 307.5> 268 24<225 322> 325 25<81.5 182 88 165> 504 79<186 271> 549 73<92 101.5 79.5 102>
VStem: 16 30
LayerCount: 2
Fore
SplineSet
411 543 m 0xba
 411 536 408 529 404 523 c 0
 387 503 334 437 276 350 c 1
 351 349 l 2
 354 349 356 347 355 344 c 2
 350 328 l 2
 350 326 348 325 347 325 c 2
 260 325 l 1
 253 314 246 304 240 293 c 1
 321 292 l 2
 323 292 325 290 325 287 c 2
 320 271 l 2
 320 269 318 268 316 268 c 2
 225 268 l 1
 182 197 141 118 115 41 c 1
 115 41 205 99 294 99 c 0
 321 99 348 94 373 80 c 0
 375 83 379 93 381 100 c 0
 382 102 384 104 386 103 c 0
 390 103 397 101 401 94 c 0
 403 93 403 90 402 88 c 0x7a
 399 76 386 28 358 1 c 0
 353 -3 347 -4 341 -2 c 0xba
 302 17 262 25 222 25 c 0x7a
 172 25 122 13 71 -2 c 0
 65 -3 58 -3 53 0 c 0
 39 8 30 24 23 43 c 0
 21 50 21 57 23 63 c 0
 44 127 84 199 127 268 c 1
 53 268 l 2
 50 268 48 271 49 273 c 2
 53 290 l 2
 54 292 55 293 57 293 c 2
 143 293 l 1
 150 304 158 315 165 325 c 1
 83 325 l 2
 80 325 78 328 79 330 c 2
 84 347 l 2
 84 349 86 350 88 350 c 2
 182 350 l 1
 262 464 339 554 339 554 c 1
 288 516 244 504 210 504 c 0xba
 162 504 134 527 134 527 c 1
 119 536 110 549 94 549 c 0
 90 549 86 548 82 547 c 0
 65 543 47 525 46 512 c 0
 46 497 58 493 65 492 c 0
 67 491 69 489 68 486 c 0
 66 480 62 476 58 473 c 0
 56 471 52 471 49 471 c 0
 34 474 1 490 24 545 c 0
 35 572 62 622 97 622 c 0xb6
 106 622 117 620 129 614 c 0
 149 605 199 583 255 583 c 0
 287 583 322 591 353 612 c 0
 359 615 366 615 371 611 c 0
 386 599 411 573 411 543 c 0xba
EndSplineSet
EndChar

StartChar: bracketleft
Encoding: 91 91 60
Width: 231
GlyphClass: 2
Flags: MW
HStem: -8 21G<165 165>
VStem: 51 65
LayerCount: 2
Fore
SplineSet
170 26 m 0
 173 24 179 19 180 13 c 0
 181 8 180 3 177 -1 c 0
 176 -3 172 -7 165 -8 c 1
 165 -9 l 1
 165 -9 l 1
 162 -9 159 -9 156 -9 c 0
 133 -6 114 22 108 31 c 0
 17 191 59 465 74 547 c 2
 74 547 75 550 75 554 c 0
 76 556 76 557 76 558 c 0
 79 572 84 593 92 609 c 0
 101 627 116 641 152 631 c 1
 152 631 187 617 179 588 c 0
 172 566 146 607 135 507 c 0
 123 380 105 158 123 93 c 0
 134 52 155 34 170 26 c 0
EndSplineSet
EndChar

StartChar: backslash
Encoding: 92 92 61
Width: 248
GlyphClass: 2
Flags: MW
HStem: -14 649
VStem: 16 217
LayerCount: 2
Fore
SplineSet
54 632 m 0
 62 612 164 325 192 230 c 0
 215 153 232 95 233 67 c 0
 233 61 232 55 230 49 c 0
 225 34 213 2 193 -13 c 0
 189 -16 186 -13 186 -8 c 0
 185 16 170 103 131 222 c 2
 131 222 28 526 17 554 c 0
 16 558 15 563 16 568 c 0
 18 583 25 613 47 633 c 0
 50 636 53 636 54 632 c 0
EndSplineSet
EndChar

StartChar: bracketright
Encoding: 93 93 62
Width: 231
GlyphClass: 2
Flags: MW
HStem: -8 21G -5 21G<79 79>
VStem: 116 64
LayerCount: 2
Fore
SplineSet
75 634 m 0x60
 98 631 118 603 124 594 c 0
 215 434 172 161 157 79 c 0
 157 78 157 75 156 71 c 0
 156 70 155 69 155 67 c 0
 152 54 147 32 139 16 c 0xa0
 131 -1 115 -15 79 -5 c 1
 79 -5 44 8 53 38 c 0
 59 59 85 18 96 118 c 0
 109 246 127 467 108 532 c 0
 97 574 77 592 61 600 c 0
 58 602 52 606 51 613 c 0
 50 617 51 622 54 626 c 0
 55 628 59 632 66 634 c 2
 66 634 66 634 67 634 c 1
 67 634 l 1
 69 635 72 635 75 634 c 0x60
EndSplineSet
EndChar

StartChar: grave
Encoding: 96 96 63
Width: 142
GlyphClass: 2
Flags: MW
HStem: 708 61
VStem: 15 112 110 17
LayerCount: 2
Fore
SplineSet
21 731 m 0xa0
 14 739 13 749 20 755 c 0
 27 762 38 772 44 769 c 0
 53 765 95 740 119 736 c 0
 123 735 127 732 127 729 c 0
 127 723 124 714 110 709 c 1
 110 709 46 703 21 731 c 0xa0
EndSplineSet
EndChar

StartChar: a
Encoding: 97 97 64
Width: 309
GlyphClass: 2
Flags: MW
HStem: -2 63<118.5 127.5> 1 21G<94 94> 1 39 233 27<116 116> 334 35<256 256>
VStem: 15 76 179 77
LayerCount: 2
Fore
SplineSet
163 64 m 1x9e
 163 64 177 68 180 96 c 0
 180 106 179 131 179 159 c 1
 179 159 170 233 116 233 c 0
 112 233 89 230 91 160 c 1
 91 160 91 61 146 61 c 0
 151 61 157 62 163 64 c 1x9e
183 269 m 0
 199 317 222 329 222 329 c 1
 183 322 112 358 90 366 c 0
 69 373 57 348 59 322 c 0
 61 303 85 271 97 256 c 1
 107 259 115 259 115 260 c 0
 123 261 153 262 179 228 c 1
 179 247 180 262 183 269 c 0
307 54 m 0
 309 51 309 47 308 44 c 0
 299 20 281 8 267 3 c 0
 258 0 249 -1 240 1 c 0x5e
 205 7 190 25 184 45 c 1
 167 22 143 -2 112 -2 c 0x9e
 106 -2 100 -1 94 1 c 1
 94 1 14 33 15 143 c 0
 16 202 45 232 71 246 c 1
 59 265 37 300 31 322 c 0
 22 355 82 406 82 406 c 1
 97 419 112 424 126 424 c 0
 147 424 163 413 163 413 c 1
 180 402 231 369 250 369 c 0
 263 369 278 376 284 381 c 0
 287 382 291 381 293 378 c 0
 295 374 295 368 294 363 c 0
 293 361 292 359 291 358 c 0
 281 345 256 334 256 334 c 1
 256 334 258 155 257 116 c 0
 255 42 275 40 275 40 c 1x3e
 282 40 290 53 294 61 c 0
 295 64 299 65 302 62 c 0
 305 59 307 57 307 54 c 0
EndSplineSet
EndChar

StartChar: b
Encoding: 98 98 65
Width: 281
GlyphClass: 2
Flags: MW
HStem: 0 21G<107 107> 384 30<147.5 152.5>
VStem: 20 80<364 364 364 388> 22 82<84 96.5 82 103.5> 192 68
LayerCount: 2
Fore
SplineSet
184 141 m 1xd8
 202 254 186 340 160 378 c 0
 157 382 154 384 151 384 c 0
 133 384 109 324 105 306 c 2
 105 306 104 111 104 82 c 0
 105 54 112 31 121 31 c 0
 169 33 184 141 184 141 c 1xd8
20 388 m 2xe8
 21 547 l 1
 21 581 l 2
 21 589 27 597 35 598 c 0
 59 602 88 608 107 620 c 0
 111 623 117 621 118 616 c 0
 119 610 120 603 119 594 c 0
 118 591 116 588 113 587 c 0
 108 585 101 579 99 559 c 0
 98 536 100 364 100 364 c 1xe8
 100 364 128 414 167 414 c 0
 178 414 190 410 202 399 c 0
 282 328 266 179 236 110 c 0
 182 -14 107 0 107 0 c 1
 33 11 22 74 22 94 c 0xd8
 22 113 20 281 20 388 c 2xe8
EndSplineSet
EndChar

StartChar: c
Encoding: 99 99 66
Width: 267
GlyphClass: 2
Flags: MW
HStem: -1 31
VStem: 17 80 205 39
LayerCount: 2
Fore
SplineSet
183 420 m 0
 214 411 262 388 239 337 c 1
 239 337 227 315 204 300 c 0
 199 296 192 295 186 297 c 0
 183 298 180 299 177 301 c 0
 173 304 174 310 178 313 c 0
 186 319 200 331 205 346 c 0
 208 358 206 373 190 386 c 1
 190 386 115 339 100 223 c 0
 88 122 116 41 182 30 c 1
 182 30 218 32 238 65 c 0
 241 69 248 70 251 65 c 0
 254 62 256 56 256 49 c 0
 256 43 254 38 251 33 c 0
 242 23 219 2 180 -1 c 1
 40 7 9 122 17 221 c 0
 20 288 64 357 139 413 c 0
 148 419 158 422 168 422 c 0
 173 422 178 422 183 420 c 0
EndSplineSet
EndChar

StartChar: d
Encoding: 100 100 67
Width: 323
GlyphClass: 2
Flags: MW
HStem: -1 36<140 146> 1 39 386 26<136 152.5>
VStem: 16 77<205 213> 183 77<211 381>
LayerCount: 2
Fore
SplineSet
140 35 m 0xb8
 159 35 180 55 184 112 c 0
 184 140 183 192 183 230 c 2
 182 293 l 2
 178 383 154 386 151 386 c 0
 95 380 93 205 93 205 c 1
 91 158 97 37 140 35 c 0xb8
312 53 m 0
 313 50 313 47 312 44 c 0
 303 19 284 8 270 3 c 0xb8
 262 0 253 -1 244 1 c 0x78
 218 6 203 21 195 38 c 1
 180 18 160 -1 132 -1 c 0xb8
 116 -1 11 7 16 213 c 1
 16 213 17 407 136 412 c 1
 136 412 161 415 182 397 c 1
 182 547 l 1
 183 581 l 2
 183 589 189 597 197 598 c 0
 221 602 249 608 268 620 c 0
 273 623 279 621 280 616 c 0
 281 610 282 603 280 594 c 0
 280 591 278 588 275 587 c 0
 270 585 262 579 261 559 c 0
 259 536 260 381 260 381 c 1
 260 230 l 2
 261 183 261 135 261 116 c 0
 259 42 279 40 279 40 c 1x78
 287 40 294 54 298 62 c 0
 299 64 303 65 305 63 c 0
 309 60 311 56 312 53 c 0
EndSplineSet
EndChar

StartChar: e
Encoding: 101 101 68
Width: 267
GlyphClass: 2
Flags: MW
HStem: -1 31
VStem: 16 83 208 43
LayerCount: 2
Fore
SplineSet
189 386 m 1
 189 386 119 342 102 233 c 1
 196 264 208 324 208 324 c 1
 213 342 205 373 189 386 c 1
251 65 m 0
 254 62 256 56 256 49 c 0
 256 43 254 38 250 33 c 0
 241 23 218 2 179 -1 c 1
 40 7 9 122 16 221 c 0
 20 288 64 357 139 413 c 0
 147 419 157 422 168 422 c 0
 173 422 178 422 183 420 c 0
 214 411 270 359 246 306 c 1
 246 306 219 236 99 207 c 1
 91 114 119 41 182 30 c 1
 182 30 218 32 238 65 c 0
 241 69 247 70 251 65 c 0
EndSplineSet
EndChar

StartChar: f
Encoding: 102 102 69
Width: 188
GlyphClass: 2
Flags: MW
HStem: 1 39<74.5 131> 339 30 601 20<109 109>
VStem: 33 76<74 339> 148 55
LayerCount: 2
Fore
SplineSet
203 547 m 0
 203 520 174 508 152 502 c 0
 148 501 144 505 145 509 c 0
 162 570 109 601 109 601 c 1
 109 371 l 1
 121 370 134 368 147 369 c 0
 153 370 159 371 165 374 c 0
 167 375 170 374 170 371 c 0
 168 353 160 343 143 339 c 0
 132 338 120 338 109 339 c 1
 109 281 110 150 109 116 c 0
 108 42 127 40 127 40 c 1
 135 40 142 52 146 60 c 0
 148 64 152 65 155 62 c 0
 158 58 160 55 161 52 c 0
 161 50 161 47 160 45 c 0
 152 19 129 1 101 1 c 0
 48 1 33 52 33 96 c 0
 33 135 32 296 31 348 c 1
 24 347 17 346 11 342 c 0
 8 341 5 343 5 346 c 0
 5 354 7 362 14 368 c 0
 20 374 26 376 31 377 c 1
 31 534 l 2
 30 540 32 545 35 550 c 0
 55 580 87 621 127 621 c 0
 167 621 200 584 203 547 c 0
EndSplineSet
EndChar

StartChar: g
Encoding: 103 103 70
Width: 298
GlyphClass: 2
Flags: MW
HStem: -173 22<123 138.5 137 143> 12 32 387 25<138 154.5> 410 20G
VStem: 16 77<225 233> 28 108 184 78<25 25 25 36>
LayerCount: 2
Fore
SplineSet
142 44 m 0xfa
 162 46 180 69 184 113 c 1
 184 285 l 2
 181 384 156 387 153 387 c 0
 103 381 93 225 93 225 c 1
 87 153 98 46 142 44 c 0xfa
282 423 m 0
 283 420 283 415 283 410 c 0
 282 405 279 399 275 396 c 0
 270 394 264 387 263 370 c 0
 261 346 262 25 262 25 c 1
 262 25 265 -173 143 -173 c 0
 142 -173 140 -173 137 -173 c 0
 98 -173 -20 -125 48 -84 c 1
 48 -84 105 -54 123 -26 c 0
 125 -23 128 -23 130 -25 c 0
 134 -31 137 -37 136 -45 c 0xf6
 131 -61 114 -74 99 -82 c 1
 99 -82 109 -151 137 -151 c 0
 183 -151 184 5 184 36 c 1
 172 23 156 13 135 12 c 0
 120 12 2 19 16 233 c 1
 16 233 27 407 138 412 c 1
 138 412 164 415 186 395 c 1
 189 402 196 408 204 409 c 0
 226 413 250 419 268 430 c 0
 274 433 281 430 282 423 c 0
EndSplineSet
EndChar

StartChar: h
Encoding: 104 104 71
Width: 323
GlyphClass: 2
Flags: MW
HStem: 1 21G 1 39
VStem: 16 78 184 77<221.5 256 116 314.5>
LayerCount: 2
Fore
SplineSet
312 53 m 0x70
 313 50 313 47 312 44 c 0
 303 19 285 8 270 3 c 0
 262 0 253 -1 245 1 c 0
 186 12 185 72 185 96 c 0
 185 108 184 187 184 256 c 0
 184 373 163 377 159 377 c 0
 137 377 105 307 94 259 c 1
 94 230 l 2
 95 183 95 95 95 77 c 1
 102 55 124 38 144 28 c 0
 148 26 149 20 145 17 c 0
 131 5 113 1 101 -1 c 0
 95 -2 88 -2 81 1 c 0
 56 12 18 52 18 83 c 0
 18 115 17 190 17 230 c 2
 16 388 l 1
 16 581 l 2
 17 589 23 597 31 598 c 0
 55 602 83 608 102 620 c 0
 107 623 113 621 114 616 c 0
 115 610 116 603 114 594 c 0
 114 591 112 588 109 587 c 0
 104 585 96 579 95 559 c 0
 93 536 94 381 94 381 c 1
 94 341 l 1
 109 372 133 410 166 420 c 1
 166 420 267 451 261 256 c 0
 261 190 261 126 261 116 c 0
 260 42 279 40 279 40 c 1
 287 40 295 54 298 62 c 0
 300 64 303 65 305 63 c 0
 309 60 311 56 312 53 c 0x70
EndSplineSet
Substitution2: "'ss01' Style Set 1 in Latin lookup 1 subtable" uniE001
Substitution2: "'aalt' Access All Alternates in Latin lookup 0 subtable" uniE001
EndChar

StartChar: i
Encoding: 105 105 72
Width: 185
GlyphClass: 2
Flags: MW
HStem: 1 21G 1 39 435 57<96 111.5>
VStem: 47 76<84 402> 75 57<455.5 471>
LayerCount: 2
Fore
SplineSet
174 53 m 0x70
 175 50 175 47 174 44 c 0
 165 19 147 8 132 3 c 0
 124 0 115 -1 107 1 c 0
 48 12 47 72 47 96 c 0
 47 115 46 304 45 351 c 1
 41 348 33 345 27 344 c 0
 22 343 17 344 13 348 c 0
 9 353 7 360 6 364 c 0
 5 367 7 370 10 371 c 0
 45 379 81 407 95 419 c 0
 101 424 109 424 114 419 c 0
 117 417 118 414 120 412 c 0
 122 409 123 405 123 402 c 0
 123 347 123 134 123 116 c 0
 122 42 141 40 141 40 c 1
 149 40 157 54 160 62 c 0
 162 64 165 65 167 63 c 0
 171 60 173 56 174 53 c 0x70
104 435 m 0
 88 435 75 448 75 463 c 0xb0
 75 479 88 492 104 492 c 0
 119 492 132 479 132 463 c 0xa8
 132 448 119 435 104 435 c 0
EndSplineSet
EndChar

StartChar: j
Encoding: 106 106 73
Width: 164
GlyphClass: 2
Flags: MW
HStem: -151 25 435 57<103 118.5>
VStem: 54 76<35 44.5> 82 57<455.5 471>
LayerCount: 2
Fore
SplineSet
127 412 m 0xe0
 129 409 130 405 130 402 c 0
 130 347 130 53 130 35 c 1
 130 35 130 -136 11 -151 c 0
 1 -152 -9 -149 -16 -143 c 0
 -22 -137 -28 -128 -29 -114 c 0
 -29 -103 -21 -94 -10 -92 c 0
 -7 -91 -5 -93 -6 -95 c 0
 -7 -109 -4 -120 3 -126 c 1
 28 -124 52 -111 54 35 c 0
 54 54 53 304 52 351 c 1
 48 348 40 345 34 344 c 0
 29 343 24 344 20 348 c 0
 16 353 14 360 13 364 c 0
 12 367 14 370 17 371 c 0
 52 379 88 407 102 419 c 0
 108 424 116 424 121 419 c 0
 123 417 125 414 127 412 c 0xe0
111 492 m 0
 126 492 139 479 139 463 c 0xd0
 139 448 126 435 111 435 c 0
 95 435 82 448 82 463 c 0
 82 479 95 492 111 492 c 0
EndSplineSet
EndChar

StartChar: k
Encoding: 107 107 74
Width: 315
GlyphClass: 2
Flags: MW
HStem: -1 21G -1 41 1 21G 381 42
VStem: 17 77<83 99> 190 60<332 369>
LayerCount: 2
Fore
SplineSet
94 274 m 1x5c
 94 230 l 1
 183 256 190 332 190 332 c 1
 193 370 182 382 163 381 c 0
 139 378 102 320 94 274 c 1x5c
297 67 m 1
 312 58 309 47 309 47 c 1
 298 11 267 2 254 -1 c 0x5c
 182 4 189 52 176 95 c 0
 160 168 116 193 94 201 c 1
 94 153 94 92 94 77 c 1
 101 55 123 38 143 28 c 0
 148 26 148 20 145 17 c 0xbc
 131 5 112 1 101 -1 c 0x5c
 94 -2 87 -2 81 1 c 0xbc
 51 14 20 50 17 83 c 0
 17 115 17 190 16 230 c 2
 15 388 l 1
 16 547 l 1
 16 581 l 2
 16 589 22 597 30 598 c 0
 54 602 82 608 102 620 c 0
 106 623 112 621 113 616 c 0
 114 610 115 603 113 594 c 0
 113 591 111 588 108 587 c 0
 103 585 96 579 94 559 c 0
 93 536 93 381 93 381 c 1
 93 347 l 1
 116 381 144 423 189 423 c 0
 213 423 239 413 250 369 c 1
 250 369 258 338 241 294 c 0
 216 230 134 220 123 219 c 1
 134 220 225 224 240 114 c 1
 256 44 271 40 274 40 c 0
 286 40 297 67 297 67 c 1
EndSplineSet
EndChar

StartChar: l
Encoding: 108 108 75
Width: 161
GlyphClass: 2
Flags: MW
HStem: 1 21G 1 39
VStem: 15 77
LayerCount: 2
Fore
SplineSet
93 381 m 1xa0
 94 230 l 2
 94 183 94 135 94 116 c 0
 92 42 112 40 112 40 c 1
 120 40 128 54 131 62 c 0
 132 64 136 65 138 63 c 0
 142 60 144 56 145 53 c 0
 146 50 146 47 145 44 c 0x60
 136 19 117 8 103 3 c 0
 95 0 86 -1 77 1 c 0
 19 12 18 72 18 96 c 0
 18 115 17 183 16 230 c 2
 15 388 l 1
 16 547 l 1
 16 581 l 2
 16 589 22 597 30 598 c 0
 54 602 82 608 102 620 c 0
 106 623 112 621 113 616 c 0
 114 610 115 603 113 594 c 0
 113 591 111 588 108 587 c 0
 103 585 96 579 94 559 c 0
 93 536 93 381 93 381 c 1xa0
EndSplineSet
EndChar

StartChar: m
Encoding: 109 109 76
Width: 471
GlyphClass: 2
Flags: MW
HStem: -1 21G 0 21G 0 40 1 21G 379 44<310 328.5>
VStem: 42 76<83 99> 189 77<236 266 232.5 314.5> 342 77<205 234 205 276 205 276>
LayerCount: 2
Fore
SplineSet
469 53 m 0x2f
 470 50 470 47 469 44 c 0x2f
 461 19 442 8 428 2 c 0
 419 -1 411 -1 402 0 c 0
 343 12 342 72 342 96 c 0x4f
 342 108 342 207 342 276 c 1
 342 276 345 379 312 379 c 0
 287 379 266 276 266 256 c 0
 266 209 267 95 267 77 c 1
 274 55 295 38 316 28 c 0
 320 26 321 20 317 17 c 0
 303 5 284 1 273 -1 c 0
 266 -2 259 -2 253 1 c 0
 226 13 207 40 197 56 c 0
 193 64 190 73 190 83 c 0x8f
 190 115 189 216 189 256 c 0
 189 373 167 377 164 377 c 0
 140 377 126 298 118 250 c 1
 118 192 118 135 118 77 c 1
 125 55 148 38 168 28 c 0
 173 26 173 20 170 17 c 0
 156 5 137 1 126 -1 c 0
 119 -2 112 -2 106 1 c 0
 76 14 45 50 42 83 c 0x1f
 42 115 42 191 41 230 c 0
 41 280 41 330 40 351 c 1
 36 348 28 345 22 344 c 0
 17 343 12 344 8 348 c 0
 4 353 2 360 1 364 c 0
 0 367 2 370 5 371 c 0
 40 379 76 407 91 419 c 0
 96 424 104 424 109 419 c 0
 112 417 114 414 115 412 c 0
 117 409 118 405 118 402 c 0
 118 392 118 378 118 361 c 1
 128 387 144 412 170 420 c 1
 170 420 233 440 257 345 c 1
 269 380 289 423 331 423 c 0
 372 423 418 387 419 234 c 0
 419 176 419 124 418 116 c 0
 417 42 436 40 436 40 c 1
 445 40 452 54 456 61 c 0
 457 64 460 65 463 63 c 0
 467 59 469 56 469 53 c 0x2f
EndSplineSet
Substitution2: "'ss01' Style Set 1 in Latin lookup 1 subtable" uniE002
Substitution2: "'aalt' Access All Alternates in Latin lookup 0 subtable" uniE002
EndChar

StartChar: n
Encoding: 110 110 77
Width: 337
GlyphClass: 2
Flags: MW
HStem: 1 21G 1 39 377 46
VStem: 42 75<77 99> 208 77<116 256 116 256 221.5 256 116 314.5>
LayerCount: 2
Fore
SplineSet
336 53 m 0x78
 337 50 337 47 336 44 c 0
 327 19 308 8 294 3 c 0
 286 0 277 -1 268 1 c 0
 209 12 208 72 208 96 c 0
 208 108 208 187 208 256 c 0
 208 373 187 377 183 377 c 0
 160 377 127 304 117 256 c 1
 117 196 117 137 117 77 c 1
 124 55 147 38 168 28 c 0
 172 26 173 20 169 17 c 0
 155 5 136 1 125 -1 c 0
 118 -2 111 -2 105 1 c 0
 79 13 42 51 42 83 c 0
 42 115 41 191 41 230 c 0
 40 280 40 330 40 351 c 1
 35 348 28 345 21 344 c 0
 16 343 11 344 8 348 c 0
 3 353 1 360 0 364 c 0
 0 367 2 370 5 371 c 0
 39 379 75 407 90 419 c 0
 95 424 103 424 108 419 c 0
 111 417 113 414 114 412 c 0
 116 409 117 405 117 402 c 0
 117 388 117 366 117 340 c 1
 132 371 156 410 190 420 c 1
 190 420 291 451 285 256 c 0
 285 190 285 126 285 116 c 0
 283 42 303 40 303 40 c 1
 311 40 318 54 322 62 c 0
 323 64 327 65 329 63 c 0
 333 60 335 56 336 53 c 0x78
EndSplineSet
EndChar

StartChar: o
Encoding: 111 111 78
Width: 290
GlyphClass: 2
Flags: MW
HStem: 1 21G 1 29
VStem: 15 78 192 40 225 49<172 172>
LayerCount: 2
Fore
SplineSet
274 171 m 0x68
 275 62 216 19 188 6 c 0
 180 2 171 0 162 1 c 0
 37 14 14 110 15 202 c 0
 16 256 55 357 124 412 c 0
 133 419 144 422 155 422 c 0
 160 422 165 422 170 420 c 0
 201 410 247 387 227 337 c 1
 227 337 220 323 206 310 c 1
 237 297 273 264 274 171 c 0x68
176 30 m 1
 176 30 226 48 225 172 c 0x68
 224 252 170 281 146 290 c 0
 140 292 139 300 144 304 c 0
 152 310 163 314 170 316 c 0
 178 322 189 333 192 346 c 0xb0
 196 358 192 373 177 386 c 1
 177 386 94 316 93 190 c 0
 92 83 111 42 176 30 c 1
EndSplineSet
EndChar

StartChar: p
Encoding: 112 112 79
Width: 297
GlyphClass: 2
Flags: MW
HStem: -170 21G 0 29<154 202> 369 41
VStem: 41 77<-86 24 133 137.5> 208 74<205 205>
LayerCount: 2
Fore
SplineSet
208 205 m 1
 212 367 178 369 176 369 c 0
 146 370 126 314 117 285 c 1
 117 243 117 196 117 155 c 0
 117 149 118 142 118 133 c 0
 123 93 139 29 169 29 c 0
 205 30 208 205 208 205 c 1
184 410 m 0
 248 411 283 330 282 205 c 0
 280 80 233 0 171 0 c 0
 167 0 139 1 118 24 c 1
 118 -31 118 -83 118 -92 c 0
 125 -114 147 -131 167 -141 c 0
 171 -143 172 -149 168 -152 c 0
 154 -163 136 -168 124 -170 c 0
 118 -171 111 -170 105 -168 c 0
 79 -157 41 -117 41 -86 c 0
 41 -53 41 123 41 163 c 0
 40 239 40 325 40 351 c 1
 35 348 28 345 21 344 c 0
 16 343 11 344 8 348 c 0
 3 353 1 360 0 364 c 0
 0 367 2 370 5 371 c 0
 39 379 75 407 90 419 c 0
 95 424 103 424 108 419 c 0
 111 417 113 414 114 412 c 0
 116 409 117 405 117 402 c 0
 117 393 117 377 117 358 c 1
 132 381 156 409 184 410 c 0
EndSplineSet
EndChar

StartChar: q
Encoding: 113 113 80
Width: 290
GlyphClass: 2
Flags: MW
HStem: -170 21G 12 32 387 25<128 145.5>
VStem: 7 77<225 233> 175 76<-86 36 9.5 36 118 128>
LayerCount: 2
Fore
SplineSet
133 44 m 0
 153 46 172 71 175 118 c 0
 175 138 175 154 174 163 c 2
 175 283 l 2
 172 384 147 387 144 387 c 0
 93 381 84 225 84 225 c 1
 77 153 89 46 133 44 c 0
301 -141 m 0
 305 -143 306 -149 302 -152 c 0
 288 -163 269 -168 258 -170 c 0
 251 -171 244 -170 238 -168 c 0
 211 -156 192 -129 182 -113 c 0
 178 -105 175 -96 175 -86 c 0
 175 -70 175 -17 175 36 c 1
 162 23 146 13 125 12 c 0
 110 12 -8 19 7 233 c 1
 7 233 18 407 128 412 c 1
 128 412 155 415 177 395 c 1
 180 402 186 408 194 409 c 0
 216 413 241 419 259 430 c 0
 264 433 272 430 273 423 c 0
 273 420 274 415 273 410 c 0
 273 405 270 399 265 396 c 0
 260 394 254 387 253 370 c 0
 253 361 251 210 251 155 c 0
 252 108 252 -74 251 -92 c 1
 259 -114 280 -131 301 -141 c 0
EndSplineSet
EndChar

StartChar: r
Encoding: 114 114 81
Width: 274
GlyphClass: 2
Flags: MW
HStem: 1 21G 377 43<190 190 190 197.5>
VStem: 42 76
LayerCount: 2
Fore
SplineSet
190 420 m 1
 190 420 256 428 258 341 c 0
 259 332 255 324 249 318 c 0
 241 309 225 297 200 287 c 0
 196 285 190 286 187 289 c 0
 184 292 182 294 180 298 c 0
 179 301 180 305 184 306 c 0
 189 308 196 312 200 321 c 1
 200 321 212 377 183 377 c 0
 160 377 127 302 118 251 c 0
 118 244 118 238 118 231 c 0
 118 184 117 95 117 77 c 1
 124 55 147 38 168 28 c 0
 172 26 173 20 169 17 c 0
 155 5 136 1 125 -1 c 0
 118 -2 111 -2 105 1 c 0
 79 13 42 51 42 83 c 0
 42 115 41 191 41 230 c 0
 40 280 40 330 40 351 c 1
 35 348 28 345 21 344 c 0
 17 343 11 344 8 348 c 0
 3 353 1 360 0 364 c 0
 0 367 2 370 5 371 c 0
 39 379 75 407 90 419 c 0
 95 424 103 424 108 419 c 0
 111 417 113 414 114 412 c 0
 116 409 117 405 117 402 c 0
 117 389 117 368 117 343 c 1
 132 377 157 417 190 420 c 1
EndSplineSet
EndChar

StartChar: s
Encoding: 115 115 82
Width: 281
GlyphClass: 2
Flags: MW
HStem: 1 21G<120.5 143.5> 1 46<120.5 155> 333 63<186 254>
VStem: 16 70 189 76
LayerCount: 2
Fore
SplineSet
108 282 m 0
 115 270 122 263 127 259 c 1
 186 333 l 1
 149 334 108 383 93 374 c 0
 76 364 90 314 108 282 c 0
155 47 m 0
 194 51 189 170 189 170 c 1
 187 240 141 234 139 233 c 2
 69 144 l 1
 104 145 112 120 126 87 c 0
 135 65 142 47 155 47 c 0
252 377 m 2
 185 292 l 1
 191 294 197 295 202 295 c 0
 240 295 272 255 265 181 c 0
 259 119 233 80 233 80 c 1
 213 39 164 1 123 1 c 0
 118 1 112 2 107 3 c 0
 85 10 78 42 56 79 c 0
 45 96 31 104 21 108 c 0
 16 110 15 116 19 120 c 2
 80 198 l 1
 66 202 50 214 34 240 c 0
 0 298 23 333 23 333 c 1
 41 364 103 424 144 424 c 0
 153 424 161 422 169 418 c 0
 207 398 237 396 254 396 c 0
 259 397 263 390 259 386 c 0
 257 383 255 380 252 377 c 2
EndSplineSet
EndChar

StartChar: t
Encoding: 116 116 83
Width: 186
GlyphClass: 2
Flags: MW
HStem: 1 21G 1 39 474 51<162 163.5> 478 49<36 39>
VStem: 38 78<388 476>
LayerCount: 2
Fore
SplineSet
245 534 m 0xa8
 246 520 241 501 229 491 c 0
 222 486 213 482 207 480 c 0
 189 475 172 474 155 474 c 0
 142 474 129 475 116 476 c 1
 116 427 117 375 117 375 c 1
 117 230 l 2
 117 183 118 135 117 116 c 0
 116 42 135 40 135 40 c 1
 143 40 151 54 154 62 c 0
 156 64 159 65 161 63 c 0
 165 60 167 56 168 53 c 0
 169 50 169 47 168 44 c 0x68
 159 19 141 8 127 3 c 0
 118 0 109 -1 101 1 c 0
 42 12 41 72 41 96 c 0
 41 115 40 183 39 230 c 2
 38 388 l 1
 39 478 l 1
 22 477 5 473 -10 464 c 0
 -14 462 -19 465 -19 469 c 0
 -21 482 -19 494 -8 506 c 0
 8 522 21 524 36 527 c 0
 37 527 38 527 39 527 c 1
 39 547 l 2
 39 559 33 564 23 561 c 0
 20 561 18 562 17 563 c 0
 13 568 7 576 5 586 c 0
 4 590 7 593 11 593 c 0
 31 594 93 599 127 622 c 0
 130 624 134 622 136 618 c 0
 137 613 139 604 137 594 c 0
 136 591 134 588 131 587 c 0
 127 585 119 579 118 559 c 0x98
 117 554 117 542 117 528 c 1
 135 527 153 525 171 525 c 0
 192 525 220 526 237 539 c 0
 240 541 245 539 245 534 c 0xa8
EndSplineSet
Substitution2: "'ss01' Style Set 1 in Latin lookup 1 subtable" uniE003
Substitution2: "'aalt' Access All Alternates in Latin lookup 0 subtable" uniE003
EndChar

StartChar: u
Encoding: 117 117 84
Width: 338
GlyphClass: 2
Flags: MW
HStem: 0 40<261 307> 410 20G
VStem: 41 77<148 177> 209 77<155 386>
LayerCount: 2
Fore
SplineSet
337 53 m 0
 337 26 305 0 279 0 c 0
 243 0 221 28 213 60 c 1
 204 43 193 29 183 20 c 0
 170 7 153 1 136 1 c 0
 121 1 106 5 94 15 c 0
 40 58 41 145 41 145 c 1
 41 209 41 317 40 351 c 1
 36 348 28 345 22 344 c 0
 17 343 12 344 8 348 c 0
 4 353 2 360 1 364 c 0
 0 367 2 370 5 371 c 0
 40 379 76 407 90 419 c 0
 96 424 104 424 109 419 c 0
 111 417 113 414 115 412 c 0
 117 409 118 405 118 402 c 0
 118 358 118 213 118 148 c 1
 118 148 119 44 161 45 c 1
 203 74 208 184 209 216 c 2
 209 386 l 2
 209 397 217 407 229 409 c 0
 251 413 275 419 293 430 c 0
 299 433 306 430 307 423 c 0
 308 420 308 415 308 410 c 0
 307 405 304 399 299 396 c 0
 295 394 289 387 288 370 c 0
 287 361 286 210 286 155 c 0
 282 43 300 40 303 40 c 0
 311 40 319 54 323 62 c 0
 324 64 327 65 330 63 c 0
 334 60 336 56 337 53 c 0
EndSplineSet
EndChar

StartChar: v
Encoding: 118 118 85
Width: 335
GlyphClass: 2
Flags: MW
HStem: 0 21G 385 26<280 280>
VStem: 81 68 243 58
LayerCount: 2
Fore
SplineSet
86 89 m 0
 78 99 74 112 76 125 c 0
 98 242 47 349 47 349 c 1
 39 345 24 342 20 344 c 0
 12 347 7 357 6 365 c 0
 5 367 7 370 10 371 c 0
 30 375 66 394 87 419 c 0
 91 424 98 424 102 419 c 0
 122 392 166 311 142 128 c 1
 142 128 175 80 184 53 c 1
 184 53 241 81 243 230 c 1
 243 230 247 317 192 367 c 0
 187 372 186 380 190 387 c 0
 197 396 207 410 220 419 c 0
 225 423 231 424 237 421 c 0
 248 417 268 411 288 411 c 0
 300 411 312 414 323 420 c 0
 326 422 330 420 330 417 c 0
 330 413 330 408 328 402 c 0
 326 397 323 393 318 390 c 0
 311 387 298 383 280 385 c 1
 280 385 313 318 296 213 c 0
 275 96 201 29 167 3 c 0
 159 -3 147 0 143 9 c 0
 130 38 103 70 86 89 c 0
EndSplineSet
EndChar

StartChar: w
Encoding: 119 119 86
Width: 480
GlyphClass: 2
Flags: MW
HStem: -1 21G 385 26<424 424>
VStem: 70 73 226 76<293 308 293 314 306 308 293 314> 388 57
LayerCount: 2
Fore
SplineSet
170 58 m 1
 226 108 l 1
 225 168 226 298 226 314 c 1
 219 336 196 353 176 363 c 0
 171 365 171 371 174 374 c 0
 188 385 207 390 218 392 c 0
 225 393 232 392 238 389 c 0
 268 377 298 342 302 308 c 0
 302 278 302 152 303 101 c 1
 315 84 325 67 329 53 c 1
 329 53 386 91 388 230 c 1
 388 230 392 319 335 369 c 0
 331 373 330 379 333 384 c 0
 339 393 350 408 364 418 c 0
 369 422 376 424 382 421 c 0
 393 417 413 411 433 411 c 0
 445 411 457 414 468 420 c 0
 471 422 474 420 474 417 c 0
 475 413 474 407 472 401 c 0
 471 397 468 393 464 391 c 0
 458 388 445 383 424 385 c 1
 424 385 458 318 440 213 c 0
 419 93 342 26 309 2 c 0
 302 -4 292 -1 288 7 c 0
 277 33 253 64 236 83 c 1
 151 5 l 2
 144 -1 133 1 129 10 c 0
 116 39 89 72 72 90 c 0
 64 99 61 112 63 124 c 0
 86 241 47 349 47 349 c 1
 39 345 24 342 20 344 c 0
 12 346 8 355 6 363 c 0
 5 366 7 370 11 371 c 0
 32 375 70 388 97 419 c 0
 101 424 109 423 112 418 c 0
 129 391 165 309 127 128 c 1
 127 128 160 84 170 58 c 1
EndSplineSet
EndChar

StartChar: x
Encoding: 120 120 87
Width: 306
GlyphClass: 2
Flags: MW
HStem: -2 21G 387 26<288.5 290>
VStem: 12 19 283 11
LayerCount: 2
Fore
SplineSet
288 65 m 0
 291 61 293 58 294 55 c 0
 295 53 295 51 294 49 c 0
 281 18 243 0 226 -2 c 0
 223 -3 220 -2 218 1 c 0
 191 34 166 73 145 113 c 1
 121 76 94 39 64 5 c 0
 61 2 57 1 53 3 c 0
 41 8 18 24 12 57 c 0
 12 59 13 61 14 63 c 0
 16 65 20 68 24 71 c 0
 26 73 30 72 31 69 c 0
 33 63 35 56 40 52 c 1
 69 91 94 131 116 169 c 1
 68 269 41 358 41 358 c 1
 33 354 20 350 17 352 c 0
 10 354 7 363 5 370 c 0
 5 374 7 378 11 380 c 0
 40 390 68 407 89 422 c 0
 93 426 100 423 102 418 c 0
 109 392 130 327 160 254 c 1
 198 332 219 393 226 416 c 0
 228 421 233 423 238 422 c 0
 250 418 272 413 296 413 c 0
 299 413 301 410 300 408 c 0
 300 404 299 397 295 390 c 0
 294 389 292 388 290 387 c 0
 287 387 280 386 271 388 c 1
 271 388 244 297 189 190 c 1
 213 140 240 91 271 52 c 1
 276 55 281 61 283 65 c 0
 284 67 287 67 288 65 c 0
EndSplineSet
EndChar

StartChar: y
Encoding: 121 121 88
Width: 323
GlyphClass: 2
Flags: MW
HStem: -173 22<162 162> 1 21G<128.5 144.5>
VStem: 41 77<148 177> 52 108 209 78<210 370 25 386 25 391.5>
LayerCount: 2
Fore
SplineSet
307 423 m 0xe8
 307 420 308 415 307 410 c 0
 307 405 304 399 299 396 c 0
 294 394 289 387 287 370 c 0
 286 346 287 25 287 25 c 1
 287 25 290 -173 168 -173 c 0
 167 -173 165 -173 162 -173 c 0
 123 -173 4 -125 73 -84 c 1
 73 -84 130 -54 148 -26 c 0
 149 -23 153 -23 155 -25 c 0
 159 -31 161 -37 160 -45 c 0
 160 -59 134 -76 124 -82 c 1xd8
 124 -82 135 -155 163 -151 c 0
 208 -144 210 -3 209 53 c 1
 201 39 192 28 183 20 c 0
 170 7 153 1 136 1 c 0
 121 1 106 5 94 15 c 0
 40 58 41 145 41 145 c 1
 41 209 41 317 40 351 c 1
 36 348 28 345 22 344 c 0
 17 343 12 344 8 348 c 0
 4 353 2 360 1 364 c 0
 0 367 2 370 5 371 c 0
 40 379 76 407 90 419 c 0
 95 424 103 424 108 419 c 0
 111 417 113 414 115 412 c 0
 116 409 117 405 117 402 c 0
 118 358 118 213 118 148 c 1
 118 148 119 44 161 45 c 1
 201 73 207 173 209 210 c 2
 209 386 l 2
 209 397 217 407 228 409 c 0
 250 413 275 419 293 430 c 0
 298 433 306 430 307 423 c 0xe8
EndSplineSet
EndChar

StartChar: z
Encoding: 122 122 89
Width: 277
GlyphClass: 2
Flags: MW
HStem: -173 22<100 108 100 100>
VStem: -14 74 183 61<294 310> 192 79
LayerCount: 2
Fore
SplineSet
60 -82 m 1xd0
 61 -111 72 -151 107 -151 c 0
 171 -151 201 -58 192 39 c 0xd0
 181 155 72 176 37 180 c 0
 32 181 29 187 33 191 c 0
 42 203 59 219 90 216 c 1
 170 261 183 294 183 294 c 1
 192 338 51 351 51 351 c 1
 45 347 34 344 27 343 c 0
 17 346 13 357 11 364 c 0
 11 367 13 370 16 371 c 0
 48 378 81 403 97 416 c 0
 104 422 113 424 122 421 c 0
 158 409 251 372 244 310 c 1xe0
 244 310 241 236 116 203 c 1
 116 203 262 183 271 41 c 0
 283 -160 144 -173 108 -173 c 0
 103 -173 100 -173 100 -173 c 2
 45 -171 -60 -125 9 -84 c 1
 9 -84 66 -54 84 -26 c 0
 85 -23 89 -23 91 -25 c 0
 95 -31 97 -37 96 -45 c 0
 96 -59 70 -76 60 -82 c 1xd0
EndSplineSet
EndChar

StartChar: exclamdown
Encoding: 161 161 90
Width: 182
GlyphClass: 2
Flags: MW
HStem: -167 594 311 116
VStem: 66 66
LayerCount: 2
Fore
SplineSet
127 241 m 0xa0
 133 209 133 171 127 74 c 0
 120 -46 110 -136 107 -162 c 0
 107 -167 103 -169 99 -167 c 0
 83 -158 72 -144 63 -131 c 1
 63 -131 47 -106 52 -53 c 0
 55 -6 59 59 59 59 c 1
 73 206 63 281 58 308 c 0
 57 315 60 319 65 317 c 0
 90 308 111 276 120 260 c 0
 123 254 126 248 127 241 c 0xa0
65 353 m 0x60
 60 357 57 364 57 370 c 0
 56 381 55 400 54 413 c 0
 52 423 60 428 68 427 c 0
 82 425 101 424 117 384 c 1
 117 384 123 363 124 321 c 0
 124 311 115 307 106 315 c 0
 94 327 77 342 65 353 c 0x60
EndSplineSet
EndChar

StartChar: cent
Encoding: 162 162 91
Width: 194
GlyphClass: 2
Flags: MW
HStem: 71 20 411 20G
VStem: 16 50 87 21
LayerCount: 2
Fore
SplineSet
153 289 m 0
 149 288 144 296 145 301 c 0
 147 318 149 348 137 372 c 1
 137 372 127 373 114 339 c 1
 113 308 111 259 111 259 c 2
 108 186 108 133 108 95 c 1
 125 100 145 112 161 138 c 0
 164 142 170 136 169 130 c 0
 167 103 155 61 113 43 c 1
 113 43 112 42 109 42 c 1
 110 34 110 28 111 24 c 0
 111 18 110 13 108 13 c 0
 100 12 93 29 90 41 c 1
 80 44 68 52 59 71 c 2
 59 71 23 95 16 194 c 0
 7 316 58 432 94 431 c 1
 94 438 95 444 95 448 c 0
 95 453 96 456 98 456 c 0
 107 453 113 444 115 420 c 1
 121 415 126 408 132 399 c 2
 132 399 172 389 178 329 c 1
 178 329 182 295 153 289 c 0
69 95 m 1
 69 95 77 91 85 91 c 1
 84 117 85 154 87 218 c 0
 87 227 89 272 89 281 c 1
 66 236 62 143 69 95 c 1
EndSplineSet
EndChar

StartChar: sterling
Encoding: 163 163 92
Width: 274
GlyphClass: 2
Flags: MW
HStem: 4 58 237 28<147 154.5> 240 30 297 27<153.5 154> 298 30<52 52>
VStem: 53 68 61 59 180 11 228 30
LayerCount: 2
Fore
SplineSet
238 524 m 0xcb80
 242 514 258 473 258 420 c 0
 259 362 240 353 240 353 c 1
 240 353 214 332 187 376 c 0
 184 380 185 386 187 388 c 0
 202 397 242 431 224 514 c 1
 224 514 170 502 132 351 c 1
 132 351 129 342 127 326 c 1
 141 325 151 324 156 324 c 0
 157 324 159 322 159 320 c 0
 163 307 162 300 154 297 c 0
 153 297 151 295 150 296 c 0
 144 296 133 297 123 297 c 1
 122 288 121 279 121 268 c 1
 137 267 149 266 154 265 c 0
 155 265 157 264 157 262 c 0
 161 249 160 241 152 238 c 0
 150 238 149 237 147 237 c 0xd580
 141 238 130 238 120 239 c 1
 119 223 120 206 120 187 c 0xcb80
 122 133 121 92 119 62 c 1
 126 63 133 64 139 65 c 0
 160 68 174 72 180 78 c 0
 182 81 186 77 187 72 c 0
 193 50 198 8 167 4 c 0
 128 -2 76 14 60 7 c 0
 57 6 53 10 52 15 c 0
 51 17 51 20 50 22 c 0
 47 37 50 54 63 58 c 0
 65 58 67 58 69 59 c 0
 70 87 71 145 61 208 c 0
 59 219 58 229 57 240 c 1
 37 239 26 235 22 234 c 0
 20 233 18 234 17 236 c 0
 13 248 17 258 19 262 c 0
 20 264 21 265 23 266 c 0xab80
 29 268 37 270 54 270 c 1xad80
 53 279 53 289 52 298 c 1
 37 297 28 294 24 292 c 0
 22 292 20 293 19 295 c 0
 15 307 19 317 21 321 c 0
 22 323 24 324 25 324 c 0
 31 327 38 328 52 328 c 1
 53 373 57 400 57 400 c 1xcd80
 84 540 142 575 170 587 c 0
 175 588 180 588 186 585 c 0
 212 568 231 537 236 529 c 0
 236 527 237 526 238 524 c 0xcb80
EndSplineSet
EndChar

StartChar: dieresis
Encoding: 168 168 93
Width: 160
GlyphClass: 2
Flags: MW
HStem: 717 53
VStem: 12 51 12 128 89 51
LayerCount: 2
Fore
SplineSet
32 770 m 0xc0
 46 773 60 765 63 750 c 0
 65 736 57 722 43 718 c 0
 29 715 15 723 12 738 c 0
 9 752 18 766 32 770 c 0xc0
109 769 m 0x90
 123 773 137 764 140 750 c 0
 143 736 134 721 120 718 c 0
 106 714 92 723 89 737 c 0
 86 751 95 766 109 769 c 0x90
EndSplineSet
EndChar

StartChar: acute
Encoding: 180 180 94
Width: 149
GlyphClass: 2
Flags: MW
HStem: 708 57
VStem: 15 118
LayerCount: 2
Fore
SplineSet
130 733 m 0
 110 706 39 708 39 708 c 1
 22 712 17 720 15 725 c 0
 15 727 17 730 22 731 c 0
 47 737 85 761 94 765 c 0
 100 767 115 760 125 754 c 0
 133 749 136 740 130 733 c 0
EndSplineSet
EndChar

StartChar: questiondown
Encoding: 191 191 95
Width: 356
GlyphClass: 2
Flags: MW
HStem: -172 30<194 195 194 195> 0 21G 364 68<206.5 220.5> 412 20G<206.5 223.5>
VStem: 50 70 183 62<398 407> 206 35 255 50
LayerCount: 2
Fore
SplineSet
305 -27 m 0xd9
 306 -95 275 -131 250 -149 c 0
 222 -168 195 -171 194 -172 c 1
 194 -172 l 1xed
 173 -173 151 -169 132 -161 c 0xd9
 113 -152 95 -139 82 -123 c 0
 60 -96 49 -61 50 -23 c 0
 52 55 119 159 158 221 c 0
 166 234 174 245 179 254 c 0
 198 286 208 316 206 334 c 0
 206 339 208 344 212 347 c 0
 214 348 216 349 218 349 c 0
 221 349 224 347 227 345 c 0
 236 333 242 315 241 293 c 0
 241 270 235 244 224 217 c 0
 208 180 191 149 175 121 c 0
 143 61 117 14 120 -57 c 1xdb
 120 -57 121 -80 131 -102 c 0
 144 -131 166 -144 195 -142 c 1
 195 -142 l 1
 195 -142 l 1
 196 -142 222 -141 240 -118 c 0
 251 -104 256 -83 255 -57 c 0
 254 -22 235 -5 217 0 c 0
 202 5 187 1 180 -2 c 0
 177 -3 174 -2 172 1 c 0
 170 3 169 6 169 10 c 0
 171 32 181 51 199 67 c 0
 206 74 215 76 224 73 c 1
 224 73 l 1
 246 67 305 49 305 -27 c 0xd9
212 364 m 0
 195 364 182 379 183 398 c 0
 183 416 198 432 215 432 c 0
 232 432 245 416 245 398 c 0
 244 379 229 364 212 364 c 0
EndSplineSet
EndChar

StartChar: Agrave
Encoding: 192 192 96
Width: 515
GlyphClass: 2
Flags: MW
HStem: -27 26 -12 11 0 21G 0 40 30 31 59 83 238 29<249 263> 656 26<438 450>
VStem: 16 40 76 31<403 406> 364 84<230 245 116 252 116 252 116 304> 438 17
LayerCount: 2
Fore
SplineSet
497 58 m 0x97e0
 500 53 501 48 499 43 c 0
 489 17 468 6 454 1 c 0x97d0
 448 -1 442 -1 435 0 c 0
 396 6 379 33 371 58 c 1
 361 45 348 38 336 33 c 0
 312 25 276 33 242 41 c 0
 220 47 197 52 185 55 c 1
 171 27 149 -4 111 -21 c 1
 111 -21 72 -39 38 -12 c 1
 38 -12 2 17 21 79 c 1
 21 79 53 178 189 128 c 1
 236 236 l 1
 68 234 76 406 76 406 c 1
 74 494 120 606 259 621 c 0
 353 632 421 571 421 571 c 1x57d0
 437 584 445 605 447 617 c 0x97e0
 448 621 452 622 455 620 c 0x97d0
 474 608 467 586 467 586 c 2
 466 577 458 560 448 543 c 1
 447 496 448 375 448 375 c 1
 448 312 l 1
 508 302 499 253 490 228 c 0
 488 223 481 222 478 226 c 0
 471 235 460 241 448 245 c 1
 448 230 l 2
 448 183 449 135 448 116 c 0
 447 42 466 40 466 40 c 1x97e0
 475 40 483 55 486 63 c 0
 487 65 490 65 492 64 c 0xabe0
 494 62 496 60 497 58 c 0x97e0
364 304 m 1x6be0
 363 388 l 1
 363 469 l 1
 279 275 l 1
 304 283 333 295 364 304 c 1x6be0
107 403 m 1
 105 256 208 260 249 267 c 1
 359 521 l 1
 309 558 254 556 254 556 c 1
 103 553 107 403 107 403 c 1
104 3 m 0
 128 11 146 34 159 59 c 1x97e0
 142 62 125 62 112 61 c 1
 112 61 51 60 56 21 c 1
 56 21 60 -12 104 3 c 0
333 61 m 0xabe0
 351 65 364 77 366 117 c 0
 365 146 365 194 364 230 c 2
 364 252 l 1
 322 250 286 242 286 242 c 2
 278 240 271 239 263 238 c 1
 211 119 l 1
 219 115 231 109 248 99 c 0
 290 75 315 57 333 61 c 0xabe0
349 678 m 0
 342 686 342 696 348 702 c 0
 356 709 367 719 373 716 c 0
 382 712 423 687 448 682 c 0x97e0
 452 682 455 679 455 676 c 0
 455 670 453 661 438 656 c 1x97d0
 438 656 374 650 349 678 c 0
EndSplineSet
EndChar

StartChar: Aacute
Encoding: 193 193 97
Width: 515
GlyphClass: 2
Flags: MW
HStem: -27 26 -12 11 0 21G 0 40 30 31 59 83 238 29<249 263>
VStem: 16 40 76 31<403 406> 364 84<230 245 116 252 116 252 116 304>
LayerCount: 2
Fore
SplineSet
497 58 m 0x97c0
 500 53 501 48 499 43 c 0
 489 17 468 6 454 1 c 0
 448 -1 442 -1 435 0 c 0
 396 6 379 33 371 58 c 1
 361 45 348 38 336 33 c 0
 312 25 276 33 242 41 c 0
 220 47 197 52 185 55 c 1
 171 27 149 -4 111 -21 c 1
 111 -21 72 -39 38 -12 c 1
 38 -12 2 17 21 79 c 1
 21 79 53 178 189 128 c 1
 236 236 l 1
 68 234 76 406 76 406 c 1
 74 494 120 606 259 621 c 0
 353 632 421 571 421 571 c 1
 437 584 445 605 447 617 c 0
 448 621 452 622 455 620 c 0
 474 608 467 586 467 586 c 2
 466 577 458 560 448 543 c 1
 447 496 448 375 448 375 c 1
 448 312 l 1
 508 302 499 253 490 228 c 0
 488 223 481 222 478 226 c 0
 471 235 460 241 448 245 c 1
 448 230 l 2
 448 183 449 135 448 116 c 0
 447 42 466 40 466 40 c 1x57c0
 475 40 483 55 486 63 c 0
 487 65 490 65 492 64 c 0xabc0
 494 62 496 60 497 58 c 0x97c0
364 304 m 1
 363 388 l 1
 363 469 l 1
 279 275 l 1
 304 283 333 295 364 304 c 1
107 403 m 1
 105 256 208 260 249 267 c 1
 359 521 l 1
 309 558 254 556 254 556 c 1
 103 553 107 403 107 403 c 1
104 3 m 0
 128 11 146 34 159 59 c 1x97c0
 142 62 125 62 112 61 c 1xabc0
 112 61 51 60 56 21 c 1
 56 21 60 -12 104 3 c 0
333 61 m 0xabc0
 351 65 364 77 366 117 c 0
 365 146 365 194 364 230 c 2
 364 252 l 1
 322 250 286 242 286 242 c 2
 278 240 271 239 263 238 c 1
 211 119 l 1
 219 115 231 109 248 99 c 0
 290 75 315 57 333 61 c 0xabc0
465 682 m 0
 445 656 375 658 375 658 c 1
 357 661 352 669 351 674 c 0
 350 677 353 680 357 681 c 0
 383 686 421 710 429 714 c 0
 435 717 450 709 460 703 c 0
 469 698 471 690 465 682 c 0
EndSplineSet
EndChar

StartChar: Acircumflex
Encoding: 194 194 98
Width: 515
GlyphClass: 2
Flags: MW
HStem: -27 26 -12 11 0 21G 0 40 30 31 59 83 238 29<249 263>
VStem: 16 40 76 31<403 406> 364 84<230 245 116 252 116 252 116 304>
LayerCount: 2
Fore
SplineSet
497 58 m 0x97c0
 500 53 501 48 499 43 c 0
 489 17 468 6 454 1 c 0
 448 -1 442 -1 435 0 c 0
 396 6 379 33 371 58 c 1
 361 45 348 38 336 33 c 0
 312 25 276 33 242 41 c 0
 220 47 197 52 185 55 c 1
 171 27 149 -4 111 -21 c 1
 111 -21 72 -39 38 -12 c 1
 38 -12 2 17 21 79 c 1
 21 79 53 178 189 128 c 1
 236 236 l 1
 68 234 76 406 76 406 c 1
 74 494 120 606 259 621 c 0
 353 632 421 571 421 571 c 1
 437 584 445 605 447 617 c 0
 448 621 452 622 455 620 c 0
 474 608 467 586 467 586 c 2
 466 577 458 560 448 543 c 1
 447 496 448 375 448 375 c 1
 448 312 l 1
 508 302 499 253 490 228 c 0
 488 223 481 222 478 226 c 0
 471 235 460 241 448 245 c 1
 448 230 l 2
 448 183 449 135 448 116 c 0
 447 42 466 40 466 40 c 1x57c0
 475 40 483 55 486 63 c 0
 487 65 490 65 492 64 c 0xabc0
 494 62 496 60 497 58 c 0x97c0
364 304 m 1
 363 388 l 1
 363 469 l 1
 279 275 l 1
 304 283 333 295 364 304 c 1
107 403 m 1
 105 256 208 260 249 267 c 1
 359 521 l 1
 309 558 254 556 254 556 c 1
 103 553 107 403 107 403 c 1
104 3 m 0
 128 11 146 34 159 59 c 1x97c0
 142 62 125 62 112 61 c 1xabc0
 112 61 51 60 56 21 c 1
 56 21 60 -12 104 3 c 0
333 61 m 0xabc0
 351 65 364 77 366 117 c 0
 365 146 365 194 364 230 c 2
 364 252 l 1
 322 250 286 242 286 242 c 2
 278 240 271 239 263 238 c 1
 211 119 l 1
 219 115 231 109 248 99 c 0
 290 75 315 57 333 61 c 0xabc0
472 685 m 0
 476 684 479 680 479 677 c 0
 478 671 475 661 461 656 c 1
 461 656 425 651 404 676 c 1
 377 651 348 657 348 657 c 1
 334 663 330 673 329 679 c 0
 328 682 331 686 335 686 c 0
 357 691 390 713 397 717 c 0
 398 717 399 718 401 717 c 0
 402 718 403 717 404 717 c 0
 412 713 450 690 472 685 c 0
EndSplineSet
EndChar

StartChar: Atilde
Encoding: 195 195 99
Width: 515
GlyphClass: 2
Flags: MW
HStem: -27 26 -12 11 0 21G 0 40 30 31 59 83 238 29<249 263> 667 42
VStem: 16 40 76 31<403 406> 364 84<230 245 116 252 116 252 116 304>
LayerCount: 2
Fore
SplineSet
497 58 m 0x97e0
 500 53 501 48 499 43 c 0
 489 17 468 6 454 1 c 0
 448 -1 442 -1 435 0 c 0
 396 6 379 33 371 58 c 1
 361 45 348 38 336 33 c 0
 312 25 276 33 242 41 c 0
 220 47 197 52 185 55 c 1
 171 27 149 -4 111 -21 c 1
 111 -21 72 -39 38 -12 c 1
 38 -12 2 17 21 79 c 1
 21 79 53 178 189 128 c 1
 236 236 l 1
 68 234 76 406 76 406 c 1
 74 494 120 606 259 621 c 0
 353 632 421 571 421 571 c 1
 437 584 445 605 447 617 c 0
 448 621 452 622 455 620 c 0
 474 608 467 586 467 586 c 2
 466 577 458 560 448 543 c 1
 447 496 448 375 448 375 c 1
 448 312 l 1
 508 302 499 253 490 228 c 0
 488 223 481 222 478 226 c 0
 471 235 460 241 448 245 c 1
 448 230 l 2
 448 183 449 135 448 116 c 0
 447 42 466 40 466 40 c 1x57e0
 475 40 483 55 486 63 c 0
 487 65 490 65 492 64 c 0xabe0
 494 62 496 60 497 58 c 0x97e0
364 304 m 1
 363 388 l 1
 363 469 l 1
 279 275 l 1
 304 283 333 295 364 304 c 1
107 403 m 1
 105 256 208 260 249 267 c 1
 359 521 l 1
 309 558 254 556 254 556 c 1
 103 553 107 403 107 403 c 1
104 3 m 0
 128 11 146 34 159 59 c 1x97e0
 142 62 125 62 112 61 c 1xabe0
 112 61 51 60 56 21 c 1
 56 21 60 -12 104 3 c 0
333 61 m 0xabe0
 351 65 364 77 366 117 c 0
 365 146 365 194 364 230 c 2
 364 252 l 1
 322 250 286 242 286 242 c 2
 278 240 271 239 263 238 c 1
 211 119 l 1
 219 115 231 109 248 99 c 0
 290 75 315 57 333 61 c 0xabe0
480 697 m 0
 483 693 477 678 465 668 c 1
 465 668 439 646 409 656 c 0
 406 657 384 667 375 667 c 0
 360 668 357 666 345 664 c 0
 342 663 333 662 332 664 c 0
 331 669 335 680 343 688 c 1
 343 688 372 720 403 706 c 0
 405 705 418 697 426 695 c 0
 439 691 453 696 464 699 c 0
 467 699 478 701 480 697 c 0
EndSplineSet
EndChar

StartChar: Adieresis
Encoding: 196 196 100
Width: 515
GlyphClass: 2
Flags: MW
HStem: -27 26 -12 11 0 21G 0 40 30 31 59 83 238 29<249 263>
VStem: 16 40 76 31<403 406> 338 50 364 84<230 245 116 252 116 252 116 304> 415 50
LayerCount: 2
Fore
SplineSet
497 58 m 0x97a0
 500 53 501 48 499 43 c 0
 489 17 468 6 454 1 c 0
 448 -1 442 -1 435 0 c 0
 396 6 379 33 371 58 c 1
 361 45 348 38 336 33 c 0
 312 25 276 33 242 41 c 0
 220 47 197 52 185 55 c 1
 171 27 149 -4 111 -21 c 1
 111 -21 72 -39 38 -12 c 1
 38 -12 2 17 21 79 c 1
 21 79 53 178 189 128 c 1
 236 236 l 1
 68 234 76 406 76 406 c 1
 74 494 120 606 259 621 c 0
 353 632 421 571 421 571 c 1
 437 584 445 605 447 617 c 0
 448 621 452 622 455 620 c 0
 474 608 467 586 467 586 c 2
 466 577 458 560 448 543 c 1
 447 496 448 375 448 375 c 1
 448 312 l 1
 508 302 499 253 490 228 c 0
 488 223 481 222 478 226 c 0
 471 235 460 241 448 245 c 1
 448 230 l 2
 448 183 449 135 448 116 c 0
 447 42 466 40 466 40 c 1x57a0
 475 40 483 55 486 63 c 0
 487 65 490 65 492 64 c 0xaba0
 494 62 496 60 497 58 c 0x97a0
364 304 m 1
 363 388 l 1
 363 469 l 1
 279 275 l 1
 304 283 333 295 364 304 c 1
107 403 m 1
 105 256 208 260 249 267 c 1
 359 521 l 1
 309 558 254 556 254 556 c 1
 103 553 107 403 107 403 c 1
104 3 m 0
 128 11 146 34 159 59 c 1x97a0
 142 62 125 62 112 61 c 1xaba0
 112 61 51 60 56 21 c 1
 56 21 60 -12 104 3 c 0
333 61 m 0xaba0
 351 65 364 77 366 117 c 0
 365 146 365 194 364 230 c 2
 364 252 l 1
 322 250 286 242 286 242 c 2
 278 240 271 239 263 238 c 1
 211 119 l 1
 219 115 231 109 248 99 c 0
 290 75 315 57 333 61 c 0xaba0
357 708 m 0
 371 711 385 702 388 688 c 0
 391 674 382 659 368 656 c 0
 354 652 341 661 338 675 c 0x97d0
 335 690 344 704 357 708 c 0
435 707 m 0
 448 711 462 702 465 688 c 0
 468 673 459 659 445 656 c 0
 431 652 418 661 415 675 c 0
 412 689 421 704 435 707 c 0
EndSplineSet
EndChar

StartChar: Aring
Encoding: 197 197 101
Width: 515
GlyphClass: 2
Flags: MW
HStem: -27 26 -12 11 0 21G 0 40 30 31 59 83 238 29<249 263> 648 17<408.5 415.5 408.5 420> 691 16<408.5 415>
VStem: 16 40 76 31<403 406> 364 84<230 245 116 252 116 252 116 304> 383 16<678 681.5 678 686> 424 16<678 681.5>
LayerCount: 2
Fore
SplineSet
497 58 m 0x97f0
 500 53 501 48 499 43 c 0
 489 17 468 6 454 1 c 0
 448 -1 442 -1 435 0 c 0
 396 6 379 33 371 58 c 1
 361 45 348 38 336 33 c 0
 312 25 276 33 242 41 c 0
 220 47 197 52 185 55 c 1
 171 27 149 -4 111 -21 c 1
 111 -21 72 -39 38 -12 c 1
 38 -12 2 17 21 79 c 1
 21 79 53 178 189 128 c 1
 236 236 l 1
 68 234 76 406 76 406 c 1
 74 494 120 606 259 621 c 0
 353 632 421 571 421 571 c 1
 437 584 445 605 447 617 c 0
 448 621 452 622 455 620 c 0
 474 608 467 586 467 586 c 2
 466 577 458 560 448 543 c 1
 447 496 448 375 448 375 c 1
 448 312 l 1
 508 302 499 253 490 228 c 0
 488 223 481 222 478 226 c 0
 471 235 460 241 448 245 c 1
 448 230 l 2
 448 183 449 135 448 116 c 0
 447 42 466 40 466 40 c 1x57f0
 475 40 483 55 486 63 c 0
 487 65 490 65 492 64 c 0xabf0
 494 62 496 60 497 58 c 0x97f0
364 304 m 1
 363 388 l 1
 363 469 l 1
 279 275 l 1
 304 283 333 295 364 304 c 1
107 403 m 1
 105 256 208 260 249 267 c 1
 359 521 l 1
 309 558 254 556 254 556 c 1
 103 553 107 403 107 403 c 1
104 3 m 0
 128 11 146 34 159 59 c 1x97f0
 142 62 125 62 112 61 c 1xabf0
 112 61 51 60 56 21 c 1
 56 21 60 -12 104 3 c 0
333 61 m 0xabf0
 351 65 364 77 366 117 c 0
 365 146 365 194 364 230 c 2
 364 252 l 1
 322 250 286 242 286 242 c 2
 278 240 271 239 263 238 c 1
 211 119 l 1
 219 115 231 109 248 99 c 0
 290 75 315 57 333 61 c 0xabf0
411 707 m 0
 427 707 440 694 440 678 c 0
 441 662 428 648 412 648 c 0
 397 648 384 662 383 678 c 0x97ec
 383 694 395 707 411 707 c 0
412 665 m 0
 419 665 424 671 424 678 c 0
 424 685 418 691 412 691 c 0
 405 691 399 685 399 678 c 0
 400 671 405 665 412 665 c 0
EndSplineSet
EndChar

StartChar: AE
Encoding: 198 198 102
Width: 803
GlyphClass: 3
Flags: MW
HStem: -27 26<75.5 90.5> -12 21G<39 39> 0 30<584 589> 30 30<320 328> 59 83 181 31<725 725> 238 26 556 66<254 323.5> 586 35<632 693.5>
VStem: 16 40 77 31<403 406> 364 85<339 375 375 469 469 469> 365 87 516 72 537 24 703 27
LayerCount: 2
Fore
SplineSet
84 -1 m 0x96f3
 119 -1 145 31 160 59 c 1xaef3
 143 62 126 62 113 61 c 1
 113 61 52 60 56 21 c 1
 56 21 59 -1 84 -1 c 0x96f3
329 60 m 0x976b
 359 60 365 93 366 117 c 0
 366 146 365 194 365 230 c 2
 365 252 l 1
 323 250 286 242 286 242 c 2
 279 240 271 239 264 238 c 1
 212 119 l 1
 220 115 232 109 249 99 c 0
 287 77 311 60 329 60 c 0x976b
108 403 m 1
 106 285 172 264 219 264 c 0
 231 264 242 266 250 267 c 1
 360 521 l 1
 315 554 265 556 254 556 c 0
 104 553 108 403 108 403 c 1
364 304 m 1xaef3
 364 469 l 1
 280 275 l 1
 305 283 334 295 364 304 c 1xaef3
452 195 m 0xaeeb
 441 101 480 50 537 35 c 1
 538 317 l 1
 496 293 458 255 452 195 c 0xaeeb
664 581 m 2
 664 581 613 566 594 520 c 1
 659 530 708 562 703 580 c 0
 702 584 697 586 690 586 c 0
 682 586 673 584 664 581 c 2
781 173 m 0
 786 167 788 159 786 151 c 0
 765 50 676 0 579 0 c 0
 482 0 428 31 399 71 c 1
 397 73 l 1
 379 49 344 30 312 30 c 0
 292 30 267 35 243 41 c 0
 221 47 197 52 186 55 c 1
 172 27 149 -4 112 -21 c 1
 112 -21 99 -27 82 -27 c 0xaef3
 69 -27 53 -24 39 -12 c 1
 39 -12 3 17 21 79 c 1
 21 79 41 142 119 142 c 0
 138 142 162 138 189 128 c 1
 236 236 l 1
 69 234 77 406 77 406 c 1
 75 494 121 606 259 621 c 0x6ef3
 267 622 275 622 282 622 c 0xaf6b
 365 622 422 571 422 571 c 1
 438 584 445 605 448 617 c 0
 448 621 452 622 455 620 c 0
 474 608 468 586 468 586 c 1
 467 577 458 560 449 543 c 1
 448 496 449 375 449 375 c 1
 449 339 l 1
 505 378 570 391 570 391 c 1
 525 404 507 468 520 519 c 0xaef3
 537 583 600 621 664 621 c 0
 683 621 726 618 730 586 c 0
 735 548 676 506 588 491 c 1xaef5
 586 462 590 397 665 392 c 0
 671 391 675 386 674 381 c 0
 673 373 669 362 657 356 c 2
 657 356 611 351 562 329 c 1
 562 31 l 1
 570 30 579 30 589 30 c 0
 694 37 725 181 725 181 c 1
 722 184 718 187 716 189 c 0
 713 191 712 194 713 198 c 0
 713 201 715 204 716 208 c 0
 718 212 722 213 725 212 c 0
 754 199 772 183 781 173 c 0
EndSplineSet
EndChar

StartChar: Ccedilla
Encoding: 199 199 103
Width: 613
GlyphClass: 2
Flags: MW
HStem: -88 24<380.5 381.5 380.5 387> -37 23<378 390> -19 21G 0 21G<387 387.5> 0 31<387 387> 1 21G<417 417> 471 67 486 32 586 35<458 495.5>
VStem: 15 75 158 89 323 25<35 46> 388 30<-11 -5> 393 33<-48 -38>
LayerCount: 2
Fore
SplineSet
252 313 m 0xc9f8
 229 140 277 72 323 46 c 1
 324 483 l 1
 272 417 254 341 252 313 c 0xc9f8
505 580 m 0
 504 584 499 586 492 586 c 0
 475 586 446 574 446 574 c 1
 410 560 380 541 356 518 c 1
 440 516 512 558 505 580 c 0
587 179 m 0
 596 170 599 157 596 145 c 0
 566 36 465 9 417 1 c 1
 417 -2 l 2
 418 -5 418 -8 418 -11 c 0xd5f8
 417 -14 417 -16 416 -19 c 0
 420 -24 426 -34 426 -48 c 0xb5f4
 425 -71 410 -87 387 -88 c 0
 369 -88 358 -82 353 -68 c 0
 351 -64 351 -59 351 -55 c 0
 352 -48 357 -44 361 -43 c 0
 363 -43 364 -43 366 -44 c 0
 372 -45 374 -50 376 -55 c 2
 376 -56 l 2
 378 -60 380 -64 381 -64 c 0
 382 -64 386 -61 388 -58 c 0xd5f8
 394 -46 393 -38 393 -38 c 2xd5f4
 391 -37 390 -37 390 -37 c 1
 376 -39 367 -35 366 -27 c 0
 366 -23 366 -21 368 -18 c 0
 372 -14 377 -14 379 -14 c 0
 385 -14 387 -11 388 -9 c 0
 388 -1 388 0 387 0 c 0
 112 -1 162 319 162 319 c 1
 162 319 171 395 214 471 c 1
 188 466 165 463 146 457 c 0
 96 442 80 406 96 369 c 0
 105 350 122 349 133 351 c 0
 138 352 142 347 140 342 c 0
 134 330 119 314 85 318 c 0
 51 321 33 353 33 353 c 1
 8 395 -3 487 88 525 c 0
 112 535 137 538 161 538 c 0xcaf8
 192 538 223 533 255 528 c 1
 299 578 364 618 458 621 c 1
 458 621 527 627 532 586 c 0
 538 542 460 493 349 486 c 1
 348 35 l 1
 365 31 379 30 388 31 c 0
 508 40 536 181 536 181 c 1
 533 184 530 186 527 188 c 0
 524 191 523 195 524 199 c 0
 525 202 526 205 527 208 c 0
 529 211 533 213 536 212 c 0
 561 201 577 189 587 179 c 0
349 511 m 1
 349 512 l 1
 349 511 l 1
EndSplineSet
EndChar

StartChar: Egrave
Encoding: 200 200 104
Width: 563
GlyphClass: 2
Flags: MW
HStem: 0 30<344.5 349> 181 31<486 486> 476 57 586 35
VStem: 15 74 128 84 277 71 298 24<31 317> 419 17 463 28
LayerCount: 2
Fore
SplineSet
542 173 m 0xfdc0
 547 167 549 159 547 151 c 0
 514 -1 349 0 349 0 c 1
 90 -6 128 211 128 211 c 1
 143 355 331 391 331 391 c 1
 289 404 279 447 277 476 c 1
 223 466 179 461 145 452 c 0
 95 437 79 400 96 364 c 0
 104 344 121 344 133 346 c 0
 138 347 142 342 139 337 c 0
 133 325 118 309 84 312 c 0
 51 316 32 347 32 347 c 1
 8 389 -3 482 88 520 c 0
 149 545 215 528 281 519 c 1
 307 616 416 621 416 621 c 1
 416 621 485 627 491 586 c 0
 495 548 437 506 348 491 c 1xfec0
 347 462 351 397 426 392 c 0
 431 391 435 386 434 381 c 0
 433 373 429 362 417 356 c 2
 417 356 372 351 323 329 c 1
 322 31 l 1
 331 30 340 30 349 30 c 0
 455 37 486 181 486 181 c 1
 482 184 479 187 476 189 c 0
 474 191 473 194 473 198 c 0
 474 201 475 204 477 208 c 0
 478 212 482 213 486 212 c 0
 515 199 533 183 542 173 c 0xfdc0
425 581 m 1
 425 581 373 566 355 520 c 1
 420 530 469 562 463 580 c 0
 461 589 441 586 425 581 c 1
212 195 m 0
 202 101 241 50 298 35 c 1
 298 317 l 1xfdc0
 257 293 219 255 212 195 c 0
330 678 m 0
 323 686 322 696 329 702 c 0xfec0
 336 709 347 719 354 716 c 0
 362 712 404 687 428 683 c 0
 432 682 436 679 436 676 c 0
 436 670 433 661 419 656 c 1
 419 656 355 650 330 678 c 0
EndSplineSet
EndChar

StartChar: Eacute
Encoding: 201 201 105
Width: 563
GlyphClass: 2
Flags: MW
HStem: 0 30<344.5 349> 181 31<486 486> 476 57 586 35
VStem: 15 74 128 84 277 71 298 24<31 317> 463 28
LayerCount: 2
Fore
SplineSet
542 173 m 0xfd80
 547 167 549 159 547 151 c 0
 514 -1 349 0 349 0 c 1
 90 -6 128 211 128 211 c 1
 143 355 331 391 331 391 c 1
 289 404 279 447 277 476 c 1
 223 466 179 461 145 452 c 0
 95 437 79 400 96 364 c 0
 104 344 121 344 133 346 c 0
 138 347 142 342 139 337 c 0
 133 325 118 309 84 312 c 0
 51 316 32 347 32 347 c 1
 8 389 -3 482 88 520 c 0
 149 545 215 528 281 519 c 1
 307 616 416 621 416 621 c 1
 416 621 485 627 491 586 c 0
 495 548 437 506 348 491 c 1xfe80
 347 462 351 397 426 392 c 0
 431 391 435 386 434 381 c 0
 433 373 429 362 417 356 c 2
 417 356 372 351 323 329 c 1
 322 31 l 1
 331 30 340 30 349 30 c 0
 455 37 486 181 486 181 c 1
 482 184 479 187 476 189 c 0
 474 191 473 194 473 198 c 0
 474 201 475 204 477 208 c 0
 478 212 482 213 486 212 c 0
 515 199 533 183 542 173 c 0xfd80
425 581 m 1
 425 581 373 566 355 520 c 1
 420 530 469 562 463 580 c 0
 461 589 441 586 425 581 c 1
212 195 m 0
 202 101 241 50 298 35 c 1
 298 317 l 1xfd80
 257 293 219 255 212 195 c 0
447 678 m 0
 427 652 357 653 357 653 c 1
 339 657 334 665 333 670 c 0
 332 673 335 675 339 676 c 0
 365 682 403 706 411 710 c 0
 417 713 432 705 442 699 c 0
 451 694 453 685 447 678 c 0
EndSplineSet
EndChar

StartChar: Ecircumflex
Encoding: 202 202 106
Width: 563
GlyphClass: 2
Flags: MW
HStem: 0 30<344.5 349> 181 31<486 486> 476 57 586 35
VStem: 15 74 128 84 277 71 298 24<31 317> 463 28
LayerCount: 2
Fore
SplineSet
542 173 m 0xfd80
 547 167 549 159 547 151 c 0
 514 -1 349 0 349 0 c 1
 90 -6 128 211 128 211 c 1
 143 355 331 391 331 391 c 1
 289 404 279 447 277 476 c 1
 223 466 179 461 145 452 c 0
 95 437 79 400 96 364 c 0
 104 344 121 344 133 346 c 0
 138 347 142 342 139 337 c 0
 133 325 118 309 84 312 c 0
 51 316 32 347 32 347 c 1
 8 389 -3 482 88 520 c 0
 149 545 215 528 281 519 c 1
 307 616 416 621 416 621 c 1
 416 621 485 627 491 586 c 0
 495 548 437 506 348 491 c 1xfe80
 347 462 351 397 426 392 c 0
 431 391 435 386 434 381 c 0
 433 373 429 362 417 356 c 2
 417 356 372 351 323 329 c 1
 322 31 l 1
 331 30 340 30 349 30 c 0
 455 37 486 181 486 181 c 1
 482 184 479 187 476 189 c 0
 474 191 473 194 473 198 c 0
 474 201 475 204 477 208 c 0
 478 212 482 213 486 212 c 0
 515 199 533 183 542 173 c 0xfd80
425 581 m 1
 425 581 373 566 355 520 c 1
 420 530 469 562 463 580 c 0
 461 589 441 586 425 581 c 1
212 195 m 0
 202 101 241 50 298 35 c 1
 298 317 l 1xfd80
 257 293 219 255 212 195 c 0
462 683 m 0
 465 682 468 679 468 676 c 0
 467 670 464 660 450 655 c 1
 450 655 414 649 393 675 c 1
 366 650 338 656 338 656 c 1
 323 662 319 672 318 678 c 0
 318 681 320 684 324 685 c 0
 346 690 379 712 387 716 c 0
 388 716 389 716 390 716 c 0
 391 716 392 716 393 716 c 0
 401 711 439 689 462 683 c 0
EndSplineSet
EndChar

StartChar: Edieresis
Encoding: 203 203 107
Width: 563
GlyphClass: 2
Flags: MW
HStem: 0 30<344.5 349> 181 31<486 486> 476 57 586 35
VStem: 15 74 128 84 277 71 298 24<31 317> 346 50 423 50 463 28
LayerCount: 2
Fore
SplineSet
542 173 m 0xfdc0
 547 167 549 159 547 151 c 0
 514 -1 349 0 349 0 c 1
 90 -6 128 211 128 211 c 1
 143 355 331 391 331 391 c 1
 289 404 279 447 277 476 c 1
 223 466 179 461 145 452 c 0
 95 437 79 400 96 364 c 0
 104 344 121 344 133 346 c 0
 138 347 142 342 139 337 c 0
 133 325 118 309 84 312 c 0
 51 316 32 347 32 347 c 1
 8 389 -3 482 88 520 c 0
 149 545 215 528 281 519 c 1
 307 616 416 621 416 621 c 1
 416 621 485 627 491 586 c 0
 495 548 437 506 348 491 c 1xfe20
 347 462 351 397 426 392 c 0
 431 391 435 386 434 381 c 0
 433 373 429 362 417 356 c 2
 417 356 372 351 323 329 c 1
 322 31 l 1
 331 30 340 30 349 30 c 0
 455 37 486 181 486 181 c 1
 482 184 479 187 476 189 c 0
 474 191 473 194 473 198 c 0
 474 201 475 204 477 208 c 0
 478 212 482 213 486 212 c 0
 515 199 533 183 542 173 c 0xfdc0
425 581 m 1
 425 581 373 566 355 520 c 1
 420 530 469 562 463 580 c 0
 461 589 441 586 425 581 c 1
212 195 m 0
 202 101 241 50 298 35 c 1
 298 317 l 1xfda0
 257 293 219 255 212 195 c 0
366 708 m 0
 379 711 393 703 396 689 c 0xfdc0
 399 674 390 660 376 656 c 0xfe20
 363 653 349 662 346 676 c 0
 343 690 352 704 366 708 c 0
443 708 m 0
 456 711 470 702 473 688 c 0
 476 674 467 660 453 656 c 0
 440 652 426 661 423 675 c 0
 420 690 429 704 443 708 c 0
EndSplineSet
EndChar

StartChar: Igrave
Encoding: 204 204 108
Width: 357
GlyphClass: 2
Flags: MW
HStem: -34 24 -29 19 -20 10 6 70 45 80 536 86
VStem: 16 38 55 30 159 25<105 114> 208 81 276 17
LayerCount: 2
Fore
SplineSet
328 90 m 0x8fc0
 334 95 342 91 342 84 c 0
 341 38 306 2 264 6 c 0
 231 8 184 26 171 31 c 1
 162 8 144 -16 108 -29 c 1x57c0
 108 -29 72 -45 40 -20 c 1x2fc0
 40 -20 4 5 19 61 c 1
 19 61 42 156 159 114 c 1
 160 542 l 1
 149 548 140 558 127 555 c 0
 99 545 86 524 85 511 c 0
 84 497 95 492 102 490 c 0
 105 489 107 485 105 482 c 0
 103 478 100 475 98 473 c 0
 94 471 90 470 86 471 c 0
 71 474 38 490 65 544 c 0
 77 568 91 586 103 600 c 0
 120 619 141 630 177 614 c 0
 192 607 211 601 230 599 c 0
 257 596 277 597 291 599 c 0
 299 599 305 592 302 584 c 0
 295 565 290 533 289 482 c 2x97c0
 289 482 293 272 290 192 c 0
 288 141 251 111 219 94 c 1
 230 90 243 86 258 81 c 0
 294 70 316 80 328 90 c 0x8fc0
260 550 m 1
 231 537 207 534 185 536 c 1
 184 105 l 2
 185 104 187 104 189 103 c 1
 209 146 208 196 208 196 c 1
 208 196 205 419 207 458 c 0
 209 508 238 533 260 550 c 1
100 -7 m 0
 123 1 138 16 147 40 c 1
 134 44 121 46 105 45 c 1
 105 45 48 44 54 9 c 1x2fa0
 54 9 60 -21 100 -7 c 0
187 678 m 0
 180 686 179 696 186 702 c 0
 193 709 205 719 211 716 c 0
 220 712 261 687 286 683 c 0x8fc0
 290 682 293 679 293 676 c 0
 293 670 290 661 276 656 c 1
 276 656 212 650 187 678 c 0
EndSplineSet
EndChar

StartChar: Iacute
Encoding: 205 205 109
Width: 357
GlyphClass: 2
Flags: MW
HStem: -34 24 -29 19 -20 10 6 70 45 80 536 86
VStem: 16 38 55 30 159 25<105 114> 208 81
LayerCount: 2
Fore
SplineSet
328 90 m 0x97c0
 334 95 342 91 342 84 c 0
 341 38 306 2 264 6 c 0
 231 8 184 26 171 31 c 1
 162 8 144 -16 108 -29 c 1x57c0
 108 -29 72 -45 40 -20 c 1x2fc0
 40 -20 4 5 19 61 c 1
 19 61 42 156 159 114 c 1
 160 542 l 1
 149 548 140 558 127 555 c 0
 99 545 86 524 85 511 c 0
 84 497 95 492 102 490 c 0
 105 489 107 485 105 482 c 0
 103 478 100 475 98 473 c 0
 94 471 90 470 86 471 c 0
 71 474 38 490 65 544 c 0
 77 568 91 586 103 600 c 0
 120 619 141 630 177 614 c 0
 192 607 211 601 230 599 c 0
 257 596 277 597 291 599 c 0
 299 599 305 592 302 584 c 0
 295 565 290 533 289 482 c 2
 289 482 293 272 290 192 c 0
 288 141 251 111 219 94 c 1
 230 90 243 86 258 81 c 0
 294 70 316 80 328 90 c 0x97c0
260 550 m 1
 231 537 207 534 185 536 c 1
 184 105 l 2
 185 104 187 104 189 103 c 1
 209 146 208 196 208 196 c 1
 208 196 205 419 207 458 c 0
 209 508 238 533 260 550 c 1
100 -7 m 0
 123 1 138 16 147 40 c 1
 134 44 121 46 105 45 c 1
 105 45 48 44 54 9 c 1x2fc0
 54 9 60 -21 100 -7 c 0
301 675 m 0
 281 649 210 650 210 650 c 1
 193 654 188 662 186 667 c 0
 186 670 188 672 193 673 c 0
 218 679 256 703 265 707 c 0
 271 710 286 702 296 696 c 0
 304 691 307 683 301 675 c 0
EndSplineSet
EndChar

StartChar: Icircumflex
Encoding: 206 206 110
Width: 357
GlyphClass: 2
Flags: MW
HStem: -34 24 -29 19 -20 10 6 70 45 80 536 86
VStem: 16 38 55 30 159 25<105 114> 208 81
LayerCount: 2
Fore
SplineSet
328 90 m 0x97c0
 334 95 342 91 342 84 c 0
 341 38 306 2 264 6 c 0
 231 8 184 26 171 31 c 1
 162 8 144 -16 108 -29 c 1x57c0
 108 -29 72 -45 40 -20 c 1x2fc0
 40 -20 4 5 19 61 c 1
 19 61 42 156 159 114 c 1
 160 542 l 1
 149 548 140 558 127 555 c 0
 99 545 86 524 85 511 c 0
 84 497 95 492 102 490 c 0
 105 489 107 485 105 482 c 0
 103 478 100 475 98 473 c 0
 94 471 90 470 86 471 c 0
 71 474 38 490 65 544 c 0
 77 568 91 586 103 600 c 0
 120 619 141 630 177 614 c 0
 192 607 211 601 230 599 c 0
 257 596 277 597 291 599 c 0
 299 599 305 592 302 584 c 0
 295 565 290 533 289 482 c 2
 289 482 293 272 290 192 c 0
 288 141 251 111 219 94 c 1
 230 90 243 86 258 81 c 0
 294 70 316 80 328 90 c 0x97c0
260 550 m 1
 231 537 207 534 185 536 c 1
 184 105 l 2
 185 104 187 104 189 103 c 1
 209 146 208 196 208 196 c 1
 208 196 205 419 207 458 c 0
 209 508 238 533 260 550 c 1
100 -7 m 0
 123 1 138 16 147 40 c 1
 134 44 121 46 105 45 c 1
 105 45 48 44 54 9 c 1x2fc0
 54 9 60 -21 100 -7 c 0
309 685 m 0
 313 684 316 680 316 677 c 0
 315 671 312 661 298 656 c 1
 298 656 262 651 241 676 c 1
 214 651 185 657 185 657 c 1
 171 663 167 673 166 679 c 0
 165 682 168 686 172 686 c 0
 194 691 227 713 235 717 c 1
 235 717 237 718 238 717 c 1
 239 718 240 717 241 717 c 0
 249 713 287 690 309 685 c 0
EndSplineSet
EndChar

StartChar: Idieresis
Encoding: 207 207 111
Width: 357
GlyphClass: 2
Flags: MW
HStem: -34 24 -29 19 -20 10 6 70 45 80 536 86
VStem: 16 38 55 30 159 25<105 114> 182 50 208 81 259 50
LayerCount: 2
Fore
SplineSet
328 90 m 0x97a0
 334 95 342 91 342 84 c 0
 341 38 306 2 264 6 c 0
 231 8 184 26 171 31 c 1
 162 8 144 -16 108 -29 c 1x5790
 108 -29 72 -45 40 -20 c 1x2fa0
 40 -20 4 5 19 61 c 1
 19 61 42 156 159 114 c 1
 160 542 l 1
 149 548 140 558 127 555 c 0
 99 545 86 524 85 511 c 0
 84 497 95 492 102 490 c 0
 105 489 107 485 105 482 c 0
 103 478 100 475 98 473 c 0
 94 471 90 470 86 471 c 0
 71 474 38 490 65 544 c 0
 77 568 91 586 103 600 c 0
 120 619 141 630 177 614 c 0
 192 607 211 601 230 599 c 0
 257 596 277 597 291 599 c 0
 299 599 305 592 302 584 c 0
 295 565 290 533 289 482 c 2
 289 482 293 272 290 192 c 0
 288 141 251 111 219 94 c 1
 230 90 243 86 258 81 c 0
 294 70 316 80 328 90 c 0x97a0
260 550 m 1
 231 537 207 534 185 536 c 1
 184 105 l 2
 185 104 187 104 189 103 c 1
 209 146 208 196 208 196 c 1
 208 196 205 419 207 458 c 0x8fa0
 209 508 238 533 260 550 c 1
100 -7 m 0
 123 1 138 16 147 40 c 1
 134 44 121 46 105 45 c 1
 105 45 48 44 54 9 c 1x2f50
 54 9 60 -21 100 -7 c 0
201 708 m 0
 215 711 229 703 232 689 c 0x8f50
 235 674 226 660 212 656 c 0x8fa0
 198 653 185 662 182 676 c 0
 179 690 187 704 201 708 c 0
278 708 m 0
 292 711 306 702 309 688 c 0x8f90
 312 674 303 660 289 656 c 0x8fa0
 275 652 262 661 259 675 c 0
 256 690 264 704 278 708 c 0
EndSplineSet
EndChar

StartChar: Ntilde
Encoding: 209 209 112
Width: 592
GlyphClass: 2
Flags: MW
HStem: -44 26 -29 11 0 40 44 88 304 38 385 24 501 58 507 41<352 397> 667 42
VStem: 16 69 68 40 78 63 175 84 322 32 326 25<63 77> 442 83<230 425>
LayerCount: 2
Fore
SplineSet
574 58 m 0xbeab
 577 53 578 48 576 43 c 0
 566 17 545 6 531 1 c 0
 525 -1 519 -1 512 0 c 0
 449 10 443 72 443 96 c 0
 443 115 442 183 441 230 c 2
 442 385 l 2
 442 465 397 508 352 507 c 1xbdab
 351 63 l 2
 347 40 328 15 311 3 c 0
 305 -1 297 -1 291 3 c 0
 281 11 261 23 235 33 c 1
 221 7 199 -22 164 -38 c 1
 164 -38 124 -56 91 -29 c 1x7eab
 91 -29 55 0 73 62 c 1
 73 62 104 170 232 118 c 1
 232 118 l 1
 241 156 199 178 181 285 c 1
 156 271 144 248 141 223 c 0
 140 206 143 194 147 185 c 0
 149 180 145 175 140 176 c 0
 70 186 78 251 78 251 c 1xbe9b
 86 308 126 332 175 341 c 1
 174 439 253 491 277 505 c 1
 250 494 194 508 157 508 c 0xbdcb
 105 507 80 477 85 437 c 0
 88 413 103 409 115 409 c 0
 120 409 122 402 119 399 c 0
 109 389 90 378 59 391 c 0
 27 404 19 439 19 439 c 1
 7 486 23 574 120 589 c 0
 187 599 226 575 250 564 c 0
 274 553 313 557 319 576 c 0xbecd
 324 594 321 606 318 613 c 0
 316 617 320 622 324 622 c 0
 335 621 342 617 347 613 c 0xbeab
 351 610 354 604 354 599 c 2
 354 548 l 1xbdad
 440 548 520 525 525 381 c 1
 525 230 l 1
 525 230 l 1
 524 180 524 133 524 115 c 0
 524 43 543 40 543 40 c 1
 552 40 560 55 563 63 c 0
 564 65 567 65 569 64 c 0
 571 62 573 60 574 58 c 0xbeab
327 503 m 1
 276 486 249 406 262 342 c 1
 286 339 309 334 327 330 c 1
 327 503 l 1
157 -14 m 0
 180 -6 198 16 211 40 c 1
 196 43 181 45 165 44 c 1
 165 44 104 43 108 4 c 1x7eab
 108 4 113 -29 157 -14 c 0
260 107 m 1
 278 100 304 89 326 77 c 1
 327 299 l 1
 306 302 286 304 269 304 c 1
 279 241 274 173 269 140 c 0
 267 122 263 113 260 107 c 1
444 697 m 0
 447 693 441 678 429 668 c 1
 429 668 403 646 373 656 c 0
 370 657 348 667 339 667 c 0
 324 668 321 666 309 664 c 0
 306 663 297 662 296 664 c 0
 295 669 299 680 306 688 c 1
 306 688 336 720 367 706 c 0
 369 705 382 697 390 695 c 0
 403 691 416 696 428 699 c 0
 431 699 442 701 444 697 c 0
EndSplineSet
EndChar

StartChar: Ograve
Encoding: 210 210 113
Width: 566
GlyphClass: 2
Flags: MW
HStem: -4 21G 516 47 530 85
VStem: 17 64<478 478> 74 75 208 62 310 25<88 89> 377 17 491 60
LayerCount: 2
Fore
SplineSet
416 547 m 0xaf80
 452 530 556 464 551 286 c 0
 545 85 372 79 334 9 c 0
 328 -2 315 -7 302 -4 c 0
 136 44 58 154 77 293 c 0
 99 455 267 487 311 492 c 1
 311 519 l 1
 306 518 300 516 294 516 c 0xcf80
 260 513 220 523 162 530 c 0
 110 535 81 509 81 468 c 0
 81 447 94 439 105 437 c 0
 111 436 113 427 107 424 c 0
 96 416 77 411 50 426 c 0
 20 443 17 478 17 478 c 1
 11 527 37 612 136 615 c 0xb780
 203 616 239 588 262 573 c 0xcf80
 291 554 324 563 335 583 c 0
 342 595 341 605 338 612 c 0
 336 617 340 622 345 620 c 0
 358 615 368 604 368 586 c 0
 369 576 367 565 362 557 c 0
 356 547 347 537 336 530 c 1
 336 494 l 1
 348 496 386 506 400 541 c 0
 402 547 410 550 416 547 c 0xaf80
149 299 m 0
 143 221 170 170 205 138 c 1
 207 143 207 150 208 162 c 0
 208 211 208 261 208 261 c 1
 208 261 206 326 208 351 c 0
 213 404 260 444 287 463 c 1
 238 452 158 417 149 299 c 0
225 122 m 1
 255 102 287 92 310 89 c 1
 311 449 l 1
 292 440 269 411 269 349 c 2
 269 349 271 231 269 180 c 0
 268 142 245 127 225 122 c 1
491 275 m 1
 491 275 499 446 336 462 c 1
 335 88 l 1
 372 91 491 110 491 275 c 1
288 678 m 0
 281 686 280 696 287 702 c 0
 294 709 305 719 312 716 c 0
 321 712 362 687 386 683 c 0
 391 682 394 679 394 676 c 0
 394 670 391 661 377 656 c 1
 377 656 313 650 288 678 c 0
EndSplineSet
EndChar

StartChar: Oacute
Encoding: 211 211 114
Width: 566
GlyphClass: 2
Flags: MW
HStem: -4 21G 516 47 530 85
VStem: 17 64<478 478> 74 75 208 62 310 25<88 89> 491 60
LayerCount: 2
Fore
SplineSet
416 547 m 0xaf
 452 530 556 464 551 286 c 0
 545 85 372 79 334 9 c 0
 328 -2 315 -7 302 -4 c 0
 136 44 58 154 77 293 c 0
 99 455 267 487 311 492 c 1
 311 519 l 1
 306 518 300 516 294 516 c 0xcf
 260 513 220 523 162 530 c 0
 110 535 81 509 81 468 c 0
 81 447 94 439 105 437 c 0
 111 436 113 427 107 424 c 0
 96 416 77 411 50 426 c 0
 20 443 17 478 17 478 c 1
 11 527 37 612 136 615 c 0xb7
 203 616 239 588 262 573 c 0xcf
 291 554 324 563 335 583 c 0
 342 595 341 605 338 612 c 0
 336 617 340 622 345 620 c 0
 358 615 368 604 368 586 c 0
 369 576 367 565 362 557 c 0
 356 547 347 537 336 530 c 1
 336 494 l 1
 348 496 386 506 400 541 c 0
 402 547 410 550 416 547 c 0xaf
149 299 m 0
 143 221 170 170 205 138 c 1
 207 143 207 150 208 162 c 0
 208 211 208 261 208 261 c 1
 208 261 206 326 208 351 c 0
 213 404 260 444 287 463 c 1
 238 452 158 417 149 299 c 0
225 122 m 1
 255 102 287 92 310 89 c 1
 311 449 l 1
 292 440 269 411 269 349 c 2
 269 349 271 231 269 180 c 0
 268 142 245 127 225 122 c 1
491 275 m 1
 491 275 499 446 336 462 c 1
 335 88 l 1
 372 91 491 110 491 275 c 1
392 678 m 0
 372 652 302 653 302 653 c 1
 285 657 279 665 278 670 c 0
 277 673 280 675 284 676 c 0
 310 682 348 706 356 710 c 0
 362 713 377 705 387 699 c 0
 396 694 398 685 392 678 c 0
EndSplineSet
EndChar

StartChar: Ocircumflex
Encoding: 212 212 115
Width: 566
GlyphClass: 2
Flags: MW
HStem: -4 21G 516 47 530 85
VStem: 17 64<478 478> 74 75 208 62 310 25<88 89> 398 17 491 60
LayerCount: 2
Fore
SplineSet
416 547 m 0xaf80
 452 530 556 464 551 286 c 0
 545 85 372 79 334 9 c 0
 328 -2 315 -7 302 -4 c 0
 136 44 58 154 77 293 c 0
 99 455 267 487 311 492 c 1
 311 519 l 1
 306 518 300 516 294 516 c 0xcf80
 260 513 220 523 162 530 c 0
 110 535 81 509 81 468 c 0
 81 447 94 439 105 437 c 0
 111 436 113 427 107 424 c 0
 96 416 77 411 50 426 c 0
 20 443 17 478 17 478 c 1
 11 527 37 612 136 615 c 0xb780
 203 616 239 588 262 573 c 0xcf80
 291 554 324 563 335 583 c 0
 342 595 341 605 338 612 c 0
 336 617 340 622 345 620 c 0
 358 615 368 604 368 586 c 0
 369 576 367 565 362 557 c 0
 356 547 347 537 336 530 c 1
 336 494 l 1
 348 496 386 506 400 541 c 0
 402 547 410 550 416 547 c 0xaf80
149 299 m 0
 143 221 170 170 205 138 c 1
 207 143 207 150 208 162 c 0
 208 211 208 261 208 261 c 1
 208 261 206 326 208 351 c 0
 213 404 260 444 287 463 c 1
 238 452 158 417 149 299 c 0
225 122 m 1
 255 102 287 92 310 89 c 1
 311 449 l 1
 292 440 269 411 269 349 c 2
 269 349 271 231 269 180 c 0
 268 142 245 127 225 122 c 1
491 275 m 1
 491 275 499 446 336 462 c 1
 335 88 l 1
 372 91 491 110 491 275 c 1
409 685 m 0
 413 684 416 680 415 677 c 0
 415 671 412 661 398 656 c 1
 398 656 361 651 340 676 c 1
 313 651 285 657 285 657 c 1
 271 663 267 673 266 679 c 0
 265 682 268 686 271 686 c 0
 294 691 327 713 334 717 c 0
 335 717 336 718 337 717 c 0
 339 718 340 717 341 717 c 0
 349 713 386 690 409 685 c 0
EndSplineSet
EndChar

StartChar: Otilde
Encoding: 213 213 116
Width: 566
GlyphClass: 2
Flags: MW
HStem: -4 21G 516 47 530 85 666 42
VStem: 17 64<478 478> 74 75 208 62 310 25<88 89> 491 60
LayerCount: 2
Fore
SplineSet
416 547 m 0xb780
 452 530 556 464 551 286 c 0
 545 85 372 79 334 9 c 0
 328 -2 315 -7 302 -4 c 0
 136 44 58 154 77 293 c 0
 99 455 267 487 311 492 c 1
 311 519 l 1
 306 518 300 516 294 516 c 0xd780
 260 513 220 523 162 530 c 0
 110 535 81 509 81 468 c 0
 81 447 94 439 105 437 c 0
 111 436 113 427 107 424 c 0
 96 416 77 411 50 426 c 0
 20 443 17 478 17 478 c 1
 11 527 37 612 136 615 c 0xbb80
 203 616 239 588 262 573 c 0xd780
 291 554 324 563 335 583 c 0
 342 595 341 605 338 612 c 0
 336 617 340 622 345 620 c 0
 358 615 368 604 368 586 c 0
 369 576 367 565 362 557 c 0
 356 547 347 537 336 530 c 1
 336 494 l 1
 348 496 386 506 400 541 c 0
 402 547 410 550 416 547 c 0xb780
149 299 m 0
 143 221 170 170 205 138 c 1
 207 143 207 150 208 162 c 0
 208 211 208 261 208 261 c 1
 208 261 206 326 208 351 c 0
 213 404 260 444 287 463 c 1
 238 452 158 417 149 299 c 0
225 122 m 1
 255 102 287 92 310 89 c 1
 311 449 l 1
 292 440 269 411 269 349 c 2
 269 349 271 231 269 180 c 0
 268 142 245 127 225 122 c 1
491 275 m 1
 491 275 499 446 336 462 c 1
 335 88 l 1
 372 91 491 110 491 275 c 1
426 696 m 0
 429 692 423 677 411 667 c 1
 411 667 385 645 355 655 c 0
 352 656 330 666 321 666 c 0
 306 667 303 665 291 663 c 0
 288 662 279 661 278 663 c 0
 277 668 281 679 288 687 c 1
 288 687 318 719 349 705 c 0
 351 704 364 696 372 694 c 0
 385 690 399 696 410 698 c 0
 413 698 424 700 426 696 c 0
EndSplineSet
EndChar

StartChar: Odieresis
Encoding: 214 214 117
Width: 566
GlyphClass: 2
Flags: MW
HStem: -4 21G 516 47 530 85
VStem: 17 64<478 478> 74 75 208 62 278 50 310 25<88 89> 355 50 491 60
LayerCount: 2
Fore
SplineSet
416 547 m 0xadc0
 452 530 556 464 551 286 c 0
 545 85 372 79 334 9 c 0xaec0
 328 -2 315 -7 302 -4 c 0
 136 44 58 154 77 293 c 0
 99 455 267 487 311 492 c 1
 311 519 l 1
 306 518 300 516 294 516 c 0xcdc0
 260 513 220 523 162 530 c 0
 110 535 81 509 81 468 c 0
 81 447 94 439 105 437 c 0
 111 436 113 427 107 424 c 0
 96 416 77 411 50 426 c 0
 20 443 17 478 17 478 c 1
 11 527 37 612 136 615 c 0xb5c0
 203 616 239 588 262 573 c 0xcdc0
 291 554 324 563 335 583 c 0
 342 595 341 605 338 612 c 0
 336 617 340 622 345 620 c 0
 358 615 368 604 368 586 c 0
 369 576 367 565 362 557 c 0
 356 547 347 537 336 530 c 1
 336 494 l 1
 348 496 386 506 400 541 c 0
 402 547 410 550 416 547 c 0xadc0
149 299 m 0
 143 221 170 170 205 138 c 1
 207 143 207 150 208 162 c 0
 208 211 208 261 208 261 c 1
 208 261 206 326 208 351 c 0
 213 404 260 444 287 463 c 1
 238 452 158 417 149 299 c 0
225 122 m 1
 255 102 287 92 310 89 c 1
 311 449 l 1xadc0
 292 440 269 411 269 349 c 2
 269 349 271 231 269 180 c 0
 268 142 245 127 225 122 c 1
491 275 m 1
 491 275 499 446 336 462 c 1
 335 88 l 1
 372 91 491 110 491 275 c 1
297 708 m 0
 311 711 325 703 328 689 c 0
 331 674 322 660 308 656 c 0
 294 653 280 662 278 676 c 0xaec0
 275 690 283 704 297 708 c 0
374 708 m 0
 388 711 402 702 405 688 c 0
 408 674 399 660 385 656 c 0
 371 652 358 661 355 675 c 0
 352 690 360 704 374 708 c 0
EndSplineSet
EndChar

StartChar: multiply
Encoding: 215 215 118
Width: 155
GlyphClass: 2
Flags: MW
HStem: 178 22
VStem: 25 106
LayerCount: 2
Fore
SplineSet
138 266 m 0
 140 263 139 260 136 259 c 0
 128 258 115 251 101 238 c 1
 113 227 124 217 127 212 c 0
 140 193 117 173 105 165 c 0
 103 163 100 164 99 167 c 0
 98 177 89 193 75 211 c 1
 72 207 69 203 66 199 c 0
 37 161 21 184 16 195 c 0
 15 197 15 200 17 200 c 0
 24 203 38 219 51 236 c 0
 49 238 47 240 44 243 c 0
 10 273 31 290 41 296 c 0
 43 298 45 297 46 295 c 0
 49 288 60 277 73 264 c 1
 82 276 90 285 95 289 c 0
 113 303 131 278 138 266 c 0
EndSplineSet
EndChar

StartChar: Oslash
Encoding: 216 216 119
Width: 566
GlyphClass: 2
Flags: MW
HStem: -4 21G 462 30<311 336> 516 47 530 85
VStem: 17 64<478 478> 74 75 208 62<229 261 261 349 229 351> 310 25<89 209 209 209> 487 42 491 60
LayerCount: 2
Fore
SplineSet
149 299 m 0xd740
 143 223 169 172 203 140 c 1
 204 142 205 143 207 145 c 0
 207 149 207 155 208 162 c 0
 208 211 208 261 208 261 c 1
 208 261 206 326 208 351 c 0
 213 404 260 444 287 463 c 1
 238 452 158 417 149 299 c 0xd740
247 132 m 2
 234 116 l 1
 261 100 289 92 310 89 c 1
 310 209 l 1
 294 189 278 170 262 150 c 0
 258 142 253 137 247 132 c 2
310 282 m 1
 311 449 l 1
 292 440 270 411 270 349 c 2
 270 349 270 284 270 229 c 1
 283 247 297 265 310 282 c 1
336 462 m 1
 335 314 l 1
 365 352 396 390 428 427 c 1
 406 445 376 458 336 462 c 1
491 275 m 1
 491 275 494 342 456 395 c 1
 434 368 412 340 390 312 c 0
 376 294 361 274 345 254 c 2
 335 241 l 1
 335 88 l 1
 372 91 491 110 491 275 c 1
416 547 m 0
 432 540 460 523 487 492 c 1xd780
 489 494 491 496 494 498 c 0
 506 509 519 519 524 516 c 0
 531 510 531 500 523 483 c 0
 520 477 515 470 509 461 c 1
 534 421 553 365 551 286 c 0
 545 85 372 79 334 9 c 0
 328 -2 315 -7 302 -4 c 0
 255 10 214 29 181 52 c 1
 154 20 144 18 138 20 c 1
 138 20 134 21 135 28 c 0
 136 35 138 45 155 72 c 1
 92 129 65 205 77 293 c 0
 99 455 267 487 311 492 c 1
 311 519 l 1
 306 518 300 517 294 516 c 0xe740
 260 513 220 523 162 530 c 0
 110 535 81 509 81 468 c 0xdb40
 81 447 94 439 105 437 c 0
 111 436 113 427 107 424 c 0
 101 420 93 416 83 416 c 0xd740
 74 416 63 419 51 426 c 0
 20 443 17 478 17 478 c 1
 11 527 37 612 136 615 c 0xdb40
 203 617 239 588 262 573 c 0
 273 566 285 563 296 563 c 0xe740
 313 563 328 571 335 583 c 0
 342 595 341 605 338 612 c 0
 336 617 340 622 345 620 c 0
 358 615 368 604 368 587 c 0
 369 576 367 565 362 557 c 0
 356 547 347 537 336 530 c 1
 336 494 l 1
 348 496 386 506 400 541 c 0
 402 547 410 550 416 547 c 0
EndSplineSet
EndChar

StartChar: Ugrave
Encoding: 217 217 120
Width: 642
GlyphClass: 2
Flags: MW
HStem: 0 40 0 63 120 12<353 353> 508 50 528 51
VStem: 16 68 136 82 328 25<63 63> 380 63 450 17 467 84<230 375 230 388 230 453 230 453> 614 13
LayerCount: 2
Fore
SplineSet
622 594 m 0x6fb0
 629 577 633 544 606 532 c 0
 580 520 552 542 552 542 c 1
 550 519 551 375 551 375 c 1
 551 230 l 2
 552 183 552 135 552 116 c 0
 550 42 569 40 569 40 c 1xb7b0
 578 40 586 55 589 63 c 0
 590 65 593 65 595 64 c 0
 598 62 599 59 601 57 c 0
 603 53 604 48 602 43 c 0
 592 17 571 6 557 1 c 0
 551 -1 545 -1 539 0 c 0
 476 10 469 72 469 96 c 0
 469 100 469 106 469 113 c 1
 451 62 413 1 326 0 c 0
 104 -4 136 256 136 256 c 1
 152 406 243 481 292 512 c 1
 291 511 290 511 289 511 c 0
 255 504 215 509 156 508 c 0
 104 506 79 477 84 437 c 0
 87 415 100 410 111 409 c 0
 118 408 120 400 116 396 c 0
 105 387 87 379 59 391 c 0
 27 404 19 439 19 439 c 1
 7 486 23 574 120 589 c 0
 186 599 226 575 250 564 c 0
 282 549 313 562 322 582 c 0
 327 596 324 605 320 612 c 0
 318 617 322 622 327 621 c 0
 340 617 351 608 354 590 c 0
 355 584 355 578 354 572 c 2
 353 132 l 1
 368 137 380 153 381 200 c 0
 381 249 380 258 380 258 c 1
 380 258 379 325 381 350 c 0
 388 420 455 462 467 468 c 1
 467 542 l 2x77b0
 467 550 469 558 473 564 c 0
 480 578 496 601 525 620 c 0
 533 625 545 623 550 614 c 0
 561 599 579 577 599 579 c 0
 607 580 612 586 614 594 c 0
 615 598 621 598 622 594 c 0x6fb0
224 285 m 0
 196 121 268 69 328 63 c 1x77b0
 329 513 l 1
 306 490 247 422 224 285 c 0
353 63 m 1
 422 69 463 117 468 213 c 0
 467 218 467 224 467 230 c 2
 467 388 l 1
 467 453 l 1
 452 442 443 408 443 348 c 2
 443 348 444 261 442 209 c 0
 441 153 389 118 353 120 c 1
 353 63 l 1
361 678 m 0
 354 686 354 696 360 702 c 0
 368 709 379 719 385 716 c 0
 394 712 435 687 460 683 c 0
 464 682 467 679 467 676 c 0
 467 670 465 661 450 656 c 1x77d0
 450 656 387 650 361 678 c 0
EndSplineSet
EndChar

StartChar: Uacute
Encoding: 218 218 121
Width: 642
GlyphClass: 2
Flags: MW
HStem: 0 40 0 63 120 12<353 353> 508 50 528 51 655 56
VStem: 16 68 136 82 328 25<63 63> 380 63 467 84<230 375 230 388 230 453 230 453> 614 13
LayerCount: 2
Fore
SplineSet
622 594 m 0x6ff0
 629 577 633 544 606 532 c 0
 580 520 552 542 552 542 c 1
 550 519 551 375 551 375 c 1
 551 230 l 2
 552 183 552 135 552 116 c 0
 550 42 569 40 569 40 c 1xb7f0
 578 40 586 55 589 63 c 0
 590 65 593 65 595 64 c 0
 598 62 599 59 601 57 c 0
 603 53 604 48 602 43 c 0
 592 17 571 6 557 1 c 0
 551 -1 545 -1 539 0 c 0
 476 10 469 72 469 96 c 0
 469 100 469 106 469 113 c 1
 451 62 413 1 326 0 c 0
 104 -4 136 256 136 256 c 1
 152 406 243 481 292 512 c 1
 291 511 290 511 289 511 c 0
 255 504 215 509 156 508 c 0
 104 506 79 477 84 437 c 0
 87 415 100 410 111 409 c 0
 118 408 120 400 116 396 c 0
 105 387 87 379 59 391 c 0
 27 404 19 439 19 439 c 1
 7 486 23 574 120 589 c 0
 186 599 226 575 250 564 c 0
 282 549 313 562 322 582 c 0
 327 596 324 605 320 612 c 0
 318 617 322 622 327 621 c 0
 340 617 351 608 354 590 c 0
 355 584 355 578 354 572 c 2
 353 132 l 1
 368 137 380 153 381 200 c 0
 381 249 380 258 380 258 c 1
 380 258 379 325 381 350 c 0
 388 420 455 462 467 468 c 1
 467 542 l 2x77f0
 467 550 469 558 473 564 c 0
 480 578 496 601 525 620 c 0
 533 625 545 623 550 614 c 0
 561 599 579 577 599 579 c 0
 607 580 612 586 614 594 c 0
 615 598 621 598 622 594 c 0x6ff0
224 285 m 0
 196 121 268 69 328 63 c 1x77f0
 329 513 l 1
 306 490 247 422 224 285 c 0
353 63 m 1
 422 69 463 117 468 213 c 0
 467 218 467 224 467 230 c 2
 467 388 l 1
 467 453 l 1
 452 442 443 408 443 348 c 2
 443 348 444 261 442 209 c 0
 441 153 389 118 353 120 c 1
 353 63 l 1
462 679 m 0
 442 653 371 655 371 655 c 1
 354 659 349 666 348 671 c 0
 347 674 350 677 354 678 c 0
 380 683 418 707 426 711 c 0
 432 714 447 707 457 701 c 0
 466 695 468 687 462 679 c 0
EndSplineSet
EndChar

StartChar: Ucircumflex
Encoding: 219 219 122
Width: 642
GlyphClass: 2
Flags: MW
HStem: 0 40 0 63 120 12<353 353> 508 50 528 51
VStem: 16 68 136 82 328 25<63 63> 380 63 467 84<230 375 230 388 230 453 230 453> 614 13
LayerCount: 2
Fore
SplineSet
622 594 m 0x6fe0
 629 577 633 544 606 532 c 0
 580 520 552 542 552 542 c 1
 550 519 551 375 551 375 c 1
 551 230 l 2
 552 183 552 135 552 116 c 0
 550 42 569 40 569 40 c 1xb7e0
 578 40 586 55 589 63 c 0
 590 65 593 65 595 64 c 0
 598 62 599 59 601 57 c 0
 603 53 604 48 602 43 c 0
 592 17 571 6 557 1 c 0
 551 -1 545 -1 539 0 c 0
 476 10 469 72 469 96 c 0
 469 100 469 106 469 113 c 1
 451 62 413 1 326 0 c 0
 104 -4 136 256 136 256 c 1
 152 406 243 481 292 512 c 1
 291 511 290 511 289 511 c 0
 255 504 215 509 156 508 c 0
 104 506 79 477 84 437 c 0
 87 415 100 410 111 409 c 0
 118 408 120 400 116 396 c 0
 105 387 87 379 59 391 c 0
 27 404 19 439 19 439 c 1
 7 486 23 574 120 589 c 0
 186 599 226 575 250 564 c 0
 282 549 313 562 322 582 c 0
 327 596 324 605 320 612 c 0
 318 617 322 622 327 621 c 0
 340 617 351 608 354 590 c 0
 355 584 355 578 354 572 c 2
 353 132 l 1
 368 137 380 153 381 200 c 0
 381 249 380 258 380 258 c 1
 380 258 379 325 381 350 c 0
 388 420 455 462 467 468 c 1
 467 542 l 2x77e0
 467 550 469 558 473 564 c 0
 480 578 496 601 525 620 c 0
 533 625 545 623 550 614 c 0
 561 599 579 577 599 579 c 0
 607 580 612 586 614 594 c 0
 615 598 621 598 622 594 c 0x6fe0
224 285 m 0
 196 121 268 69 328 63 c 1x77e0
 329 513 l 1
 306 490 247 422 224 285 c 0
353 63 m 1
 422 69 463 117 468 213 c 0
 467 218 467 224 467 230 c 2
 467 388 l 1
 467 453 l 1
 452 442 443 408 443 348 c 2
 443 348 444 261 442 209 c 0
 441 153 389 118 353 120 c 1
 353 63 l 1
492 685 m 0
 496 684 498 680 498 677 c 0
 498 671 494 661 481 656 c 1
 481 656 444 651 423 676 c 1
 396 651 368 657 368 657 c 1
 353 663 349 673 348 679 c 0
 348 682 351 686 354 686 c 0
 377 691 409 713 417 717 c 0
 418 717 419 718 420 717 c 0
 422 718 423 717 424 717 c 0
 432 713 469 690 492 685 c 0
EndSplineSet
EndChar

StartChar: Udieresis
Encoding: 220 220 123
Width: 642
GlyphClass: 2
Flags: MW
HStem: 0 40 0 63 120 12<353 353> 508 50 528 51
VStem: 16 68 136 82 328 25<63 63> 356 50 380 63 433 50 467 84<230 375 230 388 230 453 230 453> 614 13
LayerCount: 2
Fore
SplineSet
622 594 m 0x6f58
 629 577 633 544 606 532 c 0
 580 520 552 542 552 542 c 1
 550 519 551 375 551 375 c 1
 551 230 l 2
 552 183 552 135 552 116 c 0
 550 42 569 40 569 40 c 1xb758
 578 40 586 55 589 63 c 0
 590 65 593 65 595 64 c 0
 598 62 599 59 601 57 c 0
 603 53 604 48 602 43 c 0
 592 17 571 6 557 1 c 0
 551 -1 545 -1 539 0 c 0
 476 10 469 72 469 96 c 0
 469 100 469 106 469 113 c 1
 451 62 413 1 326 0 c 0
 104 -4 136 256 136 256 c 1
 152 406 243 481 292 512 c 1
 291 511 290 511 289 511 c 0
 255 504 215 509 156 508 c 0
 104 506 79 477 84 437 c 0
 87 415 100 410 111 409 c 0
 118 408 120 400 116 396 c 0
 105 387 87 379 59 391 c 0
 27 404 19 439 19 439 c 1
 7 486 23 574 120 589 c 0
 186 599 226 575 250 564 c 0
 282 549 313 562 322 582 c 0
 327 596 324 605 320 612 c 0
 318 617 322 622 327 621 c 0
 340 617 351 608 354 590 c 0x7798
 355 584 355 578 354 572 c 2
 353 132 l 1
 368 137 380 153 381 200 c 0
 381 249 380 258 380 258 c 1
 380 258 379 325 381 350 c 0
 388 420 455 462 467 468 c 1
 467 542 l 2x7758
 467 550 469 558 473 564 c 0
 480 578 496 601 525 620 c 0
 533 625 545 623 550 614 c 0
 561 599 579 577 599 579 c 0
 607 580 612 586 614 594 c 0
 615 598 621 598 622 594 c 0x6f58
224 285 m 0
 196 121 268 69 328 63 c 1x7758
 329 513 l 1
 306 490 247 422 224 285 c 0
353 63 m 1
 422 69 463 117 468 213 c 0
 467 218 467 224 467 230 c 2
 467 388 l 1
 467 453 l 1
 452 442 443 408 443 348 c 2
 443 348 444 261 442 209 c 0
 441 153 389 118 353 120 c 1
 353 63 l 1
376 708 m 0
 389 711 403 703 406 689 c 0
 409 674 400 660 386 656 c 0
 373 653 359 662 356 676 c 0x77a8
 353 690 362 704 376 708 c 0
453 708 m 0
 466 711 480 702 483 688 c 0
 486 674 477 660 463 656 c 0
 450 652 436 661 433 675 c 0
 430 690 439 704 453 708 c 0
EndSplineSet
EndChar

StartChar: Yacute
Encoding: 221 221 124
Width: 606
GlyphClass: 2
Flags: MW
HStem: -148 22<246 246> -38 66<280 328> 508 50 545 42
VStem: 16 69 136 85 326 24 329 26 381 61<371 380> 467 86
LayerCount: 2
Fore
SplineSet
587 54 m 1xedc0
 587 54 601 14 577 -14 c 0
 558 -36 499 -83 474 -103 c 0
 468 -108 459 -107 453 -102 c 0
 437 -88 401 -61 350 -47 c 1xeec0
 341 -104 309 -147 246 -148 c 0
 139 -149 146 -82 146 -82 c 1
 147 -57 160 -17 223 12 c 0
 254 26 291 30 328 28 c 1
 328 70 l 1
 103 68 136 293 136 293 c 1
 151 415 232 481 283 510 c 1
 251 504 211 509 156 508 c 0xedc0
 105 506 80 477 85 437 c 0
 87 415 101 410 112 409 c 0
 118 408 121 400 116 396 c 0
 106 387 88 379 59 391 c 0
 27 404 19 439 19 439 c 1
 7 486 23 574 120 589 c 0
 186 599 226 575 250 564 c 0
 282 549 313 562 322 582 c 0
 327 596 325 605 321 612 c 0
 318 617 322 622 327 621 c 0
 341 617 351 608 354 590 c 0
 355 584 355 578 355 572 c 2
 353 168 l 1
 366 175 380 209 380 261 c 0
 381 301 380 308 380 308 c 1
 380 308 381 361 381 381 c 0
 382 458 443 475 467 478 c 1
 467 511 468 533 468 550 c 1
 454 545 l 2xddc0
 449 543 443 547 442 552 c 0
 442 554 442 556 442 558 c 0
 442 563 445 567 450 569 c 0
 473 579 547 608 550 561 c 0
 554 510 549 228 553 136 c 1
 553 136 577 86 587 54 c 1xedc0
442 269 m 0
 442 210 389 154 353 155 c 1
 353 126 l 1
 418 135 464 198 468 286 c 0
 468 297 468 309 467 321 c 0
 467 383 467 430 467 465 c 1
 450 458 442 431 442 380 c 2
 442 380 442 310 442 269 c 0
221 290 m 0
 216 146 270 126 328 125 c 1
 330 508 l 1xedc0
 303 485 225 407 221 290 c 0
245 -126 m 0
 304 -124 321 -73 326 -42 c 1xeec0
 312 -40 296 -38 280 -38 c 1
 280 -38 191 -37 182 -85 c 1
 182 -85 171 -128 245 -126 c 0
494 -33 m 1
 501 -6 468 120 461 148 c 1
 442 113 410 79 353 72 c 1
 353 25 l 1
 410 17 465 -6 494 -33 c 1
454 678 m 0
 434 652 364 653 364 653 c 1
 347 657 341 665 340 670 c 0
 339 673 342 675 346 676 c 0
 372 682 410 706 418 710 c 0
 424 713 439 705 449 699 c 0
 458 694 460 685 454 678 c 0
EndSplineSet
EndChar

StartChar: germandbls
Encoding: 223 223 125
Width: 412
GlyphClass: 3
Flags: MW
HStem: 0 37<192 192 192 227>
VStem: 15 83 169 24 312 85<183 183>
LayerCount: 2
Fore
SplineSet
192 37 m 1
 192 37 316 42 312 183 c 0
 309 248 195 299 140 312 c 0
 137 313 134 316 134 319 c 2
 135 328 l 2
 135 333 139 338 144 339 c 0
 171 346 250 374 258 463 c 1
 258 463 273 590 180 591 c 0
 91 593 99 429 99 429 c 1
 99 232 l 2
 99 184 100 66 99 48 c 1
 104 40 117 33 128 29 c 0
 134 27 135 19 129 15 c 0
 117 8 102 3 92 1 c 0
 83 -1 75 0 66 2 c 0
 44 10 17 29 17 55 c 0
 17 94 16 191 15 231 c 2
 16 432 l 1
 16 432 15 623 181 623 c 0
 352 623 337 471 337 471 c 1
 329 335 203 324 203 324 c 1
 203 324 394 321 397 183 c 0
 400 40 263 0 191 0 c 0
 182 0 174 3 171 12 c 0
 167 21 164 36 169 57 c 0
 170 60 172 63 175 65 c 0
 179 66 183 68 187 68 c 0
 191 69 194 65 193 62 c 0
 192 54 191 42 192 37 c 1
EndSplineSet
EndChar

StartChar: agrave
Encoding: 224 224 126
Width: 309
GlyphClass: 2
Flags: MW
HStem: -2 63 1 39 233 27<116 116> 413 11
VStem: 15 76 179 77 211 17
LayerCount: 2
Fore
SplineSet
307 54 m 0xbc
 309 51 309 47 308 44 c 0
 299 20 281 8 267 3 c 0
 258 0 249 -1 240 1 c 0
 205 7 190 25 184 45 c 1
 164 18 133 -11 94 1 c 1
 94 1 14 33 15 143 c 0
 16 202 45 232 71 246 c 1
 59 265 37 300 31 322 c 0
 22 355 82 406 82 406 c 1
 121 441 163 413 163 413 c 1x7a
 163 413 212 381 239 371 c 0
 255 365 276 375 284 381 c 0
 287 382 291 381 293 378 c 0
 295 374 295 368 294 363 c 0
 293 361 292 359 291 358 c 0
 281 345 256 334 256 334 c 1
 256 334 258 155 257 116 c 0
 255 42 275 40 275 40 c 1x7c
 282 40 290 53 294 61 c 0
 295 64 299 65 302 62 c 0
 305 59 307 57 307 54 c 0xbc
163 64 m 1
 163 64 177 68 180 96 c 0
 180 106 179 131 179 159 c 1
 179 159 l 1xbc
 179 159 169 233 116 233 c 1
 116 233 89 236 91 160 c 1
 91 160 91 41 163 64 c 1
183 269 m 0
 199 317 222 329 222 329 c 1
 183 322 112 358 90 366 c 0
 69 373 57 348 59 322 c 0
 61 303 85 271 97 256 c 1
 107 259 115 259 115 260 c 0
 123 261 153 262 179 228 c 1
 179 247 180 262 183 269 c 0
122 479 m 0
 114 487 114 497 121 503 c 0
 128 511 139 520 145 517 c 0
 154 513 196 488 220 484 c 0
 224 483 228 480 228 477 c 0
 228 471 225 462 211 457 c 1xba
 211 457 147 451 122 479 c 0
EndSplineSet
EndChar

StartChar: aacute
Encoding: 225 225 127
Width: 309
GlyphClass: 2
Flags: MW
HStem: -2 63 1 39 233 27<116 116> 413 11
VStem: 15 76 179 77
LayerCount: 2
Fore
SplineSet
307 54 m 0xbc
 309 51 309 47 308 44 c 0
 299 20 281 8 267 3 c 0
 258 0 249 -1 240 1 c 0
 205 7 190 25 184 45 c 1
 164 18 133 -11 94 1 c 1
 94 1 14 33 15 143 c 0
 16 202 45 232 71 246 c 1
 59 265 37 300 31 322 c 0
 22 355 82 406 82 406 c 1
 121 441 163 413 163 413 c 1
 163 413 212 381 239 371 c 0
 255 365 276 375 284 381 c 0
 287 382 291 381 293 378 c 0
 295 374 295 368 294 363 c 0
 293 361 292 359 291 358 c 0
 281 345 256 334 256 334 c 1
 256 334 258 155 257 116 c 0
 255 42 275 40 275 40 c 1x7c
 282 40 290 53 294 61 c 0
 295 64 299 65 302 62 c 0
 305 59 307 57 307 54 c 0xbc
163 64 m 1
 163 64 177 68 180 96 c 0
 180 106 179 131 179 159 c 1
 179 159 l 1
 179 159 169 233 116 233 c 1
 116 233 89 236 91 160 c 1
 91 160 91 41 163 64 c 1
183 269 m 0
 199 317 222 329 222 329 c 1
 183 322 112 358 90 366 c 0
 69 373 57 348 59 322 c 0
 61 303 85 271 97 256 c 1
 107 259 115 259 115 260 c 0
 123 261 153 262 179 228 c 1
 179 247 180 262 183 269 c 0
218 484 m 0
 198 457 127 459 127 459 c 1
 110 463 105 471 103 476 c 0
 102 478 105 481 109 482 c 0
 135 488 173 512 182 516 c 0
 188 518 203 511 213 505 c 0
 221 500 223 491 218 484 c 0
EndSplineSet
EndChar

StartChar: acircumflex
Encoding: 226 226 128
Width: 309
GlyphClass: 2
Flags: MW
HStem: -2 63 1 39 233 27<116 116> 413 11
VStem: 15 76 179 77
LayerCount: 2
Fore
SplineSet
307 54 m 0xbc
 309 51 309 47 308 44 c 0
 299 20 281 8 267 3 c 0
 258 0 249 -1 240 1 c 0
 205 7 190 25 184 45 c 1
 164 18 133 -11 94 1 c 1
 94 1 14 33 15 143 c 0
 16 202 45 232 71 246 c 1
 59 265 37 300 31 322 c 0
 22 355 82 406 82 406 c 1
 121 441 163 413 163 413 c 1
 163 413 212 381 239 371 c 0
 255 365 276 375 284 381 c 0
 287 382 291 381 293 378 c 0
 295 374 295 368 294 363 c 0
 293 361 292 359 291 358 c 0
 281 345 256 334 256 334 c 1
 256 334 258 155 257 116 c 0
 255 42 275 40 275 40 c 1x7c
 282 40 290 53 294 61 c 0
 295 64 299 65 302 62 c 0
 305 59 307 57 307 54 c 0xbc
163 64 m 1
 163 64 177 68 180 96 c 0
 180 106 179 131 179 159 c 1
 179 159 l 1
 179 159 169 233 116 233 c 1
 116 233 89 236 91 160 c 1
 91 160 91 41 163 64 c 1
183 269 m 0
 199 317 222 329 222 329 c 1
 183 322 112 358 90 366 c 0
 69 373 57 348 59 322 c 0
 61 303 85 271 97 256 c 1
 107 259 115 259 115 260 c 0
 123 261 153 262 179 228 c 1
 179 247 180 262 183 269 c 0
240 487 m 0
 244 486 247 482 247 479 c 0
 246 473 243 463 229 458 c 1
 229 458 193 453 172 478 c 1
 145 453 116 459 116 459 c 1
 102 465 98 475 97 481 c 0
 97 484 99 488 103 488 c 0
 125 493 158 515 166 519 c 0
 167 519 168 520 169 519 c 1
 170 520 171 519 172 519 c 0
 180 515 218 492 240 487 c 0
EndSplineSet
EndChar

StartChar: atilde
Encoding: 227 227 129
Width: 309
GlyphClass: 2
Flags: MW
HStem: -2 63 1 39 233 27<116 116> 413 11 472 42
VStem: 15 76 179 77
LayerCount: 2
Fore
SplineSet
307 54 m 0xbe
 309 51 309 47 308 44 c 0
 299 20 281 8 267 3 c 0
 258 0 249 -1 240 1 c 0
 205 7 190 25 184 45 c 1
 164 18 133 -11 94 1 c 1
 94 1 14 33 15 143 c 0
 16 202 45 232 71 246 c 1
 59 265 37 300 31 322 c 0
 22 355 82 406 82 406 c 1
 121 441 163 413 163 413 c 1
 163 413 212 381 239 371 c 0
 255 365 276 375 284 381 c 0
 287 382 291 381 293 378 c 0
 295 374 295 368 294 363 c 0
 293 361 292 359 291 358 c 0
 281 345 256 334 256 334 c 1
 256 334 258 155 257 116 c 0
 255 42 275 40 275 40 c 1x7e
 282 40 290 53 294 61 c 0
 295 64 299 65 302 62 c 0
 305 59 307 57 307 54 c 0xbe
163 64 m 1
 163 64 177 68 180 96 c 0
 180 106 179 131 179 159 c 1
 179 159 l 1
 179 159 169 233 116 233 c 1
 116 233 89 236 91 160 c 1
 91 160 91 41 163 64 c 1
183 269 m 0
 199 317 222 329 222 329 c 1
 183 322 112 358 90 366 c 0
 69 373 57 348 59 322 c 0
 61 303 85 271 97 256 c 1
 107 259 115 259 115 260 c 0
 123 261 153 262 179 228 c 1
 179 247 180 262 183 269 c 0
246 502 m 0
 249 498 242 483 231 473 c 1
 231 473 204 451 174 461 c 0
 172 462 149 472 140 472 c 0
 126 473 122 471 111 469 c 0
 107 468 99 467 98 469 c 0
 96 474 100 484 108 492 c 1
 108 492 138 524 168 511 c 0
 171 510 183 502 191 500 c 0
 204 496 218 501 229 504 c 0
 233 504 243 506 246 502 c 0
EndSplineSet
EndChar

StartChar: adieresis
Encoding: 228 228 130
Width: 309
GlyphClass: 2
Flags: MW
HStem: -2 63 1 39 233 27<116 116> 413 11
VStem: 15 76 98 50 175 50 179 77
LayerCount: 2
Fore
SplineSet
307 54 m 0xbd
 309 51 309 47 308 44 c 0
 299 20 281 8 267 3 c 0
 258 0 249 -1 240 1 c 0
 205 7 190 25 184 45 c 1
 164 18 133 -11 94 1 c 1
 94 1 14 33 15 143 c 0
 16 202 45 232 71 246 c 1
 59 265 37 300 31 322 c 0
 22 355 82 406 82 406 c 1
 121 441 163 413 163 413 c 1
 163 413 212 381 239 371 c 0
 255 365 276 375 284 381 c 0
 287 382 291 381 293 378 c 0
 295 374 295 368 294 363 c 0
 293 361 292 359 291 358 c 0
 281 345 256 334 256 334 c 1
 256 334 258 155 257 116 c 0
 255 42 275 40 275 40 c 1x7d
 282 40 290 53 294 61 c 0
 295 64 299 65 302 62 c 0
 305 59 307 57 307 54 c 0xbd
163 64 m 1
 163 64 177 68 180 96 c 0
 180 106 179 131 179 159 c 1
 179 159 l 1
 179 159 169 233 116 233 c 1
 116 233 89 236 91 160 c 1
 91 160 91 41 163 64 c 1
183 269 m 0
 199 317 222 329 222 329 c 1
 183 322 112 358 90 366 c 0
 69 373 57 348 59 322 c 0
 61 303 85 271 97 256 c 1
 107 259 115 259 115 260 c 0
 123 261 153 262 179 228 c 1
 179 247 180 262 183 269 c 0
118 510 m 0
 132 513 145 505 148 491 c 0
 151 476 143 462 129 458 c 0
 115 455 101 464 98 478 c 0
 95 492 104 506 118 510 c 0
195 510 m 0
 209 513 222 504 225 490 c 0xbe
 228 476 220 462 206 458 c 0xbd
 192 454 178 463 175 477 c 0xbe
 172 492 181 506 195 510 c 0
EndSplineSet
EndChar

StartChar: aring
Encoding: 229 229 131
Width: 309
GlyphClass: 2
Flags: MW
HStem: -2 63 1 39 233 27<116 116> 413 11 454 17<158.5 165.5 158.5 170.5> 496 17<158.5 165>
VStem: 15 76 133 17<480.5 492> 174 16<484 487.5> 179 77
LayerCount: 2
Fore
SplineSet
307 54 m 0xbf40
 309 51 309 47 308 44 c 0
 299 20 281 8 267 3 c 0
 258 0 249 -1 240 1 c 0x7f80
 205 7 190 25 184 45 c 1
 164 18 133 -11 94 1 c 1
 94 1 14 33 15 143 c 0
 16 202 45 232 71 246 c 1
 59 265 37 300 31 322 c 0
 22 355 82 406 82 406 c 1
 121 441 163 413 163 413 c 1
 163 413 212 381 239 371 c 0
 255 365 276 375 284 381 c 0
 287 382 291 381 293 378 c 0
 295 374 295 368 294 363 c 0
 293 361 292 359 291 358 c 0
 281 345 256 334 256 334 c 1
 256 334 258 155 257 116 c 0
 255 42 275 40 275 40 c 1x7f40
 282 40 290 53 294 61 c 0
 295 64 299 65 302 62 c 0
 305 59 307 57 307 54 c 0xbf40
163 64 m 1
 163 64 177 68 180 96 c 0
 180 106 179 131 179 159 c 1
 179 159 l 1xbf40
 179 159 169 233 116 233 c 1
 116 233 89 236 91 160 c 1
 91 160 91 41 163 64 c 1
183 269 m 0
 199 317 222 329 222 329 c 1
 183 322 112 358 90 366 c 0
 69 373 57 348 59 322 c 0
 61 303 85 271 97 256 c 1
 107 259 115 259 115 260 c 0
 123 261 153 262 179 228 c 1
 179 247 180 262 183 269 c 0
161 513 m 0
 177 513 190 500 190 484 c 0xbf80
 191 467 178 454 163 454 c 0
 147 454 134 467 133 484 c 0
 133 500 145 513 161 513 c 0
162 471 m 0
 169 471 174 477 174 484 c 0
 174 491 168 496 162 496 c 0
 155 496 149 491 150 484 c 0
 150 477 155 471 162 471 c 0
EndSplineSet
EndChar

StartChar: ae
Encoding: 230 230 132
Width: 437
GlyphClass: 3
Flags: MW
HStem: -2 31 -2 63<118.5 128> 1 21G<95 95 230.5 250> 233 27<116 116> 328 42
VStem: 16 75 181 83 373 44
LayerCount: 2
Fore
SplineSet
163 64 m 1x5f
 163 64 178 68 181 96 c 0
 181 106 180 131 179 159 c 1
 179 159 170 233 116 233 c 0
 112 233 89 230 91 160 c 1
 91 160 91 61 146 61 c 0
 151 61 157 62 163 64 c 1x5f
222 328 m 1
 222 329 l 1
 219 329 216 328 212 328 c 0
 172 328 110 359 91 366 c 0
 69 373 57 348 59 322 c 0
 61 303 85 271 97 256 c 1
 108 259 115 259 116 260 c 0
 123 261 153 262 179 228 c 1
 179 247 181 262 183 269 c 0
 198 312 217 326 222 328 c 1
355 385 m 1
 355 385 284 341 267 232 c 1
 362 263 373 323 373 323 c 1
 378 341 371 372 355 385 c 1
416 65 m 0
 419 61 422 55 422 48 c 0
 422 42 420 37 416 33 c 0x3f
 407 22 384 1 345 -2 c 1x5f
 318 0 296 5 277 14 c 1
 269 9 256 1 244 1 c 0x3f
 217 1 192 18 184 45 c 1
 167 22 143 -2 113 -2 c 0x9f
 107 -2 101 -1 95 1 c 1x3f
 95 1 14 33 16 143 c 0
 17 202 45 232 71 246 c 1
 59 265 38 300 31 322 c 0
 22 355 82 406 82 406 c 1
 97 419 112 424 126 424 c 0
 147 424 163 413 163 413 c 1
 163 413 212 381 240 371 c 0
 245 369 250 369 256 370 c 0
 274 390 306 422 335 422 c 0
 339 422 344 421 348 420 c 0
 380 410 436 358 412 305 c 1
 412 305 385 235 264 206 c 1
 257 113 285 40 347 29 c 1x9f
 347 29 383 31 404 64 c 0
 407 68 413 69 416 65 c 0
EndSplineSet
EndChar

StartChar: ccedilla
Encoding: 231 231 133
Width: 267
GlyphClass: 2
Flags: MW
HStem: -73 20<159.5 160.5 159.5 163> -32 19 -15 21G -2 21G<189 189> -2 32<182 189>
VStem: 17 81 134 21<-48.5 -45.5> 165 24<-4.5 -3 -3 -2> 205 39
LayerCount: 2
Fore
SplineSet
183 420 m 0x9480
 214 411 262 388 239 337 c 1
 239 337 227 315 204 300 c 0
 199 296 192 295 186 297 c 0
 183 298 180 299 177 301 c 0
 173 304 174 310 178 313 c 0
 186 319 200 331 205 346 c 0
 208 358 206 373 190 386 c 1
 190 386 115 339 101 223 c 0
 88 122 116 41 182 30 c 1
 182 30 218 32 239 65 c 0
 241 69 248 70 251 65 c 0
 254 62 257 56 257 49 c 0x8c80
 257 43 254 38 251 33 c 0x9480
 242 24 222 5 189 -2 c 1
 189 -3 l 2
 189 -5 189 -7 189 -9 c 0
 189 -11 189 -13 188 -15 c 0
 192 -20 197 -27 197 -41 c 0
 195 -60 183 -71 163 -73 c 0
 153 -73 148 -70 145 -69 c 0
 139 -65 137 -59 136 -57 c 0
 135 -54 134 -50 134 -47 c 0
 135 -41 139 -38 145 -37 c 0
 148 -37 152 -39 154 -44 c 0
 155 -44 155 -45 155 -46 c 2
 156 -48 l 2
 157 -50 159 -53 160 -53 c 0
 161 -53 164 -51 165 -48 c 0xa580
 170 -39 169 -32 169 -31 c 1
 167 -31 167 -31 165 -32 c 0xd680
 155 -33 148 -30 146 -23 c 0
 146 -16 150 -13 157 -13 c 0
 162 -13 163 -10 164 -8 c 0
 165 -7 165 -7 165 -2 c 0
 164 -1 163 0 162 1 c 0
 38 17 10 126 17 221 c 0
 20 288 64 357 139 413 c 0
 148 419 158 422 168 422 c 0
 173 422 178 422 183 420 c 0x9480
EndSplineSet
EndChar

StartChar: egrave
Encoding: 232 232 134
Width: 267
GlyphClass: 2
Flags: MW
HStem: -1 31
VStem: 16 83 208 43 209 17
LayerCount: 2
Fore
SplineSet
251 65 m 0xe0
 254 62 256 56 256 49 c 0
 256 43 254 38 250 33 c 0
 241 23 218 2 179 -1 c 1
 40 7 9 122 16 221 c 0
 20 288 64 357 139 413 c 0
 151 422 168 425 183 420 c 0
 214 411 270 359 246 306 c 1
 246 306 219 236 99 207 c 1
 91 114 119 41 182 30 c 1
 182 30 218 32 238 65 c 0
 241 69 247 70 251 65 c 0xe0
189 386 m 1
 189 386 119 342 102 233 c 1
 196 264 208 324 208 324 c 1
 213 342 205 373 189 386 c 1
120 480 m 0
 113 488 112 498 119 504 c 0
 126 511 138 521 144 518 c 0
 153 514 194 489 219 485 c 0
 223 484 226 481 226 478 c 0xd0
 226 472 223 463 209 458 c 1
 209 458 145 452 120 480 c 0
EndSplineSet
EndChar

StartChar: eacute
Encoding: 233 233 135
Width: 267
GlyphClass: 2
Flags: MW
HStem: -1 31
VStem: 16 83 208 43
LayerCount: 2
Fore
SplineSet
251 65 m 0
 254 62 256 56 256 49 c 0
 256 43 254 38 250 33 c 0
 241 23 218 2 179 -1 c 1
 40 7 9 122 16 221 c 0
 20 288 64 357 139 413 c 0
 151 422 168 425 183 420 c 0
 214 411 270 359 246 306 c 1
 246 306 219 236 99 207 c 1
 91 114 119 41 182 30 c 1
 182 30 218 32 238 65 c 0
 241 69 247 70 251 65 c 0
189 386 m 1
 189 386 119 342 102 233 c 1
 196 264 208 324 208 324 c 1
 213 342 205 373 189 386 c 1
225 482 m 0
 206 456 135 458 135 458 c 1
 118 461 112 469 111 474 c 0
 110 477 113 480 117 481 c 0
 143 486 181 510 190 514 c 0
 196 517 210 509 220 503 c 0
 229 498 231 490 225 482 c 0
EndSplineSet
EndChar

StartChar: ecircumflex
Encoding: 234 234 136
Width: 267
GlyphClass: 2
Flags: MW
HStem: -1 31
VStem: 16 83 208 43
LayerCount: 2
Fore
SplineSet
251 65 m 0
 254 62 256 56 256 49 c 0
 256 43 254 38 250 33 c 0
 241 23 218 2 179 -1 c 1
 40 7 9 122 16 221 c 0
 20 288 64 357 139 413 c 0
 151 422 168 425 183 420 c 0
 214 411 270 359 246 306 c 1
 246 306 219 236 99 207 c 1
 91 114 119 41 182 30 c 1
 182 30 218 32 238 65 c 0
 241 69 247 70 251 65 c 0
189 386 m 1
 189 386 119 342 102 233 c 1
 196 264 208 324 208 324 c 1
 213 342 205 373 189 386 c 1
250 487 m 0
 254 486 256 482 256 479 c 0
 256 473 252 463 239 458 c 1
 239 458 202 453 181 478 c 1
 154 453 126 459 126 459 c 1
 111 465 107 475 106 481 c 0
 106 484 109 488 112 488 c 0
 135 493 167 515 175 519 c 0
 176 519 177 520 178 519 c 0
 180 520 181 519 182 519 c 0
 190 515 227 492 250 487 c 0
EndSplineSet
EndChar

StartChar: edieresis
Encoding: 235 235 137
Width: 267
GlyphClass: 2
Flags: MW
HStem: -1 31
VStem: 16 83 119 50 196 50 208 43
LayerCount: 2
Fore
SplineSet
251 65 m 0xe8
 254 62 256 56 256 49 c 0
 256 43 254 38 250 33 c 0xe8
 241 23 218 2 179 -1 c 1
 40 7 9 122 16 221 c 0
 20 288 64 357 139 413 c 0
 151 422 168 425 183 420 c 0
 214 411 270 359 246 306 c 1xf0
 246 306 219 236 99 207 c 1
 91 114 119 41 182 30 c 1
 182 30 218 32 238 65 c 0
 241 69 247 70 251 65 c 0xe8
189 386 m 1
 189 386 119 342 102 233 c 1xf0
 196 264 208 324 208 324 c 1
 213 342 205 373 189 386 c 1
139 510 m 0
 152 513 166 505 169 491 c 0
 172 476 163 462 149 458 c 0
 136 455 122 464 119 478 c 0
 116 492 125 506 139 510 c 0
216 510 m 0
 229 513 243 504 246 490 c 0
 249 476 240 462 226 458 c 0
 213 454 199 463 196 477 c 0
 193 492 202 506 216 510 c 0
EndSplineSet
EndChar

StartChar: igrave
Encoding: 236 236 138
Width: 185
GlyphClass: 2
Flags: MW
HStem: 1 21G 1 39
VStem: 47 76<84 402> 129 17
LayerCount: 2
Fore
SplineSet
40 480 m 0x90
 33 488 33 498 39 504 c 0
 46 511 58 521 64 518 c 0
 73 514 114 489 139 485 c 0
 143 484 146 481 146 478 c 0
 146 472 143 463 129 458 c 1
 129 458 65 452 40 480 c 0x90
174 53 m 0x60
 175 50 175 47 174 44 c 0
 165 19 147 8 132 3 c 0
 124 0 115 -1 107 1 c 0
 48 12 47 72 47 96 c 0
 47 115 46 304 45 351 c 1
 41 348 33 345 27 344 c 0
 22 343 17 344 13 348 c 0
 9 353 7 360 6 364 c 0
 5 367 7 370 10 371 c 0
 45 379 81 407 95 419 c 0
 101 424 109 424 114 419 c 0
 117 417 118 414 120 412 c 0
 122 409 123 405 123 402 c 0
 123 347 123 134 123 116 c 0
 122 42 141 40 141 40 c 1
 149 40 157 54 160 62 c 0
 162 64 165 65 167 63 c 0
 171 60 173 56 174 53 c 0x60
EndSplineSet
EndChar

StartChar: iacute
Encoding: 237 237 139
Width: 185
GlyphClass: 2
Flags: MW
HStem: 1 21G 1 39
VStem: 47 76<84 402>
LayerCount: 2
Fore
SplineSet
146 475 m 0xa0
 126 449 55 450 55 450 c 1
 38 454 33 462 32 467 c 0
 31 469 34 472 38 473 c 0
 63 479 102 503 110 507 c 0
 116 510 131 502 141 496 c 0
 150 491 152 482 146 475 c 0xa0
174 53 m 0x60
 175 50 175 47 174 44 c 0
 165 19 147 8 132 3 c 0
 124 0 115 -1 107 1 c 0
 48 12 47 72 47 96 c 0
 47 115 46 304 45 351 c 1
 41 348 33 345 27 344 c 0
 22 343 17 344 13 348 c 0
 9 353 7 360 6 364 c 0
 5 367 7 370 10 371 c 0
 45 379 81 407 95 419 c 0
 101 424 109 424 114 419 c 0
 117 417 118 414 120 412 c 0
 122 409 123 405 123 402 c 0
 123 347 123 134 123 116 c 0
 122 42 141 40 141 40 c 1
 149 40 157 54 160 62 c 0
 162 64 165 65 167 63 c 0
 171 60 173 56 174 53 c 0x60
EndSplineSet
EndChar

StartChar: icircumflex
Encoding: 238 238 140
Width: 185
GlyphClass: 2
Flags: MW
HStem: 1 21G 1 39
VStem: 47 76<84 402>
LayerCount: 2
Fore
SplineSet
159 487 m 0xa0
 163 486 165 482 165 479 c 0
 165 473 161 463 148 458 c 1
 148 458 111 453 90 478 c 1
 63 453 35 459 35 459 c 1
 20 465 16 475 15 481 c 0
 15 484 18 488 21 488 c 0
 44 493 76 515 84 519 c 0
 85 519 86 520 87 519 c 0
 89 520 90 519 91 519 c 0
 99 515 136 492 159 487 c 0xa0
174 53 m 0x60
 175 50 175 47 174 44 c 0
 165 19 147 8 132 3 c 0
 124 0 115 -1 107 1 c 0
 48 12 47 72 47 96 c 0
 47 115 46 304 45 351 c 1
 41 348 33 345 27 344 c 0
 22 343 17 344 13 348 c 0
 9 353 7 360 6 364 c 0
 5 367 7 370 10 371 c 0
 45 379 81 407 95 419 c 0
 101 424 109 424 114 419 c 0
 117 417 118 414 120 412 c 0
 122 409 123 405 123 402 c 0
 123 347 123 134 123 116 c 0
 122 42 141 40 141 40 c 1
 149 40 157 54 160 62 c 0
 162 64 165 65 167 63 c 0
 171 60 173 56 174 53 c 0x60
EndSplineSet
EndChar

StartChar: idieresis
Encoding: 239 239 141
Width: 185
GlyphClass: 2
Flags: MW
HStem: 1 21G 1 39
VStem: 27 50 47 76<84 402> 104 50
LayerCount: 2
Fore
SplineSet
46 510 m 0xa0
 60 513 74 505 77 491 c 0
 80 476 71 462 57 458 c 0
 43 455 30 464 27 478 c 0
 24 492 33 506 46 510 c 0xa0
123 510 m 0x88
 137 513 151 504 154 490 c 0
 157 476 148 462 134 458 c 0
 120 454 107 463 104 477 c 0
 101 492 110 506 123 510 c 0x88
174 53 m 0x50
 175 50 175 47 174 44 c 0
 165 19 147 8 132 3 c 0
 124 0 115 -1 107 1 c 0
 48 12 47 72 47 96 c 0
 47 115 46 304 45 351 c 1
 41 348 33 345 27 344 c 0
 22 343 17 344 13 348 c 0
 9 353 7 360 6 364 c 0
 5 367 7 370 10 371 c 0
 45 379 81 407 95 419 c 0
 101 424 109 424 114 419 c 0
 117 417 118 414 120 412 c 0
 122 409 123 405 123 402 c 0
 123 347 123 134 123 116 c 0
 122 42 141 40 141 40 c 1
 149 40 157 54 160 62 c 0
 162 64 165 65 167 63 c 0
 171 60 173 56 174 53 c 0x50
EndSplineSet
EndChar

StartChar: ntilde
Encoding: 241 241 142
Width: 337
GlyphClass: 2
Flags: MW
HStem: -1 21G 1 21G 1 39 469 42
VStem: 42 75<78 99> 208 77<116 256 116 256 221.5 256 116 319>
LayerCount: 2
Fore
SplineSet
336 53 m 0x3c
 337 50 337 47 336 44 c 0x3c
 327 19 308 8 294 3 c 0
 286 0 277 -1 268 1 c 0
 209 12 208 72 208 96 c 0x5c
 208 108 208 187 208 256 c 0
 208 382 183 377 183 377 c 1
 160 377 127 304 117 256 c 0
 117 248 117 239 117 231 c 0
 118 184 117 95 117 77 c 1
 124 55 147 38 168 28 c 0
 172 26 173 20 169 17 c 0
 155 5 136 1 125 -1 c 0
 118 -2 111 -2 105 1 c 0
 78 13 59 40 49 56 c 0
 44 64 42 73 42 83 c 0x9c
 42 115 41 191 41 230 c 0
 40 280 40 330 40 351 c 1
 35 348 28 345 21 344 c 0
 16 343 11 344 8 348 c 0
 3 353 1 360 0 364 c 0
 0 367 2 370 5 371 c 0
 39 379 75 407 90 419 c 0
 95 424 103 424 108 419 c 0
 111 417 113 414 114 412 c 0
 116 409 117 405 117 402 c 0
 117 388 117 366 117 340 c 1
 132 371 156 410 190 420 c 1
 190 420 291 451 285 256 c 0
 285 190 285 126 285 116 c 0
 283 42 303 40 303 40 c 1
 311 40 318 54 322 62 c 0
 323 64 327 65 329 63 c 0
 333 60 335 56 336 53 c 0x3c
251 499 m 0x5c
 254 495 248 480 236 470 c 1
 236 470 209 448 180 458 c 0
 177 459 155 469 146 469 c 0
 131 470 127 468 116 466 c 0
 113 465 104 464 103 466 c 0
 101 471 105 482 113 490 c 1
 113 490 143 522 174 508 c 0
 176 507 189 499 196 497 c 0
 210 493 223 498 235 501 c 0
 238 501 249 503 251 499 c 0x5c
EndSplineSet
EndChar

StartChar: ograve
Encoding: 242 242 143
Width: 290
GlyphClass: 2
Flags: MW
HStem: 1 21G 1 29
VStem: 15 78 192 40 225 49<172 172>
LayerCount: 2
Fore
SplineSet
274 171 m 0xa8
 275 62 216 19 188 6 c 0
 180 2 171 0 162 1 c 0
 37 14 14 110 15 202 c 0
 16 256 55 357 124 412 c 0
 137 422 154 425 170 420 c 0
 201 410 247 387 227 337 c 1
 227 337 220 323 206 310 c 1
 237 297 273 264 274 171 c 0xa8
176 30 m 1x70
 176 30 226 48 225 172 c 0x68
 224 252 170 281 146 290 c 0
 140 292 139 300 144 304 c 0
 152 310 163 314 170 316 c 0
 178 322 189 333 192 346 c 0
 196 358 192 373 177 386 c 1
 177 386 94 316 93 190 c 0
 92 83 111 42 176 30 c 1x70
104 480 m 0
 96 488 96 498 102 504 c 0
 110 511 121 521 127 518 c 0
 136 514 177 489 202 485 c 0
 206 484 209 481 210 478 c 0
 210 472 207 463 192 458 c 1xb0
 192 458 129 452 104 480 c 0
EndSplineSet
EndChar

StartChar: oacute
Encoding: 243 243 144
Width: 290
GlyphClass: 2
Flags: MW
HStem: 1 21G 1 29 455 56
VStem: 15 78 192 40 225 49<172 172>
LayerCount: 2
Fore
SplineSet
274 171 m 0xb4
 275 62 216 19 188 6 c 0
 180 2 171 0 162 1 c 0
 37 14 14 110 15 202 c 0
 16 256 55 357 124 412 c 0
 137 422 154 425 170 420 c 0
 201 410 247 387 227 337 c 1
 227 337 220 323 206 310 c 1
 237 297 273 264 274 171 c 0xb4
176 30 m 1x78
 176 30 226 48 225 172 c 0x74
 224 252 170 281 146 290 c 0
 140 292 139 300 144 304 c 0
 152 310 163 314 170 316 c 0
 178 322 189 333 192 346 c 0
 196 358 192 373 177 386 c 1
 177 386 94 316 93 190 c 0
 92 83 111 42 176 30 c 1x78
217 479 m 0
 197 453 126 455 126 455 c 1
 109 459 104 466 102 471 c 0
 101 474 104 477 108 478 c 0
 134 483 172 507 181 511 c 0
 187 514 202 507 212 501 c 0
 220 495 222 487 217 479 c 0
EndSplineSet
EndChar

StartChar: ocircumflex
Encoding: 244 244 145
Width: 290
GlyphClass: 2
Flags: MW
HStem: 1 21G 1 29
VStem: 15 78 192 40 225 49<172 172>
LayerCount: 2
Fore
SplineSet
274 171 m 0xa8
 275 62 216 19 188 6 c 0
 180 2 171 0 162 1 c 0
 37 14 14 110 15 202 c 0
 16 256 55 357 124 412 c 0
 137 422 154 425 170 420 c 0
 201 410 247 387 227 337 c 1
 227 337 220 323 206 310 c 1
 237 297 273 264 274 171 c 0xa8
176 30 m 1x70
 176 30 226 48 225 172 c 0x68
 224 252 170 281 146 290 c 0
 140 292 139 300 144 304 c 0
 152 310 163 314 170 316 c 0
 178 322 189 333 192 346 c 0
 196 358 192 373 177 386 c 1
 177 386 94 316 93 190 c 0
 92 83 111 42 176 30 c 1x70
227 487 m 0
 230 486 233 482 233 479 c 0xb0
 232 473 229 463 215 458 c 1
 215 458 179 453 158 478 c 1
 131 453 103 459 103 459 c 1
 88 465 84 475 83 481 c 0
 83 484 85 488 89 488 c 0
 111 493 144 515 152 519 c 0
 153 519 154 520 155 519 c 1
 156 520 157 519 158 519 c 0
 166 515 204 492 227 487 c 0
EndSplineSet
EndChar

StartChar: otilde
Encoding: 245 245 146
Width: 290
GlyphClass: 2
Flags: MW
HStem: 1 21G 1 29 454 42 467 43
VStem: 15 78 192 40 225 49<172 172>
LayerCount: 2
Fore
SplineSet
274 171 m 0xaa
 275 62 216 19 188 6 c 0
 180 2 171 0 162 1 c 0
 37 14 14 110 15 202 c 0
 16 256 55 357 124 412 c 0
 137 422 154 425 170 420 c 0
 201 410 247 387 227 337 c 1
 227 337 220 323 206 310 c 1
 237 297 273 264 274 171 c 0xaa
176 30 m 1x6c
 176 30 226 48 225 172 c 0x6a
 224 252 170 281 146 290 c 0
 140 292 139 300 144 304 c 0
 152 310 163 314 170 316 c 0
 178 322 189 333 192 346 c 0
 196 358 192 373 177 386 c 1
 177 386 94 316 93 190 c 0
 92 83 111 42 176 30 c 1x6c
238 498 m 0
 241 493 234 478 223 468 c 1
 223 468 196 447 166 457 c 0
 164 457 141 467 132 467 c 0x9c
 118 469 114 467 103 465 c 0
 99 464 91 462 90 465 c 0
 88 469 92 480 100 488 c 1
 100 488 130 520 160 507 c 0
 163 506 175 498 183 496 c 0
 196 492 210 497 221 499 c 0
 225 500 235 502 238 498 c 0
EndSplineSet
EndChar

StartChar: odieresis
Encoding: 246 246 147
Width: 290
GlyphClass: 2
Flags: MW
HStem: 1 21G 1 29
VStem: 15 78 96 50 173 50 192 40 225 49<172 172>
LayerCount: 2
Fore
SplineSet
274 171 m 0xba
 275 62 216 19 188 6 c 0
 180 2 171 0 162 1 c 0
 37 14 14 110 15 202 c 0
 16 256 55 357 124 412 c 0
 137 422 154 425 170 420 c 0
 201 410 247 387 227 337 c 1
 227 337 220 323 206 310 c 1
 237 297 273 264 274 171 c 0xba
176 30 m 1x74
 176 30 226 48 225 172 c 0x7a
 224 252 170 281 146 290 c 0
 140 292 139 300 144 304 c 0
 152 310 163 314 170 316 c 0
 178 322 189 333 192 346 c 0
 196 358 192 373 177 386 c 1
 177 386 94 316 93 190 c 0
 92 83 111 42 176 30 c 1x74
115 510 m 0
 129 513 143 505 146 491 c 0
 149 476 140 462 126 458 c 0
 112 455 99 464 96 478 c 0
 93 492 102 506 115 510 c 0
192 510 m 0xb4
 206 513 220 504 223 490 c 0
 226 476 217 462 203 458 c 0
 189 454 176 463 173 477 c 0xba
 170 492 179 506 192 510 c 0xb4
EndSplineSet
EndChar

StartChar: divide
Encoding: 247 247 148
Width: 173
GlyphClass: 2
Flags: MW
HStem: 153 49<79.5 80.5 68 92.5> 218 41 269 49<81.5 82.5 70 94.5>
VStem: 57 46<178 178>
LayerCount: 2
Fore
SplineSet
158 210 m 0
 158 206 156 205 153 207 c 0
 138 217 101 221 62 215 c 0
 19 209 15 238 15 250 c 0
 15 252 17 253 19 253 c 0
 37 246 112 262 129 259 c 0
 152 256 157 225 158 210 c 0
88 269 m 0x70
 75 269 62 280 59 294 c 0
 56 307 64 318 76 318 c 0x50
 89 318 102 307 105 294 c 0
 108 280 101 269 88 269 c 0x70
74 202 m 0xd0
 87 202 100 191 103 178 c 0
 106 164 99 153 86 153 c 0
 73 153 60 164 57 178 c 0
 54 191 62 202 74 202 c 0xd0
EndSplineSet
EndChar

StartChar: oslash
Encoding: 248 248 149
Width: 290
GlyphClass: 2
Flags: MW
HStem: 1 21G 1 29
VStem: 16 77<177 229> 192 40 225 49<172 184.5> 233 36
LayerCount: 2
Fore
SplineSet
97 123 m 1x74
 110 144 166 224 180 243 c 0
 181 244 186 252 192 260 c 1
 176 277 158 285 146 290 c 0
 140 292 139 300 144 304 c 0
 152 310 163 314 171 316 c 0
 178 322 189 333 192 346 c 0
 196 358 192 373 177 386 c 1
 177 386 94 316 93 190 c 0
 93 164 94 142 97 123 c 1x74
176 30 m 1
 176 30 226 48 225 172 c 0x68
 225 197 219 217 211 234 c 1
 185 195 158 156 131 117 c 0
 126 108 113 91 106 83 c 1
 118 52 140 37 176 30 c 1
274 171 m 0
 275 62 216 19 188 6 c 0
 180 2 171 0 162 1 c 0
 121 5 91 18 70 37 c 1
 59 24 49 16 45 16 c 0
 42 17 41 18 40 20 c 0
 39 24 41 32 49 48 c 0
 50 50 51 52 53 55 c 0
 22 94 14 149 16 202 c 0
 16 256 55 357 124 412 c 0
 133 419 144 422 155 422 c 0
 160 422 165 422 170 420 c 0
 201 410 247 387 227 337 c 1
 227 337 220 323 206 310 c 1
 211 308 217 305 222 302 c 1
 226 309 227 311 233 317 c 2
 233 317 238 324 245 331 c 0
 252 338 260 344 264 342 c 0
 270 339 272 334 269 325 c 0xb4
 268 321 253 293 249 288 c 0
 248 286 246 284 244 281 c 0
 261 260 274 226 274 171 c 0
EndSplineSet
EndChar

StartChar: ugrave
Encoding: 249 249 150
Width: 338
GlyphClass: 2
Flags: MW
HStem: 1 21G 410 20G
VStem: 41 77<148 177> 208 17 209 77<155 358>
LayerCount: 2
Fore
SplineSet
337 53 m 0xe8
 337 50 337 47 336 44 c 0
 328 21 312 10 298 4 c 0
 287 -1 275 -1 263 2 c 0
 232 11 219 37 213 60 c 1
 204 43 193 29 183 20 c 0
 159 -4 121 -6 94 15 c 0
 40 58 41 145 41 145 c 1
 41 209 41 317 40 351 c 1
 36 348 28 345 22 344 c 0
 17 343 12 344 8 348 c 0
 4 353 2 360 1 364 c 0
 0 367 2 370 5 371 c 0
 40 379 76 407 90 419 c 0
 96 424 104 424 109 419 c 0
 111 417 113 414 115 412 c 0
 117 409 118 405 118 402 c 0
 118 358 118 213 118 148 c 1
 118 148 119 44 161 45 c 1
 203 74 208 184 209 216 c 2
 209 358 l 1
 209 386 l 2
 209 397 217 407 229 409 c 0
 251 413 275 419 293 430 c 0
 299 433 306 430 307 423 c 0
 308 420 308 415 308 410 c 0
 307 405 304 399 299 396 c 0
 295 394 289 387 288 370 c 0
 287 361 286 210 286 155 c 0
 282 36 303 40 303 40 c 1
 311 40 319 54 323 62 c 0
 324 64 327 65 330 63 c 0
 334 60 336 56 337 53 c 0xe8
119 480 m 0xf0
 112 488 111 498 118 504 c 0
 125 511 136 521 143 518 c 0
 151 514 193 489 217 485 c 0
 221 484 225 481 225 478 c 0
 225 472 222 463 208 458 c 1
 208 458 144 452 119 480 c 0xf0
EndSplineSet
EndChar

StartChar: uacute
Encoding: 250 250 151
Width: 338
GlyphClass: 2
Flags: MW
HStem: 1 21G 410 20G
VStem: 41 77<148 177> 209 77<155 358>
LayerCount: 2
Fore
SplineSet
337 53 m 0
 337 50 337 47 336 44 c 0
 328 21 312 10 298 4 c 0
 287 -1 275 -1 263 2 c 0
 232 11 219 37 213 60 c 1
 204 43 193 29 183 20 c 0
 159 -4 121 -6 94 15 c 0
 40 58 41 145 41 145 c 1
 41 209 41 317 40 351 c 1
 36 348 28 345 22 344 c 0
 17 343 12 344 8 348 c 0
 4 353 2 360 1 364 c 0
 0 367 2 370 5 371 c 0
 40 379 76 407 90 419 c 0
 96 424 104 424 109 419 c 0
 111 417 113 414 115 412 c 0
 117 409 118 405 118 402 c 0
 118 358 118 213 118 148 c 1
 118 148 119 44 161 45 c 1
 203 74 208 184 209 216 c 2
 209 358 l 1
 209 386 l 2
 209 397 217 407 229 409 c 0
 251 413 275 419 293 430 c 0
 299 433 306 430 307 423 c 0
 308 420 308 415 308 410 c 0
 307 405 304 399 299 396 c 0
 295 394 289 387 288 370 c 0
 287 361 286 210 286 155 c 0
 282 36 303 40 303 40 c 1
 311 40 319 54 323 62 c 0
 324 64 327 65 330 63 c 0
 334 60 336 56 337 53 c 0
225 484 m 0
 205 457 134 459 134 459 c 1
 117 463 112 471 110 476 c 0
 109 478 112 481 116 482 c 0
 142 488 180 512 189 516 c 0
 195 518 210 511 220 505 c 0
 228 500 230 491 225 484 c 0
EndSplineSet
EndChar

StartChar: ucircumflex
Encoding: 251 251 152
Width: 338
GlyphClass: 2
Flags: MW
HStem: 1 21G 410 20G
VStem: 41 77<148 177> 209 77<155 358>
LayerCount: 2
Fore
SplineSet
337 53 m 0
 337 50 337 47 336 44 c 0
 328 21 312 10 298 4 c 0
 287 -1 275 -1 263 2 c 0
 232 11 219 37 213 60 c 1
 204 43 193 29 183 20 c 0
 159 -4 121 -6 94 15 c 0
 40 58 41 145 41 145 c 1
 41 209 41 317 40 351 c 1
 36 348 28 345 22 344 c 0
 17 343 12 344 8 348 c 0
 4 353 2 360 1 364 c 0
 0 367 2 370 5 371 c 0
 40 379 76 407 90 419 c 0
 96 424 104 424 109 419 c 0
 111 417 113 414 115 412 c 0
 117 409 118 405 118 402 c 0
 118 358 118 213 118 148 c 1
 118 148 119 44 161 45 c 1
 203 74 208 184 209 216 c 2
 209 358 l 1
 209 386 l 2
 209 397 217 407 229 409 c 0
 251 413 275 419 293 430 c 0
 299 433 306 430 307 423 c 0
 308 420 308 415 308 410 c 0
 307 405 304 399 299 396 c 0
 295 394 289 387 288 370 c 0
 287 361 286 210 286 155 c 0
 282 36 303 40 303 40 c 1
 311 40 319 54 323 62 c 0
 324 64 327 65 330 63 c 0
 334 60 336 56 337 53 c 0
238 487 m 0
 241 486 244 482 244 479 c 0
 243 473 240 463 226 458 c 1
 226 458 190 453 169 478 c 1
 142 453 113 459 113 459 c 1
 99 465 95 475 94 481 c 0
 94 484 96 488 100 488 c 0
 122 493 155 515 163 519 c 0
 164 519 165 520 166 519 c 1
 167 520 168 519 169 519 c 0
 177 515 215 492 238 487 c 0
EndSplineSet
EndChar

StartChar: udieresis
Encoding: 252 252 153
Width: 338
GlyphClass: 2
Flags: MW
HStem: 1 21G 410 20G
VStem: 41 77<148 177> 105 51 182 51 209 77<155 358>
LayerCount: 2
Fore
SplineSet
337 53 m 0xe4
 337 50 337 47 336 44 c 0
 328 21 312 10 298 4 c 0
 287 -1 275 -1 263 2 c 0
 232 11 219 37 213 60 c 1
 204 43 193 29 183 20 c 0
 159 -4 121 -6 94 15 c 0
 40 58 41 145 41 145 c 1
 41 209 41 317 40 351 c 1
 36 348 28 345 22 344 c 0
 17 343 12 344 8 348 c 0
 4 353 2 360 1 364 c 0
 0 367 2 370 5 371 c 0
 40 379 76 407 90 419 c 0
 96 424 104 424 109 419 c 0
 111 417 113 414 115 412 c 0
 117 409 118 405 118 402 c 0
 118 358 118 213 118 148 c 1
 118 148 119 44 161 45 c 1
 203 74 208 184 209 216 c 2
 209 358 l 1
 209 386 l 2
 209 397 217 407 229 409 c 0
 251 413 275 419 293 430 c 0
 299 433 306 430 307 423 c 0
 308 420 308 415 308 410 c 0
 307 405 304 399 299 396 c 0
 295 394 289 387 288 370 c 0
 287 361 286 210 286 155 c 0
 282 36 303 40 303 40 c 1
 311 40 319 54 323 62 c 0
 324 64 327 65 330 63 c 0
 334 60 336 56 337 53 c 0xe4
125 510 m 0xd4
 139 513 153 505 156 491 c 0
 159 476 150 462 136 458 c 0
 122 455 108 464 105 478 c 0
 102 492 111 506 125 510 c 0xd4
202 510 m 0xe8
 216 513 230 504 233 490 c 0
 236 476 227 462 213 458 c 0
 199 454 185 463 182 477 c 0
 179 492 188 506 202 510 c 0xe8
EndSplineSet
EndChar

StartChar: yacute
Encoding: 253 253 154
Width: 323
GlyphClass: 2
Flags: MW
HStem: -173 21G 1 21G
VStem: 41 77<148 177> 52 108 209 78<210 358 358 370 25 386 25 391.5>
LayerCount: 2
Fore
SplineSet
307 423 m 0xe8
 307 420 308 415 307 410 c 0
 307 405 304 399 299 396 c 0
 294 394 289 387 287 370 c 0
 286 346 287 25 287 25 c 1
 287 25 290 -179 163 -173 c 0
 125 -174 3 -125 73 -84 c 1
 73 -84 130 -54 148 -26 c 0
 149 -23 153 -23 155 -25 c 0
 159 -31 161 -37 160 -45 c 0
 160 -48 159 -51 157 -54 c 0
 149 -65 137 -75 124 -82 c 1xd8
 124 -82 135 -155 163 -151 c 0
 208 -144 210 -3 209 53 c 1
 201 39 192 28 183 20 c 0
 159 -4 121 -6 94 15 c 0
 40 58 41 145 41 145 c 1
 41 209 41 317 40 351 c 1
 36 348 28 345 22 344 c 0
 17 343 12 344 8 348 c 0
 4 353 2 360 1 364 c 0
 0 367 2 370 5 371 c 0
 40 379 76 407 90 419 c 0
 95 424 103 424 108 419 c 0
 111 417 113 414 115 412 c 0
 116 409 117 405 117 402 c 0
 118 358 118 213 118 148 c 1
 118 148 119 44 161 45 c 1
 201 73 207 173 209 210 c 2
 209 358 l 1
 209 386 l 2
 209 397 217 407 228 409 c 0
 250 413 275 419 293 430 c 0
 298 433 306 430 307 423 c 0xe8
235 482 m 0
 215 456 144 458 144 458 c 1
 127 461 122 469 120 474 c 0
 119 477 122 480 126 481 c 0
 152 486 190 510 199 514 c 0
 205 517 219 509 230 503 c 0
 238 498 240 490 235 482 c 0
EndSplineSet
EndChar

StartChar: ydieresis
Encoding: 255 255 155
Width: 323
GlyphClass: 2
Flags: MW
HStem: -173 21G 1 21G
VStem: 41 77<148 177> 52 108 105 51 182 51 209 78<210 358 358 370 25 386 25 391.5>
LayerCount: 2
Fore
SplineSet
307 423 m 0xe2
 307 420 308 415 307 410 c 0
 307 405 304 399 299 396 c 0
 294 394 289 387 287 370 c 0
 286 346 287 25 287 25 c 1
 287 25 290 -179 163 -173 c 0
 125 -174 3 -125 73 -84 c 1
 73 -84 130 -54 148 -26 c 0
 149 -23 153 -23 155 -25 c 0
 159 -31 161 -37 160 -45 c 0
 160 -48 159 -51 157 -54 c 0
 149 -65 137 -75 124 -82 c 1xd2
 124 -82 135 -155 163 -151 c 0
 208 -144 210 -3 209 53 c 1
 201 39 192 28 183 20 c 0
 159 -4 121 -6 94 15 c 0
 40 58 41 145 41 145 c 1
 41 209 41 317 40 351 c 1
 36 348 28 345 22 344 c 0
 17 343 12 344 8 348 c 0
 4 353 2 360 1 364 c 0
 0 367 2 370 5 371 c 0
 40 379 76 407 90 419 c 0
 95 424 103 424 108 419 c 0
 111 417 113 414 115 412 c 0
 116 409 117 405 117 402 c 0
 118 358 118 213 118 148 c 1
 118 148 119 44 161 45 c 1
 201 73 207 173 209 210 c 2
 209 358 l 1
 209 386 l 2
 209 397 217 407 228 409 c 0
 250 413 275 419 293 430 c 0
 298 433 306 430 307 423 c 0xe2
125 512 m 0xca
 139 515 153 507 156 492 c 0
 159 478 150 464 136 460 c 0
 122 457 108 465 105 480 c 0
 102 494 111 508 125 512 c 0xca
202 511 m 0xe4
 216 515 230 506 233 492 c 0
 236 478 227 463 213 460 c 0
 199 456 185 465 182 479 c 0
 179 493 188 508 202 511 c 0xe4
EndSplineSet
EndChar

StartChar: OE
Encoding: 338 338 156
Width: 921
GlyphClass: 3
Flags: MW
HStem: -4 21G 0 30<702.5 707 702.5 743.5> 181 31<843 843> 516 47<293 296> 530 85 586 35<751 811.5>
VStem: 16 65<478 478> 74 75 208 61<261 349 180 351> 309 25<88 89> 340 28 491 59 634 72 655 25<31 35> 821 27
LayerCount: 2
Fore
SplineSet
208 261 m 1xf5f6
 208 261 205 326 208 351 c 0
 213 404 259 444 287 463 c 1
 238 452 158 417 149 299 c 0
 142 221 169 170 205 138 c 1
 207 143 207 150 207 162 c 0
 207 211 208 261 208 261 c 1xf5f6
309 89 m 1
 310 449 l 1
 291 440 269 411 269 349 c 2
 269 349 270 231 269 180 c 0
 268 142 245 127 225 122 c 1
 255 102 287 92 309 89 c 1
335 462 m 1
 334 88 l 1
 372 91 491 110 491 275 c 1
 491 275 499 446 335 462 c 1
655 35 m 1
 656 317 l 1
 615 293 577 255 570 195 c 0
 560 101 599 50 655 35 c 1
782 581 m 2
 782 581 731 566 712 520 c 1xe9f6
 778 530 827 562 821 580 c 0
 820 584 815 586 808 586 c 0
 800 586 791 584 782 581 c 2
900 173 m 0
 905 167 907 159 905 151 c 0
 883 48 793 0 694 0 c 0
 553 0 506 71 491 130 c 1
 435 72 357 53 333 9 c 0
 327 -2 314 -7 302 -4 c 0
 135 44 57 154 77 293 c 0
 99 455 266 487 310 492 c 1
 310 519 l 1
 305 518 299 516 293 516 c 0xf5f6
 259 513 219 523 161 530 c 0
 109 535 81 509 81 468 c 0
 81 447 93 439 104 437 c 0
 110 436 112 427 107 424 c 0
 101 420 92 416 82 416 c 0
 73 416 62 419 50 426 c 0
 20 443 16 478 16 478 c 1
 10 527 37 612 135 615 c 0xeaf6
 202 616 239 588 261 573 c 0
 273 566 284 563 295 563 c 0xf5f6
 313 563 328 571 334 583 c 0
 342 595 340 605 337 612 c 0
 335 617 340 622 345 620 c 0xe9f6
 358 615 367 604 368 586 c 0xf5f6
 368 562 355 543 335 530 c 1xe9f6
 335 494 l 1
 348 496 386 506 399 541 c 0
 402 547 409 550 415 547 c 0
 449 531 540 474 550 326 c 1
 609 376 689 391 689 391 c 1
 643 404 625 468 639 519 c 0
 656 583 719 621 783 621 c 0
 802 621 844 618 848 586 c 0
 853 548 795 506 706 491 c 1xf5fa
 704 462 709 397 783 392 c 0
 789 391 793 386 792 381 c 0
 791 373 787 362 775 356 c 2
 775 356 729 351 681 329 c 1
 680 31 l 1
 689 30 698 30 707 30 c 0
 813 37 843 181 843 181 c 1
 840 184 837 187 834 189 c 0
 832 191 830 194 831 198 c 0
 832 201 833 204 835 208 c 0
 836 212 840 213 843 212 c 0
 873 199 891 183 900 173 c 0
EndSplineSet
EndChar

StartChar: oe
Encoding: 339 339 157
Width: 481
GlyphClass: 3
Flags: MW
HStem: -1 31 337 85<149.5 227>
VStem: 15 78 192 40 225 83 417 44
LayerCount: 2
Fore
SplineSet
176 30 m 1xf4
 176 30 226 48 225 172 c 0xec
 224 252 170 281 146 290 c 0
 140 292 139 300 144 304 c 0
 152 310 163 314 170 316 c 0
 178 322 189 333 192 346 c 0
 196 358 192 373 176 386 c 1
 176 386 94 316 93 190 c 0
 92 83 111 42 176 30 c 1xf4
399 386 m 1
 399 386 328 342 311 233 c 1
 406 264 417 324 417 324 c 1
 422 342 415 373 399 386 c 1
460 65 m 0
 463 62 466 56 466 49 c 0
 466 43 464 38 460 33 c 0
 451 23 428 2 389 -1 c 1
 321 3 279 32 254 73 c 1
 235 33 206 14 188 6 c 0
 180 2 171 0 162 1 c 0
 37 14 14 110 15 202 c 0
 15 256 55 357 124 412 c 0
 133 419 144 422 155 422 c 0
 160 422 165 422 170 420 c 0
 201 410 247 387 227 337 c 1
 227 337 220 323 206 310 c 1
 218 305 230 298 241 285 c 1
 260 331 297 375 348 413 c 0
 357 419 367 422 377 422 c 0
 382 422 387 422 392 420 c 0
 424 411 480 359 456 306 c 1
 456 306 429 236 308 207 c 1
 300 114 329 41 391 30 c 1
 391 30 427 32 448 65 c 0
 450 69 457 70 460 65 c 0
EndSplineSet
EndChar

StartChar: Ydieresis
Encoding: 376 376 158
Width: 606
GlyphClass: 2
Flags: MW
HStem: -148 22<246 246> -38 66<280 328> 508 50 545 42
VStem: 16 69 136 85 326 24 329 26 339 51 381 61<371 380> 416 51 467 86
LayerCount: 2
Fore
SplineSet
587 54 m 1xed50
 587 54 601 14 577 -14 c 0
 558 -36 499 -83 474 -103 c 0
 468 -108 459 -107 453 -102 c 0
 437 -88 401 -61 350 -47 c 1xee50
 341 -104 309 -147 246 -148 c 0
 139 -149 146 -82 146 -82 c 1
 147 -57 160 -17 223 12 c 0
 254 26 291 30 328 28 c 1
 328 70 l 1
 103 68 136 293 136 293 c 1
 151 415 232 481 283 510 c 1
 251 504 211 509 156 508 c 0xed50
 105 506 80 477 85 437 c 0
 87 415 101 410 112 409 c 0
 118 408 121 400 116 396 c 0
 106 387 88 379 59 391 c 0
 27 404 19 439 19 439 c 1
 7 486 23 574 120 589 c 0
 186 599 226 575 250 564 c 0
 282 549 313 562 322 582 c 0
 327 596 325 605 321 612 c 0
 318 617 322 622 327 621 c 0
 341 617 351 608 354 590 c 0
 355 584 355 578 355 572 c 2
 353 168 l 1
 366 175 380 209 380 261 c 0
 381 301 380 308 380 308 c 1
 380 308 381 361 381 381 c 0
 382 458 443 475 467 478 c 1
 467 511 468 533 468 550 c 1
 454 545 l 2xdd50
 449 543 443 547 442 552 c 0
 442 554 442 556 442 558 c 0
 442 563 445 567 450 569 c 0
 473 579 547 608 550 561 c 0
 554 510 549 228 553 136 c 1
 553 136 577 86 587 54 c 1xed50
442 269 m 0
 442 210 389 154 353 155 c 1
 353 126 l 1
 418 135 464 198 468 286 c 0
 468 297 468 309 467 321 c 0
 467 383 467 430 467 465 c 1
 450 458 442 431 442 380 c 2
 442 380 442 310 442 269 c 0
221 290 m 0
 216 146 270 126 328 125 c 1
 330 508 l 1xed50
 303 485 225 407 221 290 c 0
245 -126 m 0
 304 -124 321 -73 326 -42 c 1xee50
 312 -40 296 -38 280 -38 c 1
 280 -38 191 -37 182 -85 c 1
 182 -85 171 -128 245 -126 c 0
494 -33 m 1
 501 -6 468 120 461 148 c 1
 442 113 410 79 353 72 c 1
 353 25 l 1
 410 17 465 -6 494 -33 c 1
359 708 m 0
 373 711 387 703 390 689 c 0
 393 674 384 660 370 656 c 0
 356 653 342 662 339 676 c 0xeca0
 336 690 345 704 359 708 c 0
436 708 m 0
 450 711 464 702 467 688 c 0
 470 674 461 660 447 656 c 0
 433 652 419 661 416 675 c 0
 413 690 422 704 436 708 c 0
EndSplineSet
EndChar

StartChar: circumflex
Encoding: 710 710 159
Width: 181
GlyphClass: 2
Flags: MW
HStem: 716 62
VStem: 16 150<738 741.5>
LayerCount: 2
Fore
SplineSet
159 745 m 0
 163 744 166 741 166 738 c 0
 165 732 162 722 148 717 c 1
 148 717 112 711 91 737 c 1
 64 712 35 718 35 718 c 1
 21 724 17 734 16 740 c 0
 16 743 18 746 22 747 c 0
 44 752 77 774 85 778 c 0
 86 778 87 778 88 778 c 0
 89 778 90 778 91 778 c 0
 99 773 137 751 159 745 c 0
EndSplineSet
EndChar

StartChar: ring
Encoding: 730 730 160
Width: 88
GlyphClass: 2
Flags: MW
HStem: 720 17<43.5 50 43.5 55> 763 17<42.5 49.5>
VStem: 18 16<746.5 750> 59 16<746.5 753.5>
LayerCount: 2
Fore
SplineSet
46 780 m 0
 62 780 75 766 75 750 c 0xd0
 75 734 63 720 47 720 c 0xf0
 31 720 18 734 18 750 c 0x70
 17 766 30 780 46 780 c 0
47 737 m 0xd0
 53 737 59 743 59 750 c 0x50
 59 757 53 763 46 763 c 0x70
 39 763 34 757 34 750 c 0xf0
 34 743 40 737 47 737 c 0xd0
EndSplineSet
EndChar

StartChar: tilde
Encoding: 732 732 161
Width: 180
GlyphClass: 2
Flags: MW
HStem: 734 42
VStem: 16 148
LayerCount: 2
Fore
SplineSet
164 764 m 0
 167 760 160 745 149 735 c 1
 149 735 122 713 92 723 c 0
 90 724 67 734 59 734 c 0
 44 735 40 733 29 731 c 0
 25 730 17 729 16 731 c 0
 14 736 18 746 26 754 c 1
 26 754 56 786 87 773 c 0
 89 772 101 764 109 762 c 0
 123 758 136 763 148 766 c 0
 151 766 162 768 164 764 c 0
EndSplineSet
EndChar

StartChar: Euro
Encoding: 8364 8364 162
Width: 357
GlyphClass: 2
Flags: MW
HStem: 9 31<197 212> 235 27<190.5 193> 236 30 293 28<184 192> 295 31 513 72
VStem: 53 33 85 78 87 72<236 236> 243 41 273 33
LayerCount: 2
Fore
SplineSet
281 524 m 0xae20
 285 514 304 473 306 418 c 0
 309 360 291 350 291 350 c 1
 291 350 265 330 236 374 c 0
 233 378 233 384 235 386 c 0
 250 396 289 430 267 513 c 1
 267 513 218 516 175 348 c 0
 173 339 171 331 170 323 c 1
 180 322 188 322 191 321 c 0
 193 321 195 320 195 318 c 0
 200 305 199 297 191 294 c 0
 190 294 188 293 187 293 c 0
 181 293 173 294 165 294 c 1
 163 284 162 274 161 264 c 1
 176 263 187 263 192 262 c 0
 194 262 195 261 196 259 c 0
 200 246 200 238 191 235 c 0
 190 235 189 233 187 234 c 0xd520
 181 234 169 235 159 235 c 1xc4c0
 156 124 189 47 197 40 c 1
 197 40 264 36 237 188 c 0
 237 192 239 194 242 191 c 0
 271 162 296 89 279 45 c 0
 263 -1 212 9 212 9 c 1
 168 24 147 44 135 60 c 0
 131 65 128 70 125 76 c 0
 102 120 90 188 87 236 c 1
 71 234 63 232 59 230 c 0
 57 229 55 231 54 233 c 0
 49 245 52 255 55 259 c 0
 55 261 57 262 58 263 c 0
 64 265 71 266 85 266 c 1xa4c0
 85 276 85 286 86 295 c 1
 70 293 62 291 58 289 c 0
 57 288 54 290 53 292 c 0
 49 304 52 314 54 318 c 0
 55 320 56 321 58 322 c 0
 64 324 72 325 88 326 c 1
 91 368 97 397 97 397 c 1
 128 530 180 574 209 587 c 0
 213 589 219 588 225 585 c 0
 253 568 273 537 278 528 c 0
 279 527 280 525 281 524 c 0xae20
EndSplineSet
EndChar

StartChar: minus
Encoding: 8722 8722 163
Width: 215
GlyphClass: 2
Flags: MW
HStem: 213 55
VStem: 16 183<200 256.5>
LayerCount: 2
Fore
SplineSet
162 268 m 0
 191 264 198 222 199 202 c 0
 199 198 196 196 193 198 c 0
 174 212 126 217 75 209 c 0
 21 202 15 239 16 255 c 0
 16 258 18 260 20 259 c 0
 43 250 140 271 162 268 c 0
EndSplineSet
EndChar

